<svg version="1.1" id="Layer_1" xmlns="http://www.w3.org/2000/svg" xmlns:xlink="http://www.w3.org/1999/xlink" x="0px" y="0px"
	 width="100%" viewBox="0 0 512 512" enable-background="new 0 0 512 512" xml:space="preserve">
<path fill="#000000" opacity="1.000000" stroke="none" 
	d="
M243.000000,1.000000 
	C332.952606,1.000000 422.905182,1.000000 512.928894,1.000000 
	C512.928894,171.666656 512.928894,342.333313 512.928894,513.000000 
	C496.920502,513.000000 480.928925,513.000000 464.128326,512.756531 
	C464.804810,511.558960 466.234131,510.500336 467.784576,509.667114 
	C482.608887,501.700287 487.839050,486.390839 483.972900,470.798065 
	C481.176514,459.519867 473.337891,452.609283 463.463531,448.093048 
	C469.222229,448.012848 474.530151,448.210083 479.804352,447.875397 
	C481.522919,447.766327 484.150146,446.597778 484.569366,445.323975 
	C485.081635,443.767212 484.309784,440.895386 483.046234,439.800110 
	C477.351379,434.863770 473.999451,428.506989 471.004120,421.389343 
	C471.037506,416.297180 471.070221,411.660461 471.421997,406.834259 
	C473.680908,399.372589 476.923370,393.070038 483.471924,388.666351 
	C484.698303,387.841614 484.806976,384.834381 484.720306,382.865570 
	C484.690765,382.194946 482.478546,381.084869 481.261292,381.081696 
	C460.149261,381.026672 439.036865,381.113068 417.476135,381.099030 
	C413.692291,380.972931 410.356873,380.916351 406.865509,380.524780 
	C401.408234,364.295654 393.658539,349.688904 382.543152,337.148773 
	C367.261017,319.907776 348.710663,307.377625 326.387207,301.066010 
	C315.700867,298.044617 304.801575,295.776520 294.314148,293.003815 
	C306.321075,286.466583 316.384247,278.064270 324.628357,267.670044 
	C337.704254,251.183899 344.108582,231.966675 344.820221,211.213394 
	C345.543671,190.115204 344.886627,168.969666 344.839569,147.669006 
	C344.845032,147.493164 344.833710,147.140778 344.941467,146.674042 
	C344.699921,135.954742 344.309113,125.703377 344.010986,115.449326 
	C343.575043,100.456581 339.461334,86.370682 333.353760,72.828590 
	C324.432037,53.046673 311.054962,36.765343 293.481323,24.111200 
	C283.249878,16.743916 272.413361,10.297244 259.625610,7.007532 
	C254.605988,5.549807 249.906494,4.336056 245.263290,2.935681 
	C244.393387,2.673330 243.748642,1.664403 243.000000,1.000000 
z"/>
<path fill="#000000" opacity="1.000000" stroke="none" 
	d="
M40.000004,513.000000 
	C27.007607,513.000000 14.015214,513.000000 1.017115,513.000000 
	C1.011410,342.440796 1.011410,171.881607 1.011410,1.000000 
	C66.353874,1.000000 131.708282,1.000000 197.725281,1.377983 
	C198.040894,2.099197 197.734161,2.685442 197.341080,2.750586 
	C182.309540,5.241703 168.502808,10.845245 155.543091,18.785309 
	C136.921967,30.193943 122.457695,45.501762 111.809662,64.521095 
	C100.285446,85.105438 96.018494,107.402275 96.004112,130.718201 
	C95.986969,158.519669 95.982536,186.321182 96.005463,214.122650 
	C96.031418,245.583817 96.093811,277.044952 95.809517,308.725769 
	C84.748421,313.290436 75.896645,320.386078 67.435295,328.063446 
	C54.541569,339.762512 44.860661,353.819275 38.154396,369.753845 
	C32.799042,382.478607 29.094975,395.799530 29.034451,409.780090 
	C28.916372,437.056610 29.220234,464.336823 28.872869,491.609436 
	C28.761152,500.380707 32.003120,506.571655 39.193462,511.113098 
	C39.669632,511.413818 39.740585,512.356079 40.000004,513.000000 
z"/>
<path fill="#688B96" opacity="1.000000" stroke="none" 
	d="
M96.140366,308.506104 
	C96.093811,277.044952 96.031418,245.583817 96.005463,214.122650 
	C95.982536,186.321182 95.986969,158.519669 96.004112,130.718201 
	C96.018494,107.402275 100.285446,85.105438 111.809662,64.521095 
	C122.457695,45.501762 136.921967,30.193943 155.543091,18.785309 
	C168.502808,10.845245 182.309540,5.241703 197.341080,2.750586 
	C197.734161,2.685442 198.040894,2.099197 198.193939,1.377983 
	C212.687561,1.000000 227.375122,1.000000 242.531342,1.000000 
	C243.748642,1.664403 244.393387,2.673330 245.263290,2.935681 
	C249.906494,4.336056 254.605988,5.549807 259.752991,7.308667 
	C260.725891,8.438957 261.137085,9.200422 261.751892,9.721799 
	C272.335876,18.697412 277.163605,30.182011 277.024261,43.973633 
	C276.903381,55.937225 277.003296,67.903046 276.610229,79.861992 
	C260.261230,75.420753 246.245758,78.895851 234.305847,90.340584 
	C224.431641,99.805305 212.764481,104.431053 199.079529,104.263725 
	C187.761169,104.125328 176.438156,104.127335 165.119934,104.275970 
	C147.808304,104.503296 136.319153,115.997910 136.187668,133.207031 
	C136.078278,147.522797 135.900116,161.846069 136.223465,176.155380 
	C136.848526,203.816162 148.063110,226.348160 170.133926,243.147537 
	C173.678986,245.845886 175.120239,248.476654 175.101562,252.941086 
	C174.960999,286.564911 175.094498,320.189880 175.080872,354.290649 
	C175.005646,358.753784 175.008804,362.740906 174.974625,366.727722 
	C174.901154,375.300446 171.123764,379.354462 162.631271,378.243896 
	C154.147797,377.134552 145.833145,374.734131 137.179520,372.648376 
	C114.602798,361.274567 101.234039,343.551666 97.421547,318.806427 
	C96.894920,315.388336 96.562622,311.940277 96.140366,308.506104 
z"/>
<path fill="#FFFAE2" opacity="1.000000" stroke="none" 
	d="
M137.444489,372.899658 
	C145.833145,374.734131 154.147797,377.134552 162.631271,378.243896 
	C171.123764,379.354462 174.901154,375.300446 174.974625,366.727722 
	C175.008804,362.740906 175.005646,358.753784 175.478470,354.345642 
	C177.077255,354.148071 178.228088,354.326111 179.355072,354.601776 
	C213.934006,363.059235 247.888885,361.032196 281.163330,348.395386 
	C287.821686,345.866669 294.305145,342.877625 300.918701,340.520752 
	C301.874237,354.273621 302.780304,367.606567 303.240479,380.998444 
	C294.153992,381.118896 285.503845,380.943268 276.875000,381.293579 
	C261.160370,381.931519 248.437286,392.420380 245.258148,406.970734 
	C242.038956,421.704407 248.981415,436.618866 262.395630,443.441345 
	C265.185486,444.860260 268.243195,445.752533 270.693420,446.919373 
	C263.251740,447.005615 256.289673,446.944366 249.340103,447.210510 
	C247.923599,447.264740 245.900269,448.231903 245.351578,449.359589 
	C244.828644,450.434387 245.354782,452.913574 246.301132,453.664459 
	C252.523956,458.601959 255.937546,465.320648 258.940063,472.814880 
	C258.955750,478.097443 258.958038,482.939209 258.708313,488.041534 
	C256.116577,495.011230 252.771805,501.088745 247.074417,505.546875 
	C244.213882,507.785248 244.463745,510.244049 246.000000,513.000000 
	C209.979111,513.000000 173.958206,513.000000 137.566238,512.539612 
	C137.237930,509.419952 137.315384,506.760681 137.318268,504.101379 
	C137.365921,460.367462 137.404144,416.633575 137.444489,372.899658 
z"/>
<path fill="#FBBE66" opacity="1.000000" stroke="none" 
	d="
M137.179520,372.648376 
	C137.404144,416.633575 137.365921,460.367462 137.318268,504.101379 
	C137.315384,506.760681 137.237930,509.419952 137.097580,512.539612 
	C104.979103,513.000000 72.958214,513.000000 40.468662,513.000000 
	C39.740585,512.356079 39.669632,511.413818 39.193462,511.113098 
	C32.003120,506.571655 28.761152,500.380707 28.872869,491.609436 
	C29.220234,464.336823 28.916372,437.056610 29.034451,409.780090 
	C29.094975,395.799530 32.799042,382.478607 38.154396,369.753845 
	C44.860661,353.819275 54.541569,339.762512 67.435295,328.063446 
	C75.896645,320.386078 84.748421,313.290436 95.809509,308.725769 
	C96.562622,311.940277 96.894920,315.388336 97.421547,318.806427 
	C101.234039,343.551666 114.602798,361.274567 137.179520,372.648376 
z"/>
<path fill="#88B9D4" opacity="1.000000" stroke="none" 
	d="
M246.468658,513.000000 
	C244.463745,510.244049 244.213882,507.785248 247.074417,505.546875 
	C252.771805,501.088745 256.116577,495.011230 259.179443,488.079041 
	C305.808472,487.865051 351.714355,487.865753 397.620209,487.892548 
	C404.103363,487.896301 410.586426,488.027313 417.032471,488.475952 
	C414.263397,502.134949 405.403931,509.328552 393.000000,513.000000 
	C344.312439,513.000000 295.624878,513.000000 246.468658,513.000000 
z"/>
<path fill="#3590BB" opacity="1.000000" stroke="none" 
	d="
M393.468658,513.000000 
	C405.403931,509.328552 414.263397,502.134949 417.043213,488.406036 
	C417.091034,487.959564 416.954926,487.920776 417.425232,487.958862 
	C427.862152,487.956665 437.829590,487.980316 447.795074,487.850922 
	C453.373596,487.778503 456.897400,484.641602 456.902069,480.068054 
	C456.906555,475.698822 453.504608,472.394562 448.279907,472.304230 
	C438.154755,472.129150 428.024933,472.226624 417.961365,472.181396 
	C418.025696,472.151611 417.987671,472.015045 417.941467,471.547241 
	C417.819031,463.141693 417.742828,455.203979 417.779541,447.189545 
	C417.892456,447.112854 418.071381,446.906677 418.530640,446.950562 
	C433.659851,447.384155 448.329742,447.773926 462.999664,448.163696 
	C473.337891,452.609283 481.176514,459.519867 483.972900,470.798065 
	C487.839050,486.390839 482.608887,501.700287 467.784576,509.667114 
	C466.234131,510.500336 464.804810,511.558960 463.659668,512.756531 
	C440.645782,513.000000 417.291534,513.000000 393.468658,513.000000 
z"/>
<path fill="#B9EA6A" opacity="1.000000" stroke="none" 
	d="
M271.177460,446.887512 
	C268.243195,445.752533 265.185486,444.860260 262.395630,443.441345 
	C248.981415,436.618866 242.038956,421.704407 245.258148,406.970734 
	C248.437286,392.420380 261.160370,381.931519 276.875000,381.293579 
	C285.503845,380.943268 294.153992,381.118896 303.731018,381.038818 
	C314.454926,380.999023 324.242432,380.977844 334.493835,381.014099 
	C358.978973,381.000916 383.000183,380.930359 407.021423,380.859741 
	C410.356873,380.916351 413.692291,380.972931 417.468964,381.557129 
	C417.942810,390.044434 417.975433,398.004089 418.012024,406.112000 
	C418.016052,406.260193 418.006714,406.556549 417.539307,406.515747 
	C372.446381,406.458557 327.820831,406.438599 283.195312,406.441010 
	C281.703796,406.441071 280.183350,406.522888 278.726318,406.815491 
	C274.757355,407.612396 272.605957,410.204865 272.569763,414.171875 
	C272.533234,418.173004 274.827148,420.739563 278.648071,421.663177 
	C280.392731,422.084900 282.286652,421.961487 284.112915,421.962402 
	C314.252136,421.977722 344.391357,421.996979 374.530548,421.963409 
	C389.013550,421.947296 403.496429,421.823120 417.992310,421.850464 
	C418.005280,421.953003 417.998383,422.159637 417.969543,422.617554 
	C417.984283,431.019226 418.027832,438.962952 418.071381,446.906677 
	C418.071381,446.906677 417.892456,447.112854 417.348114,447.127441 
	C410.486938,447.117432 404.170105,447.079956 397.853241,447.070374 
	C355.627991,447.006104 313.402710,446.947784 271.177460,446.887512 
z"/>
<path fill="#567981" opacity="1.000000" stroke="none" 
	d="
M344.834106,147.844864 
	C344.886627,168.969666 345.543671,190.115204 344.820221,211.213394 
	C344.108582,231.966675 337.704254,251.183899 324.628357,267.670044 
	C316.384247,278.064270 306.321075,286.466583 293.913452,292.990906 
	C291.867096,293.161774 290.536835,293.182098 288.829712,293.102844 
	C276.206329,289.576599 268.436615,281.726959 266.592255,269.116760 
	C265.613220,262.422974 266.097595,255.496857 266.202820,248.679977 
	C266.221375,247.477554 267.365173,245.929199 268.434692,245.159698 
	C291.810059,228.341919 303.537933,205.336411 305.454346,176.792877 
	C308.401154,176.762543 310.885376,176.787201 313.368195,176.740143 
	C330.137115,176.422348 340.908051,167.257187 344.031281,150.693481 
	C344.213348,149.727829 344.562622,148.793671 344.834106,147.844864 
z"/>
<path fill="#FBA615" opacity="1.000000" stroke="none" 
	d="
M289.206573,293.202454 
	C290.536835,293.182098 291.867096,293.161774 293.598022,293.154358 
	C304.801575,295.776520 315.700867,298.044617 326.387207,301.066010 
	C348.710663,307.377625 367.261017,319.907776 382.543152,337.148773 
	C393.658539,349.688904 401.408234,364.295654 406.865509,380.524811 
	C383.000183,380.930359 358.978973,381.000916 334.391144,380.672607 
	C326.092499,363.413483 315.971832,348.366760 300.833282,336.768127 
	C300.394928,336.018921 300.105896,335.517883 299.786621,334.776978 
	C299.670837,334.198090 299.467438,333.959595 299.208008,333.845276 
	C299.269806,333.868958 299.317078,333.745300 299.320251,333.328583 
	C295.951172,319.675385 292.578857,306.438904 289.206573,293.202454 
z"/>
<path fill="#557981" opacity="1.000000" stroke="none" 
	d="
M277.005646,79.867882 
	C277.003296,67.903046 276.903381,55.937225 277.024261,43.973633 
	C277.163605,30.182011 272.335876,18.697412 261.751892,9.721799 
	C261.137085,9.200422 260.725891,8.438957 260.092560,7.488093 
	C272.413361,10.297244 283.249878,16.743916 293.481323,24.111200 
	C311.054962,36.765343 324.432037,53.046673 333.353760,72.828590 
	C339.461334,86.370682 343.575043,100.456581 344.010986,115.449326 
	C344.309113,125.703377 344.699921,135.954742 344.770264,146.326111 
	C340.817871,127.881996 330.756958,118.588661 313.954620,118.262428 
	C310.965424,118.204399 307.974731,118.219772 304.911560,117.784058 
	C303.077789,99.368599 294.146057,86.731979 277.046082,80.115799 
	C277.042389,80.031860 277.005646,79.867882 277.005646,79.867882 
z"/>
<path fill="#FBD0A3" opacity="1.000000" stroke="none" 
	d="
M304.984741,118.201263 
	C307.974731,118.219772 310.965424,118.204399 313.954620,118.262428 
	C330.756958,118.588661 340.817871,127.881996 344.662476,146.792847 
	C344.833710,147.140778 344.845032,147.493164 344.839569,147.669006 
	C344.562622,148.793671 344.213348,149.727829 344.031281,150.693481 
	C340.908051,167.257187 330.137115,176.422348 313.368195,176.740143 
	C310.885376,176.787201 308.401154,176.762543 305.452698,176.337524 
	C304.986786,156.669724 304.985748,137.435486 304.984741,118.201263 
z"/>
<path fill="#A1E42C" opacity="1.000000" stroke="none" 
	d="
M418.530640,446.950562 
	C418.027832,438.962952 417.984283,431.019226 418.435974,422.569275 
	C436.288635,421.990265 453.646027,421.917511 471.003448,421.844757 
	C473.999451,428.506989 477.351379,434.863770 483.046234,439.800110 
	C484.309784,440.895386 485.081635,443.767212 484.569366,445.323975 
	C484.150146,446.597778 481.522919,447.766327 479.804352,447.875397 
	C474.530151,448.210083 469.222229,448.012848 463.463531,448.093048 
	C448.329742,447.773926 433.659851,447.384155 418.530640,446.950562 
z"/>
<path fill="#A1E42C" opacity="1.000000" stroke="none" 
	d="
M418.008026,405.963745 
	C417.975433,398.004089 417.942810,390.044434 417.917358,381.626648 
	C439.036865,381.113068 460.149261,381.026672 481.261292,381.081696 
	C482.478546,381.084869 484.690765,382.194946 484.720306,382.865570 
	C484.806976,384.834381 484.698303,387.841614 483.471924,388.666351 
	C476.923370,393.070038 473.680908,399.372589 471.071442,406.603210 
	C452.937256,406.362335 435.472626,406.163055 418.008026,405.963745 
z"/>
<path fill="#DDE2D4" opacity="1.000000" stroke="none" 
	d="
M418.012024,406.111969 
	C435.472626,406.163055 452.937256,406.362335 470.752380,406.792664 
	C471.070221,411.660461 471.037506,416.297180 471.004120,421.389343 
	C453.646027,421.917511 436.288635,421.990265 418.464783,422.111328 
	C417.998383,422.159637 418.005280,421.953003 417.993958,421.401093 
	C417.990662,416.084961 417.998688,411.320770 418.006714,406.556549 
	C418.006714,406.556549 418.016052,406.260193 418.012024,406.111969 
z"/>
<path fill="#FCD0A3" opacity="1.000000" stroke="none" 
	d="
M299.816864,335.016876 
	C300.105896,335.517883 300.394928,336.018921 300.800354,337.152893 
	C300.900909,338.557526 300.885101,339.329193 300.869263,340.100861 
	C294.305145,342.877625 287.821686,345.866669 281.163330,348.395386 
	C247.888885,361.032196 213.934006,363.059235 179.355072,354.601776 
	C178.228088,354.326111 177.077255,354.148071 175.539948,353.869507 
	C175.094498,320.189880 174.960999,286.564911 175.101562,252.941086 
	C175.120239,248.476654 173.678986,245.845886 170.133926,243.147537 
	C148.063110,226.348160 136.848526,203.816162 136.223465,176.155380 
	C135.900116,161.846069 136.078278,147.522797 136.187668,133.207031 
	C136.319153,115.997910 147.808304,104.503296 165.119934,104.275970 
	C176.438156,104.127335 187.761169,104.125328 199.079529,104.263725 
	C212.764481,104.431053 224.431641,99.805305 234.305847,90.340584 
	C246.245758,78.895851 260.261230,75.420753 276.610229,79.861992 
	C277.005646,79.867882 277.042389,80.031860 277.029419,80.570419 
	C277.010986,112.765724 276.982452,144.422485 277.006958,176.079208 
	C277.028137,203.460754 266.986572,226.537460 246.592148,244.668747 
	C234.343338,255.558350 220.736694,263.907684 203.062469,258.127777 
	C202.905914,258.076599 202.731750,258.081848 202.570923,258.040741 
	C199.235718,257.187958 197.970764,258.633331 198.047272,261.899689 
	C198.156464,266.562347 197.877884,271.243195 198.170441,275.890778 
	C199.136246,291.234619 207.972153,301.640900 222.925919,305.202484 
	C227.460098,306.282440 232.031937,307.226074 236.616470,308.069153 
	C257.830658,311.970306 277.922699,318.588379 295.324188,331.896240 
	C296.461426,332.765900 297.977325,333.140442 299.317078,333.745300 
	C299.317078,333.745300 299.269806,333.868958 299.285828,334.063080 
	C299.435028,334.536530 299.606689,334.789764 299.816864,335.016876 
z"/>
<path fill="#88B9D4" opacity="1.000000" stroke="none" 
	d="
M270.693420,446.919373 
	C313.402710,446.947784 355.627991,447.006104 397.853241,447.070374 
	C404.170105,447.079956 410.486938,447.117432 417.235199,447.204132 
	C417.742828,455.203979 417.819031,463.141693 417.478699,471.623566 
	C399.768311,472.186951 382.474396,472.203003 365.180511,472.226105 
	C329.762573,472.273407 294.344666,472.324554 258.926727,472.374146 
	C255.937546,465.320648 252.523956,458.601959 246.301132,453.664459 
	C245.354782,452.913574 244.828644,450.434387 245.351578,449.359589 
	C245.900269,448.231903 247.923599,447.264740 249.340103,447.210510 
	C256.289673,446.944366 263.251740,447.005615 270.693420,446.919373 
z"/>
<path fill="#F5F5F5" opacity="1.000000" stroke="none" 
	d="
M258.940063,472.814880 
	C294.344666,472.324554 329.762573,472.273407 365.180511,472.226105 
	C382.474396,472.203003 399.768311,472.186951 417.524933,472.091370 
	C417.987671,472.015045 418.025696,472.151611 417.962769,472.631805 
	C417.584900,478.048248 417.269897,482.984528 416.954926,487.920776 
	C416.954926,487.920776 417.091034,487.959564 417.080292,488.029480 
	C410.586426,488.027313 404.103363,487.896301 397.620209,487.892548 
	C351.714355,487.865753 305.808472,487.865051 259.431488,487.818512 
	C258.958038,482.939209 258.955750,478.097443 258.940063,472.814880 
z"/>
<path fill="#FBBE66" opacity="1.000000" stroke="none" 
	d="
M300.918701,340.520752 
	C300.885101,339.329193 300.900909,338.557526 300.949646,337.401123 
	C315.971832,348.366760 326.092499,363.413483 333.927246,380.615173 
	C324.242432,380.977844 314.454926,380.999023 304.176941,380.979858 
	C302.780304,367.606567 301.874237,354.273621 300.918701,340.520752 
z"/>
<path fill="#D9E0E3" opacity="1.000000" stroke="none" 
	d="
M417.425232,487.958862 
	C417.269897,482.984528 417.584900,478.048248 417.898438,472.661591 
	C428.024933,472.226624 438.154755,472.129150 448.279907,472.304230 
	C453.504608,472.394562 456.906555,475.698822 456.902069,480.068054 
	C456.897400,484.641602 453.373596,487.778503 447.795074,487.850922 
	C437.829590,487.980316 427.862152,487.956665 417.425232,487.958862 
z"/>
<path fill="#F5F5F4" opacity="1.000000" stroke="none" 
	d="
M417.539307,406.515747 
	C417.998688,411.320770 417.990662,416.084961 417.981018,421.298523 
	C403.496429,421.823120 389.013550,421.947296 374.530548,421.963409 
	C344.391357,421.996979 314.252136,421.977722 284.112915,421.962402 
	C282.286652,421.961487 280.392731,422.084900 278.648071,421.663177 
	C274.827148,420.739563 272.533234,418.173004 272.569763,414.171875 
	C272.605957,410.204865 274.757355,407.612396 278.726318,406.815491 
	C280.183350,406.522888 281.703796,406.441071 283.195312,406.441010 
	C327.820831,406.438599 372.446381,406.458557 417.539307,406.515747 
z"/>
<path fill="#FEB983" opacity="1.000000" stroke="none" 
	d="
M299.320251,333.328583 
	C297.977325,333.140442 296.461426,332.765900 295.324188,331.896240 
	C277.922699,318.588379 257.830658,311.970306 236.616470,308.069153 
	C232.031937,307.226074 227.460098,306.282440 222.925919,305.202484 
	C207.972153,301.640900 199.136246,291.234619 198.170441,275.890778 
	C197.877884,271.243195 198.156464,266.562347 198.047272,261.899689 
	C197.970764,258.633331 199.235718,257.187958 202.570923,258.040741 
	C202.731750,258.081848 202.905914,258.076599 203.062469,258.127777 
	C220.736694,263.907684 234.343338,255.558350 246.592148,244.668747 
	C266.986572,226.537460 277.028137,203.460754 277.006958,176.079208 
	C276.982452,144.422485 277.010986,112.765724 277.033112,80.654358 
	C294.146057,86.731979 303.077789,99.368599 304.911560,117.784058 
	C304.985748,137.435486 304.986786,156.669724 304.989441,176.359314 
	C303.537933,205.336411 291.810059,228.341919 268.434692,245.159698 
	C267.365173,245.929199 266.221375,247.477554 266.202820,248.679977 
	C266.097595,255.496857 265.613220,262.422974 266.592255,269.116760 
	C268.436615,281.726959 276.206329,289.576599 288.829712,293.102844 
	C292.578857,306.438904 295.951172,319.675385 299.320251,333.328583 
z"/>
<path fill="#FEB983" opacity="1.000000" stroke="none" 
	d="
M299.786621,334.776978 
	C299.606689,334.789764 299.435028,334.536530 299.224060,334.039398 
	C299.467438,333.959595 299.670837,334.198090 299.786621,334.776978 
z"/>
</svg>