<svg version="1.1" id="Layer_1" xmlns="http://www.w3.org/2000/svg" xmlns:xlink="http://www.w3.org/1999/xlink" x="0px" y="0px"
	 width="100%" viewBox="0 0 512 512" enable-background="new 0 0 512 512" xml:space="preserve">
<path fill="#000000" opacity="1.000000" stroke="none" 
	d="
M269.000000,1.000001 
	C350.287933,1.000000 431.575897,1.000000 512.931885,1.000000 
	C512.931885,171.666656 512.931885,342.333313 512.927002,513.000000 
	C503.927216,513.000000 494.932281,513.000000 485.233276,512.633301 
	C485.765106,509.236969 484.821106,506.907440 482.398193,504.860352 
	C476.765686,500.101440 473.341949,493.913696 471.088745,486.507507 
	C471.041687,481.690216 471.061890,477.333405 471.365509,472.745911 
	C473.122101,465.466919 477.262329,460.119202 482.199554,455.105011 
	C483.699066,453.582153 485.225891,450.368011 484.567993,448.905914 
	C483.862335,447.337555 480.650299,446.312866 478.440033,446.123199 
	C473.326477,445.684479 468.157379,445.893219 463.192444,445.530151 
	C464.300476,444.941650 465.286682,444.784546 466.144440,444.364899 
	C479.927002,437.621613 485.547424,426.421692 485.099487,411.281982 
	C484.635559,395.601776 470.516174,381.040649 454.919281,380.994720 
	C445.612793,380.967316 436.306458,380.889404 426.999756,380.438049 
	C423.998932,372.683441 421.545654,365.034851 417.841736,358.049347 
	C414.235779,351.248627 409.846008,344.711365 404.906128,338.806519 
	C397.910065,330.443848 389.728790,323.214233 379.576294,317.986420 
	C378.669891,317.257477 378.140533,316.570160 377.444275,316.182983 
	C360.203918,306.596436 341.148895,303.148987 321.857666,299.501740 
	C309.036926,296.751099 295.560455,296.630341 285.918518,285.556458 
	C283.517456,281.265289 279.903381,277.492279 279.252502,273.263275 
	C277.771210,263.638580 277.744568,253.790024 277.441681,243.903809 
	C277.984100,243.535995 278.180328,243.253403 278.443604,243.063873 
	C302.352295,225.850113 315.730743,202.979660 316.503815,173.049988 
	C331.431396,173.436569 342.830780,168.320816 348.786163,154.428757 
	C354.643585,140.765182 349.774384,124.439003 336.012268,116.338699 
	C335.681305,102.139137 335.956451,88.346550 334.861450,74.663612 
	C333.413239,56.566917 325.425018,41.011383 313.191406,27.790802 
	C301.654266,15.322878 287.421387,7.140275 270.920135,2.930309 
	C270.165070,2.737668 269.634918,1.663565 269.000000,1.000001 
z"/>
<path fill="#000000" opacity="1.000000" stroke="none" 
	d="
M36.000000,513.000000 
	C24.340261,513.000000 12.680523,513.000000 1.015588,513.000000 
	C1.010392,342.441620 1.010392,171.883224 1.010392,1.000000 
	C64.020523,1.000000 127.041603,1.000000 190.726089,1.372879 
	C190.889435,2.137842 190.436691,2.780385 189.882355,2.885085 
	C178.411423,5.051653 168.236084,10.062090 158.979706,17.018147 
	C136.743835,33.728107 124.902802,55.968250 124.055176,83.813797 
	C123.720909,94.795021 123.999649,105.794907 123.643784,116.885605 
	C109.406410,124.774033 107.112137,138.729782 109.385246,149.235657 
	C112.062225,161.608078 120.188126,172.803238 143.505844,173.394638 
	C144.001816,177.767105 144.356750,182.150528 145.014740,186.487946 
	C148.557068,209.838303 161.176071,227.556137 179.369156,241.858826 
	C180.641998,242.859512 181.802536,244.810379 181.882355,246.377121 
	C182.178482,252.190201 181.760315,258.039673 182.056427,263.852753 
	C182.497177,272.505402 179.617035,279.770447 173.505692,286.148743 
	C168.345535,289.202454 163.774857,292.915527 158.546097,294.849365 
	C151.957764,297.286041 144.831970,298.269470 137.518204,299.932983 
	C130.110992,301.324921 123.117844,302.634430 116.137535,304.009064 
	C103.194031,306.558075 90.937584,310.886292 79.510002,318.253784 
	C67.368378,325.802673 57.197678,334.974548 49.029919,346.413818 
	C35.247944,365.716003 28.472334,386.969727 28.884975,410.828827 
	C29.373974,439.103027 29.131617,467.393188 28.904718,495.674011 
	C28.849920,502.504272 29.831148,508.326172 36.273987,511.981018 
	C36.350651,512.024536 36.098614,512.647522 36.000000,513.000000 
z"/>
<path fill="#FBBE66" opacity="1.000000" stroke="none" 
	d="
M79.837463,318.169495 
	C90.937584,310.886292 103.194031,306.558075 116.137535,304.009064 
	C123.117844,302.634430 130.110992,301.324921 137.793030,300.132812 
	C152.294968,313.974365 166.084488,327.687042 179.918243,341.354950 
	C185.437637,346.808197 189.298172,347.277649 195.901337,343.148834 
	C207.029419,336.190704 218.077789,329.105072 229.432281,322.091156 
	C230.068848,322.102234 230.432831,322.095215 231.058823,322.313232 
	C241.864212,329.216125 252.410065,335.890137 262.950165,342.573273 
	C270.545380,347.389069 274.219360,347.025391 280.577698,340.780396 
	C289.358429,332.156158 298.132385,323.525116 307.133881,315.160248 
	C311.113800,317.870544 315.004395,320.134644 318.602020,322.795013 
	C338.607605,337.588776 352.674988,356.566772 358.623199,380.899933 
	C322.908600,380.963867 287.670380,380.980927 252.432190,381.003418 
	C250.937225,381.004364 249.412415,380.876129 247.953201,381.118835 
	C244.300415,381.726379 242.975632,384.742645 245.676544,387.066559 
	C251.783066,392.320740 255.749786,398.874756 258.760193,406.607880 
	C258.750122,411.990356 258.761078,416.917297 258.546875,422.112183 
	C254.493698,428.130066 250.611755,433.845337 246.873947,439.653351 
	C245.892792,441.177948 244.360397,443.466278 244.876266,444.547119 
	C245.493713,445.840820 248.010651,446.810089 249.749359,446.884735 
	C256.901978,447.191711 264.071442,447.105804 270.920166,447.363098 
	C269.012970,448.036926 267.392303,448.434814 265.832001,448.999359 
	C252.115784,453.962189 242.638199,468.840210 244.313904,482.728363 
	C246.209717,498.440765 257.357574,510.351257 271.868958,512.319641 
	C271.935181,512.541504 272.000000,513.000000 272.000000,513.000000 
	C213.979111,513.000000 155.958206,513.000000 97.548416,512.536743 
	C97.167389,477.140625 97.157951,442.207703 97.190544,407.274811 
	C97.206444,390.236176 95.350159,373.385712 91.148605,356.904083 
	C87.827927,343.877899 83.640160,331.072784 79.837463,318.169495 
z"/>
<path fill="#EFF3F5" opacity="1.000000" stroke="none" 
	d="
M79.510002,318.253784 
	C83.640160,331.072784 87.827927,343.877899 91.148605,356.904083 
	C95.350159,373.385712 97.206444,390.236176 97.190544,407.274811 
	C97.157951,442.207703 97.167389,477.140625 97.079758,512.536743 
	C76.979103,513.000000 56.958210,513.000000 36.468658,513.000000 
	C36.098614,512.647522 36.350651,512.024536 36.273987,511.981018 
	C29.831148,508.326172 28.849920,502.504272 28.904718,495.674011 
	C29.131617,467.393188 29.373974,439.103027 28.884975,410.828827 
	C28.472334,386.969727 35.247944,365.716003 49.029919,346.413818 
	C57.197678,334.974548 67.368378,325.802673 79.510002,318.253784 
z"/>
<path fill="#88B9D4" opacity="1.000000" stroke="none" 
	d="
M271.802704,512.097778 
	C257.357574,510.351257 246.209717,498.440765 244.313904,482.728363 
	C242.638199,468.840210 252.115784,453.962189 265.832001,448.999359 
	C267.392303,448.434814 269.012970,448.036926 271.368835,447.359314 
	C309.714142,447.094177 347.296295,447.042542 384.878387,446.961884 
	C395.849091,446.938354 406.819611,446.832062 417.843170,446.835938 
	C417.896118,446.908203 417.931641,447.083801 417.905640,447.546478 
	C417.923828,455.987213 417.967987,463.965302 418.014221,472.049194 
	C418.016296,472.155029 417.969147,472.361481 417.508972,472.278717 
	C415.386658,472.142731 413.724487,472.043365 412.062317,472.043030 
	C369.453705,472.034485 326.845093,472.034027 284.236481,472.038452 
	C276.725830,472.039246 271.982574,475.262268 272.172089,480.201202 
	C272.356293,485.000549 276.868378,487.912628 284.180573,487.913422 
	C326.789185,487.917969 369.397797,487.920837 412.006409,487.899261 
	C413.993713,487.898254 415.980927,487.658112 417.992615,487.642426 
	C418.017029,487.755524 418.008942,487.986755 417.941895,488.386780 
	C415.867645,494.405487 414.362579,500.282227 411.658905,505.542938 
	C410.114929,508.547180 406.617767,510.547607 404.000000,513.000000 
	C390.645782,513.000000 377.291534,513.000000 363.130127,512.761475 
	C361.353394,512.351746 360.383820,512.030884 359.414246,512.030945 
	C330.210388,512.033813 301.006561,512.068237 271.802704,512.097778 
z"/>
<path fill="#688B96" opacity="1.000000" stroke="none" 
	d="
M123.999252,116.786285 
	C123.999649,105.794907 123.720909,94.795021 124.055176,83.813797 
	C124.902802,55.968250 136.743835,33.728107 158.979706,17.018147 
	C168.236084,10.062090 178.411423,5.051653 189.882355,2.885085 
	C190.436691,2.780385 190.889435,2.137842 191.194748,1.372879 
	C210.354233,1.000000 229.708450,1.000000 249.613068,1.331043 
	C250.879456,2.318528 251.501251,3.142493 252.325699,3.606031 
	C262.980743,9.596712 268.501740,18.412615 268.059448,30.894754 
	C267.794556,38.370995 268.106659,45.867680 268.132446,53.546234 
	C268.105438,53.737286 268.006683,54.110172 267.661621,54.192627 
	C242.149033,65.621681 217.042847,65.519684 191.961441,53.951534 
	C182.864334,49.755726 175.667542,51.639603 169.540298,59.582195 
	C160.300888,71.559013 156.072067,85.440376 154.075729,100.168205 
	C152.990173,108.176842 147.743729,112.533211 139.929169,113.222504 
	C134.556213,113.696426 129.304916,115.549599 123.999252,116.786285 
z"/>
<path fill="#567981" opacity="1.000000" stroke="none" 
	d="
M268.159424,53.355179 
	C268.106659,45.867680 267.794556,38.370995 268.059448,30.894754 
	C268.501740,18.412615 262.980743,9.596712 252.325699,3.606031 
	C251.501251,3.142493 250.879456,2.318528 250.081726,1.331043 
	C256.021149,1.000000 262.042297,1.000000 268.531738,1.000001 
	C269.634918,1.663565 270.165070,2.737668 270.920135,2.930309 
	C287.421387,7.140275 301.654266,15.322878 313.191406,27.790802 
	C325.425018,41.011383 333.413239,56.566917 334.861450,74.663612 
	C335.956451,88.346550 335.681305,102.139137 335.660126,116.294525 
	C328.519562,115.549866 321.734833,114.393608 314.651184,113.068527 
	C307.909637,108.796638 305.829224,102.643265 304.882080,95.311401 
	C303.248657,82.667015 298.790344,70.895798 291.074097,60.571793 
	C284.473785,51.740875 278.748047,49.999413 268.159424,53.355179 
z"/>
<path fill="#3590BB" opacity="1.000000" stroke="none" 
	d="
M404.468689,513.000000 
	C406.617767,510.547607 410.114929,508.547180 411.658905,505.542938 
	C414.362579,500.282227 415.867645,494.405487 418.409363,488.374023 
	C434.599304,487.913635 450.254944,487.892303 465.909943,487.781830 
	C467.660431,487.769501 469.407379,487.251465 471.155975,486.967957 
	C473.341949,493.913696 476.765686,500.101440 482.398193,504.860352 
	C484.821106,506.907440 485.765106,509.236969 484.764648,512.633301 
	C458.312439,513.000000 431.624878,513.000000 404.468689,513.000000 
z"/>
<path fill="#98B9C5" opacity="1.000000" stroke="none" 
	d="
M271.868958,512.319641 
	C301.006561,512.068237 330.210388,512.033813 359.414246,512.030945 
	C360.383820,512.030884 361.353394,512.351746 362.661499,512.761475 
	C332.979095,513.000000 302.958221,513.000000 272.468658,513.000000 
	C272.000000,513.000000 271.935181,512.541504 271.868958,512.319641 
z"/>
<path fill="#FCD0A3" opacity="1.000000" stroke="none" 
	d="
M123.643784,116.885605 
	C129.304916,115.549599 134.556213,113.696426 139.929169,113.222504 
	C147.743729,112.533211 152.990173,108.176842 154.075729,100.168205 
	C156.072067,85.440376 160.300888,71.559013 169.540298,59.582195 
	C175.667542,51.639603 182.864334,49.755726 191.961441,53.951534 
	C217.042847,65.519684 242.149033,65.621681 267.661133,54.653175 
	C268.004700,92.985664 268.036560,130.940125 267.961670,168.894379 
	C267.952209,173.692444 267.619049,178.518570 267.031982,183.281921 
	C264.172760,206.480576 252.865509,225.045609 234.550613,239.040939 
	C226.643661,245.083038 217.353592,249.315140 208.908157,254.243240 
	C208.621475,254.051102 208.986755,254.462982 209.424347,254.565155 
	C227.939514,258.888000 246.036591,257.826172 263.586121,250.209518 
	C268.136230,248.234726 272.615173,246.095932 277.126770,244.032440 
	C277.744568,253.790024 277.771210,263.638580 279.252502,273.263275 
	C279.903381,277.492279 283.517456,281.265289 285.618652,285.732300 
	C269.569763,296.391602 253.671539,306.537872 237.824524,316.763519 
	C235.362015,318.352539 233.133530,320.304199 230.796814,322.088196 
	C230.432831,322.095215 230.068848,322.102234 229.265762,321.781769 
	C225.986191,319.480713 223.208511,317.408661 220.294724,315.550018 
	C204.816284,305.676544 189.303711,295.856628 173.802963,286.018158 
	C179.617035,279.770447 182.497177,272.505402 182.056427,263.852753 
	C181.760315,258.039673 182.178482,252.190201 181.882355,246.377121 
	C181.802536,244.810379 180.641998,242.859512 179.369156,241.858826 
	C161.176071,227.556137 148.557068,209.838303 145.014740,186.487946 
	C144.356750,182.150528 144.001816,177.767105 143.505844,173.394638 
	C120.188126,172.803238 112.062225,161.608078 109.385246,149.235657 
	C107.112137,138.729782 109.406410,124.774033 123.643784,116.885605 
z"/>
<path fill="#FFB983" opacity="1.000000" stroke="none" 
	d="
M277.441681,243.903809 
	C272.615173,246.095932 268.136230,248.234726 263.586121,250.209518 
	C246.036591,257.826172 227.939514,258.888000 209.424347,254.565155 
	C208.986755,254.462982 208.621475,254.051102 208.908157,254.243240 
	C217.353592,249.315140 226.643661,245.083038 234.550613,239.040939 
	C252.865509,225.045609 264.172760,206.480576 267.031982,183.281921 
	C267.619049,178.518570 267.952209,173.692444 267.961670,168.894379 
	C268.036560,130.940125 268.004700,92.985664 268.006165,54.570717 
	C268.006683,54.110172 268.105438,53.737286 268.132446,53.546234 
	C278.748047,49.999413 284.473785,51.740875 291.074097,60.571793 
	C298.790344,70.895798 303.248657,82.667015 304.882080,95.311401 
	C305.829224,102.643265 307.909637,108.796638 314.696442,113.472336 
	C315.359558,116.826431 315.937836,119.606316 315.954987,122.389641 
	C316.058899,139.289413 316.034973,156.189972 316.053711,173.090271 
	C315.730743,202.979660 302.352295,225.850113 278.443604,243.063873 
	C278.180328,243.253403 277.984100,243.535995 277.441681,243.903809 
z"/>
<path fill="#FA2A3B" opacity="1.000000" stroke="none" 
	d="
M427.000031,380.834229 
	C436.306458,380.889404 445.612793,380.967316 454.919281,380.994720 
	C470.516174,381.040649 484.635559,395.601776 485.099487,411.281982 
	C485.547424,426.421692 479.927002,437.621613 466.144440,444.364899 
	C465.286682,444.784546 464.300476,444.941650 462.768616,445.602844 
	C457.887909,446.311707 453.616119,446.853363 449.336639,446.922791 
	C438.870209,447.092712 428.400208,447.044342 417.931641,447.083801 
	C417.931641,447.083801 417.896118,446.908203 417.892517,446.385437 
	C417.928375,437.918030 417.967834,429.973419 418.013062,421.956604 
	C418.018829,421.884399 417.906982,421.792358 418.375488,421.874451 
	C428.663452,421.915070 438.485168,421.983398 448.301575,421.787720 
	C453.558411,421.683014 456.923157,418.422424 456.937683,414.000153 
	C456.952271,409.554199 453.569489,406.269226 448.348511,406.203766 
	C438.202576,406.076599 428.053619,406.192413 417.961792,406.161407 
	C418.017639,406.115234 418.007629,405.970642 417.973419,405.504822 
	C417.971741,397.065277 418.004272,389.091583 418.482422,381.069092 
	C421.618744,380.958282 424.309387,380.896240 427.000031,380.834229 
z"/>
<path fill="#FBA616" opacity="1.000000" stroke="none" 
	d="
M359.099609,380.854095 
	C352.674988,356.566772 338.607605,337.588776 318.602020,322.795013 
	C315.004395,320.134644 311.113800,317.870544 307.298096,314.871735 
	C312.174713,309.499847 317.111786,304.679718 322.048828,299.859619 
	C341.148895,303.148987 360.203918,306.596436 377.444275,316.182983 
	C378.140533,316.570160 378.669891,317.257477 379.559601,318.351685 
	C379.292908,320.628540 378.773499,322.368774 378.189789,324.087219 
	C371.901855,342.598541 366.292145,361.270660 364.248871,380.908752 
	C362.270905,380.904602 360.685242,380.879333 359.099609,380.854095 
z"/>
<path fill="#EFF3F4" opacity="1.000000" stroke="none" 
	d="
M321.857666,299.501770 
	C317.111786,304.679718 312.174713,309.499847 307.073486,314.608490 
	C298.132385,323.525116 289.358429,332.156158 280.577698,340.780396 
	C274.219360,347.025391 270.545380,347.389069 262.950165,342.573273 
	C252.410065,335.890137 241.864212,329.216125 231.058807,322.313202 
	C233.133530,320.304199 235.362015,318.352539 237.824524,316.763519 
	C253.671539,306.537872 269.569763,296.391602 285.751068,286.043427 
	C295.560455,296.630341 309.036926,296.751099 321.857666,299.501770 
z"/>
<path fill="#C9E2E6" opacity="1.000000" stroke="none" 
	d="
M364.641205,380.887695 
	C366.292145,361.270660 371.901855,342.598541 378.189789,324.087219 
	C378.773499,322.368774 379.292908,320.628540 379.858887,318.533142 
	C389.728790,323.214233 397.910065,330.443848 404.906128,338.806519 
	C409.846008,344.711365 414.235779,351.248627 417.841736,358.049347 
	C421.545654,365.034851 423.998932,372.683441 426.999756,380.438049 
	C424.309387,380.896240 421.618744,380.958282 418.015045,381.011902 
	C399.615051,380.964905 382.128143,380.926300 364.641205,380.887695 
z"/>
<path fill="#FCD0A3" opacity="1.000000" stroke="none" 
	d="
M316.503815,173.049988 
	C316.034973,156.189972 316.058899,139.289413 315.954987,122.389641 
	C315.937836,119.606316 315.359558,116.826431 314.995361,113.641151 
	C321.734833,114.393608 328.519562,115.549866 335.656433,116.750298 
	C349.774384,124.439003 354.643585,140.765182 348.786163,154.428757 
	C342.830780,168.320816 331.431396,173.436569 316.503815,173.049988 
z"/>
<path fill="#3590BB" opacity="1.000000" stroke="none" 
	d="
M417.905640,447.546478 
	C428.400208,447.044342 438.870209,447.092712 449.336639,446.922791 
	C453.616119,446.853363 457.887909,446.311707 462.587006,445.912109 
	C468.157379,445.893219 473.326477,445.684479 478.440033,446.123199 
	C480.650299,446.312866 483.862335,447.337555 484.567993,448.905914 
	C485.225891,450.368011 483.699066,453.582153 482.199554,455.105011 
	C477.262329,460.119202 473.122101,465.466919 471.072998,472.435303 
	C453.002075,472.218048 435.507111,472.080688 418.012115,471.943359 
	C417.967987,463.965302 417.923828,455.987213 417.905640,447.546478 
z"/>
<path fill="#C6C9CB" opacity="1.000000" stroke="none" 
	d="
M418.014221,472.049194 
	C435.507111,472.080688 453.002075,472.218048 470.789581,472.666016 
	C471.061890,477.333405 471.041687,481.690216 471.088745,486.507507 
	C469.407379,487.251465 467.660431,487.769501 465.909943,487.781830 
	C450.254944,487.892303 434.599304,487.913635 418.476410,487.973969 
	C418.008942,487.986755 418.017029,487.755524 417.993835,487.216614 
	C417.970123,481.905640 417.969635,477.133575 417.969147,472.361481 
	C417.969147,472.361481 418.016296,472.155029 418.014221,472.049194 
z"/>
<path fill="#EFF3F4" opacity="1.000000" stroke="none" 
	d="
M173.505692,286.148743 
	C189.303711,295.856628 204.816284,305.676544 220.294724,315.550018 
	C223.208511,317.408661 225.986191,319.480713 228.993195,321.763672 
	C218.077789,329.105072 207.029419,336.190704 195.901337,343.148834 
	C189.298172,347.277649 185.437637,346.808197 179.918243,341.354950 
	C166.084488,327.687042 152.294968,313.974365 138.212891,300.079773 
	C144.831970,298.269470 151.957764,297.286041 158.546097,294.849365 
	C163.774857,292.915527 168.345535,289.202454 173.505692,286.148743 
z"/>
<path fill="#FB636F" opacity="1.000000" stroke="none" 
	d="
M418.007294,422.028809 
	C417.967834,429.973419 417.928375,437.918030 417.839539,446.313171 
	C406.819611,446.832062 395.849091,446.938354 384.878387,446.961884 
	C347.296295,447.042542 309.714142,447.094177 271.683350,447.160645 
	C264.071442,447.105804 256.901978,447.191711 249.749359,446.884735 
	C248.010651,446.810089 245.493713,445.840820 244.876266,444.547119 
	C244.360397,443.466278 245.892792,441.177948 246.873947,439.653351 
	C250.611755,433.845337 254.493698,428.130066 259.045074,422.109222 
	C302.368652,421.837738 344.968933,421.825104 387.569214,421.845367 
	C397.715271,421.850189 407.861267,421.964752 418.007294,422.028809 
z"/>
<path fill="#FB636F" opacity="1.000000" stroke="none" 
	d="
M364.248871,380.908752 
	C382.128143,380.926300 399.615051,380.964905 417.569397,381.060669 
	C418.004272,389.091583 417.971741,397.065277 417.510742,405.585938 
	C364.315277,406.139404 311.548248,406.145874 258.781219,406.152374 
	C255.749786,398.874756 251.783066,392.320740 245.676544,387.066559 
	C242.975632,384.742645 244.300415,381.726379 247.953201,381.118835 
	C249.412415,380.876129 250.937225,381.004364 252.432190,381.003418 
	C287.670380,380.980927 322.908600,380.963867 358.623199,380.899933 
	C360.685242,380.879333 362.270905,380.904602 364.248871,380.908752 
z"/>
<path fill="#C9E2E7" opacity="1.000000" stroke="none" 
	d="
M258.760193,406.607880 
	C311.548248,406.145874 364.315277,406.139404 417.544983,406.051758 
	C418.007629,405.970642 418.017639,406.115234 417.974304,406.613953 
	C417.922974,412.005920 417.914978,416.899139 417.906982,421.792358 
	C417.906982,421.792358 418.018829,421.884399 418.013062,421.956604 
	C407.861267,421.964752 397.715271,421.850189 387.569214,421.845367 
	C344.968933,421.825104 302.368652,421.837738 259.270203,421.841309 
	C258.761078,416.917297 258.750122,411.990356 258.760193,406.607880 
z"/>
<path fill="#C7E0E6" opacity="1.000000" stroke="none" 
	d="
M417.508972,472.278717 
	C417.969635,477.133575 417.970123,481.905640 417.969391,487.103516 
	C415.980927,487.658112 413.993713,487.898254 412.006409,487.899261 
	C369.397797,487.920837 326.789185,487.917969 284.180573,487.913422 
	C276.868378,487.912628 272.356293,485.000549 272.172089,480.201202 
	C271.982574,475.262268 276.725830,472.039246 284.236481,472.038452 
	C326.845093,472.034027 369.453705,472.034485 412.062317,472.043030 
	C413.724487,472.043365 415.386658,472.142731 417.508972,472.278717 
z"/>
<path fill="#D0C4C7" opacity="1.000000" stroke="none" 
	d="
M418.375488,421.874451 
	C417.914978,416.899139 417.922974,412.005920 417.918457,406.660156 
	C428.053619,406.192413 438.202576,406.076599 448.348511,406.203766 
	C453.569489,406.269226 456.952271,409.554199 456.937683,414.000153 
	C456.923157,418.422424 453.558411,421.683014 448.301575,421.787720 
	C438.485168,421.983398 428.663452,421.915070 418.375488,421.874451 
z"/>
</svg>