<svg version="1.1" id="Layer_1" xmlns="http://www.w3.org/2000/svg" xmlns:xlink="http://www.w3.org/1999/xlink" x="0px" y="0px"
	 width="100%" viewBox="0 0 500 100" enable-background="new 0 0 500 100" xml:space="preserve">
<path fill="#000000" opacity="1.000000" stroke="none" 
	d="
M339.000000,101.000000 
	C326.312439,101.000000 313.624878,101.000000 300.128021,100.762863 
	C302.215912,95.873108 305.113098,91.220497 308.010315,86.567879 
	C307.593079,86.112297 307.175873,85.656723 306.758667,85.201141 
	C304.682709,86.628372 302.606750,88.055603 300.979980,89.174026 
	C299.908722,88.146072 298.572693,86.864044 297.236664,85.582016 
	C296.768524,85.925491 296.300354,86.268959 295.832214,86.612427 
	C296.545319,89.847206 297.258423,93.081993 297.971527,96.316772 
	C297.565521,96.248245 297.159485,96.179718 296.753479,96.111191 
	C296.168976,97.740791 295.584473,99.370392 295.000000,101.000000 
	C244.312439,101.000000 193.624878,101.000000 142.129456,100.757233 
	C144.167252,95.845161 147.012909,91.175873 149.858566,86.506577 
	C149.384369,86.052498 148.910187,85.598419 148.435989,85.144333 
	C146.370895,86.861832 144.305786,88.579330 142.176071,90.350563 
	C142.057922,89.083931 141.928772,87.699318 141.802185,86.342232 
	C137.568329,86.390472 137.568329,86.390472 139.646561,95.001282 
	C138.134933,97.487946 137.067474,99.243973 136.000000,101.000000 
	C131.310745,101.000000 126.621490,101.000000 121.125381,100.756271 
	C121.102531,99.149887 121.886543,97.787224 122.651543,96.457596 
	C126.434692,98.140434 128.881378,95.923248 129.756271,92.800911 
	C130.294876,90.878746 129.529755,87.255676 128.117279,86.376297 
	C124.102135,83.876549 119.888870,86.572754 118.966377,91.473892 
	C118.366730,94.659767 117.659195,97.825333 117.000000,101.000000 
	C114.629440,101.000000 112.258888,101.000000 109.117004,100.681030 
	C108.726822,98.990517 109.107964,97.618980 109.556488,96.004990 
	C110.194908,96.263252 110.750412,96.631714 111.342285,96.704514 
	C115.807678,97.253754 116.883598,93.747047 117.443985,90.713120 
	C117.691292,89.374176 115.657532,86.312637 114.593056,86.281250 
	C111.623848,86.193672 107.304024,83.966820 106.099625,89.100136 
	C105.180992,93.015434 104.684364,97.029739 104.000000,101.000000 
	C69.682335,101.000000 35.364670,101.000000 1.023501,101.000000 
	C1.023501,67.697556 1.023501,34.395096 1.023501,1.046318 
	C167.559723,1.046318 334.119446,1.046318 500.839600,1.046318 
	C500.839600,34.210499 500.839600,67.422035 500.839600,101.000000 
	C449.313019,101.000000 397.625153,101.000000 345.135681,100.748848 
	C346.978912,96.240105 349.623810,91.982521 352.818237,86.840309 
	C352.987732,90.704239 353.101013,93.286911 353.273285,97.214401 
	C356.129608,95.522766 358.064026,94.377129 359.221985,93.691330 
	C360.257019,94.446037 361.434082,96.001923 362.358856,95.864166 
	C367.912323,95.036827 365.671600,89.053703 368.912750,86.566658 
	C368.556854,86.156700 368.200989,85.746735 367.845123,85.336777 
	C365.914246,86.490181 363.983398,87.643578 362.266510,88.669174 
	C361.951843,88.109802 361.373810,87.082161 360.795776,86.054520 
	C359.598480,86.743484 358.401184,87.432449 357.138519,88.159035 
	C353.742157,84.320045 349.082825,85.037758 345.719757,89.734428 
	C344.689087,88.441086 343.537292,86.995743 342.385498,85.550400 
	C341.853760,85.849640 341.322052,86.148888 340.790314,86.448128 
	C341.332458,89.558517 341.874573,92.668900 342.203735,94.557388 
	C340.826996,97.326004 339.913483,99.163002 339.000000,101.000000 
M282.242371,7.070292 
	C280.834137,7.380115 279.427917,7.699371 278.017365,7.998240 
	C268.632385,9.986739 259.246429,11.970870 249.008530,14.001046 
	C247.356766,13.988637 245.608810,14.327977 244.068771,13.906920 
	C233.807571,11.101470 223.651520,7.832114 212.834686,7.900820 
	C212.245834,7.904560 211.653793,7.406476 210.325409,6.999468 
	C209.215164,7.963755 208.104904,8.928041 206.209793,10.310200 
	C206.203812,27.877426 206.197830,45.444653 206.320953,63.687325 
	C208.231140,65.062828 210.141342,66.438324 212.793381,67.965683 
	C221.224869,70.633202 229.811600,72.899857 238.041672,76.087402 
	C245.431870,78.949661 252.419724,80.117958 259.651581,76.067970 
	C260.750061,75.452797 262.098877,75.257812 263.351929,74.949890 
	C271.637665,72.913795 279.437347,69.706123 286.579773,65.038628 
	C287.650940,64.338638 288.737518,62.856163 288.854950,61.642567 
	C289.359985,56.424095 289.506042,51.170887 289.930847,45.016048 
	C289.930847,32.826603 289.930847,20.637159 289.930847,8.062887 
	C287.457703,7.741179 285.267578,7.456291 282.242371,7.070292 
M414.759155,26.007891 
	C414.183228,26.960375 413.177490,27.884752 413.112976,28.870676 
	C412.928955,31.684944 413.163055,34.524170 413.169250,37.353714 
	C413.187744,45.788048 413.175873,54.222450 413.175873,62.918095 
	C419.293549,62.918095 424.763519,62.977200 430.230652,62.878868 
	C431.701385,62.852417 433.180573,62.415188 434.626740,62.050842 
	C444.290924,59.616104 448.371002,53.235657 448.009094,41.185257 
	C447.807098,34.459480 441.639648,28.140526 433.454193,27.058409 
	C427.597382,26.284138 421.633698,26.317858 414.759155,26.007891 
M382.867279,32.590012 
	C382.867279,30.489460 382.867279,28.388908 382.867279,26.337631 
	C379.335419,26.337631 376.279785,26.337631 373.024689,26.337631 
	C373.024689,34.158688 372.941864,41.633438 373.045685,49.105598 
	C373.175323,58.437607 377.737946,63.166718 387.035706,63.845020 
	C397.262146,64.591080 403.688263,60.380260 404.516937,51.131908 
	C405.251495,42.934109 404.670959,34.618469 404.670959,26.305859 
	C401.396149,26.305859 398.341125,26.305859 395.016174,26.305859 
	C395.016174,28.926468 395.089661,31.235195 395.001587,33.537746 
	C394.787659,39.131847 394.483856,44.722450 394.244934,50.315685 
	C394.075256,54.288605 392.400330,56.425129 388.063049,56.018761 
	C383.596741,55.600300 383.119629,52.286533 382.961884,49.049740 
	C382.710968,43.901291 382.877167,38.732513 382.867279,32.590012 
M22.500519,45.995316 
	C20.568941,51.465073 18.637365,56.934834 16.570755,62.786976 
	C21.697714,62.791565 27.095480,65.195107 28.264267,57.693729 
	C28.356720,57.100346 30.095623,56.454033 31.111446,56.375290 
	C33.595989,56.182693 36.121578,56.487377 38.600357,56.260689 
	C41.726028,55.974846 43.500916,56.883289 44.323898,60.186966 
	C44.616440,61.361320 46.642559,62.583881 48.067036,62.884022 
	C50.219921,63.337643 52.539017,63.002415 55.098064,63.002415 
	C51.901302,53.951046 48.827366,45.594570 45.999283,37.155704 
	C42.105839,25.537874 42.185463,25.511190 29.451683,26.198757 
	C27.297443,32.500885 25.108768,38.903755 22.500519,45.995316 
M321.335297,40.998020 
	C319.277130,40.532284 317.061096,40.394417 315.208099,39.502453 
	C313.572876,38.715294 312.342651,37.086727 310.933594,35.829681 
	C312.692169,34.871788 314.469971,33.082558 316.205414,33.122776 
	C320.273315,33.217041 324.320923,34.187416 328.682251,34.849506 
	C328.682251,32.407696 328.682251,29.971540 328.682251,26.582399 
	C323.694611,26.386099 318.672607,26.084272 313.647430,26.016859 
	C307.268066,25.931278 302.717651,28.991611 302.008148,33.610874 
	C300.927338,40.647076 303.328705,44.654079 310.100861,47.003300 
	C312.135651,47.709156 314.216766,48.280960 316.273956,48.922794 
	C318.578278,49.641724 322.040985,49.881550 320.996674,53.200073 
	C320.552124,54.612656 317.093781,55.911072 315.070160,55.819740 
	C310.783813,55.626282 306.540192,54.485840 302.302185,53.737827 
	C301.496368,61.609604 301.584412,61.805614 309.799500,63.063202 
	C312.737122,63.512901 315.766876,63.937046 318.702820,63.708485 
	C326.060242,63.135693 330.099304,59.554932 330.882782,53.480396 
	C331.738312,46.846836 329.813171,44.107986 321.335297,40.998020 
M60.743099,62.979504 
	C63.338951,62.979504 65.934807,62.979504 69.000198,62.979504 
	C69.000198,58.479477 69.000198,54.587219 69.000198,51.066715 
	C73.757935,50.237530 78.134140,49.988865 82.145172,48.647919 
	C87.361305,46.904087 89.756012,41.740601 88.958664,35.123035 
	C88.358429,30.141397 84.910889,26.816107 80.369354,26.345005 
	C73.381844,25.620174 66.263741,26.154322 59.073643,26.154322 
	C59.073643,34.497608 58.990314,42.292984 59.106884,50.085369 
	C59.170364,54.329041 59.573109,58.567638 60.743099,62.979504 
M122.592178,30.056858 
	C120.405960,28.727329 118.291801,26.418604 116.020042,26.251425 
	C109.138481,25.745016 102.195862,26.068272 95.408066,26.068272 
	C95.408066,38.683456 95.408066,50.732613 95.408066,62.678001 
	C98.725830,62.678001 101.638313,62.678001 105.045197,62.678001 
	C105.045197,58.461308 105.045197,54.567917 105.045197,50.758423 
	C123.409187,48.550735 129.308472,41.815781 122.592178,30.056858 
M346.512238,25.981462 
	C342.413391,25.981462 338.314545,25.981462 333.922089,25.981462 
	C334.084198,28.879105 334.210693,31.139833 334.370392,33.994003 
	C338.567169,33.994003 342.453766,33.994003 346.545532,33.994003 
	C346.545532,43.996311 346.545532,53.384357 346.545532,62.778603 
	C350.018066,62.778603 353.123627,62.778603 356.502777,62.778603 
	C356.502777,53.179653 356.502777,43.814175 356.502777,33.912262 
	C360.473694,33.912262 364.379089,33.912262 368.632080,33.912262 
	C368.758942,31.022835 368.862518,28.663403 368.980286,25.981462 
	C361.426056,25.981462 354.467651,25.981462 346.512238,25.981462 
M469.178955,62.819836 
	C469.432709,60.239895 470.081024,57.625286 469.858002,55.087238 
	C469.396118,49.830421 470.873016,45.434219 474.028625,41.247208 
	C477.561096,36.560230 480.650574,31.539398 483.995422,26.570822 
	C473.738190,24.883142 472.779663,25.324087 468.301239,33.229149 
	C467.330383,34.942894 466.131500,36.527473 464.874481,38.416740 
	C458.079407,25.801722 454.707092,23.817921 445.966919,27.007025 
	C454.005859,37.659138 463.545715,47.688808 459.693665,62.979942 
	C463.286530,62.979942 465.771362,62.979942 469.178955,62.819836 
M180.018372,36.549686 
	C182.247833,33.188137 184.477295,29.826588 186.568802,26.673027 
	C175.502182,22.517269 172.485535,30.896400 168.383087,38.265533 
	C166.073639,34.466934 164.698715,29.986128 161.670593,27.860781 
	C158.752899,25.812946 154.127243,26.198555 150.251968,25.515047 
	C157.896683,37.610748 166.751266,47.832104 162.722260,62.785759 
	C166.702545,62.785759 169.615082,62.785759 173.259827,62.785759 
	C171.856140,53.245834 173.056686,44.454479 180.018372,36.549686 
M132.706573,26.010796 
	C132.155289,26.478186 131.126221,26.941950 131.122635,27.413500 
	C131.033539,39.148647 131.052734,50.884617 131.052734,62.642326 
	C140.070282,62.642326 148.434647,62.642326 156.786743,62.642326 
	C156.786743,60.000210 156.786743,57.728027 156.786743,54.984825 
	C151.516556,54.984825 146.443344,54.984825 140.945374,54.984825 
	C140.945374,45.145599 140.945374,35.770103 140.945374,25.992897 
	C138.224884,25.992897 135.935959,25.992897 132.706573,26.010796 
M213.613113,92.877548 
	C212.062500,89.276268 213.382324,88.438782 214.973373,88.911621 
	C216.753601,92.275322 217.370361,95.339409 219.039490,96.102951 
	C221.025101,97.011276 223.920883,95.990501 226.402390,95.657341 
	C226.641052,95.625305 226.739105,94.545792 226.902451,93.952545 
	C225.294937,93.763756 223.684052,93.597176 222.084946,93.353271 
	C221.917145,93.327675 221.818985,92.845695 221.490952,92.166229 
	C223.680069,92.043373 225.692978,91.930405 227.649780,91.820587 
	C228.060715,86.058983 224.947189,84.079620 219.142212,86.573631 
	C216.143768,87.861855 215.421616,86.137009 214.253738,84.325310 
	C213.900940,83.778046 212.802414,83.018517 212.753235,83.067444 
	C209.486862,86.317963 205.226379,85.986206 201.171677,86.461586 
	C200.750565,86.510956 200.211258,87.429756 200.110825,88.011459 
	C199.678207,90.517128 199.388824,93.047516 199.047272,95.568909 
	C199.567078,95.881294 200.086899,96.193672 200.606705,96.506058 
	C201.708221,95.104591 203.462357,93.833603 203.774109,92.274254 
	C204.404419,89.121429 205.934433,88.567879 208.787415,89.377647 
	C208.940979,91.507561 209.091721,93.598495 209.238312,95.631783 
	C214.442383,96.137306 214.442383,96.137306 213.613113,92.877548 
M407.835938,86.002396 
	C403.724609,87.596870 399.464508,85.049461 395.298096,86.328903 
	C394.849640,87.985168 394.376404,89.529533 394.022095,91.100716 
	C393.685883,92.591461 393.474182,94.110283 393.207794,95.616768 
	C393.601257,95.939377 393.994720,96.261993 394.388184,96.584610 
	C395.591278,95.392883 396.860748,94.259857 397.979706,92.993767 
	C399.224945,91.584869 400.333069,90.054832 401.500885,88.577530 
	C401.397186,95.745132 404.545227,98.411682 410.473145,96.138565 
	C411.416077,95.777008 412.097534,94.733643 412.899872,94.005493 
	C411.753479,93.745628 410.617706,93.407082 409.457367,93.250893 
	C408.535706,93.126839 407.583984,93.225899 406.645630,93.225899 
	C406.651855,92.864456 406.658051,92.503014 406.664276,92.141563 
	C409.055023,92.028397 411.445770,91.915230 413.831787,91.802284 
	C414.334045,87.467499 412.882080,85.428070 407.835938,86.002396 
M170.347473,95.978600 
	C171.752411,93.816292 173.157333,91.653984 175.248825,88.435028 
	C174.821671,91.654091 174.556091,93.655533 174.281799,95.722656 
	C175.860062,95.722656 177.275543,95.722656 178.224823,95.722656 
	C179.099258,93.257698 179.843109,91.160828 180.586975,89.063957 
	C180.926773,89.197617 181.266586,89.331268 181.606384,89.464928 
	C181.393814,91.475143 181.181259,93.485352 180.934937,95.814774 
	C186.817596,96.369064 185.192444,91.688080 185.842422,89.322304 
	C186.650177,86.382294 184.214722,85.912453 181.776947,85.990845 
	C179.055740,86.078354 176.309341,85.808609 173.613510,86.083183 
	C172.235657,86.223511 169.822952,87.188477 169.808640,87.824203 
	C169.747574,90.535851 166.323242,93.221581 170.347473,95.978600 
M290.527954,95.998100 
	C291.681366,94.734001 293.442810,93.643318 293.862976,92.170082 
	C294.767456,88.998955 294.981689,85.630981 295.478455,82.343575 
	C295.176666,81.998436 294.874878,81.653305 294.573090,81.308167 
	C292.942932,82.587608 291.312775,83.867058 289.682617,85.146500 
	C287.049286,86.513626 284.326508,87.996559 282.584991,90.240921 
	C281.818176,91.229156 282.450012,94.702934 283.510284,95.378014 
	C285.072388,96.372627 287.585449,95.873726 290.527954,95.998100 
M166.474594,83.038750 
	C162.251968,81.416489 157.204544,82.518372 156.266006,85.554489 
	C154.787827,90.336372 159.236145,90.584579 161.743973,92.933434 
	C159.649704,92.762817 157.555450,92.592209 155.461182,92.421593 
	C155.133408,92.760590 154.805618,93.099586 154.477829,93.438583 
	C155.811951,94.613976 157.005951,96.523575 158.509613,96.810547 
	C161.555588,97.391876 164.769836,97.262283 166.043320,93.288521 
	C167.599030,88.434113 163.485336,87.962807 161.580215,86.894127 
	C163.135681,85.977562 165.018066,84.868347 166.474594,83.038750 
M248.547806,92.185722 
	C246.980270,94.866150 248.663742,96.755676 250.797424,96.720840 
	C253.467575,96.677246 257.461060,96.025505 258.500336,94.245201 
	C260.885437,90.159470 257.639465,87.697151 252.943024,86.237724 
	C255.872543,86.027252 257.812897,85.887840 259.753296,85.748436 
	C259.983490,85.344643 260.213684,84.940857 260.443909,84.537064 
	C259.290985,83.694290 257.917236,81.956589 257.026581,82.176399 
	C254.345581,82.838028 250.624542,83.575600 249.534088,85.526909 
	C247.020096,90.025635 252.695374,90.320587 255.613525,93.485542 
	C252.736023,92.859428 251.043762,92.491211 248.547806,92.185722 
M320.364838,94.019051 
	C322.061249,94.718910 323.757629,95.418770 326.238098,96.442108 
	C325.134613,91.058311 324.331207,87.138451 323.466583,82.920052 
	C314.323578,82.649498 315.751709,91.724342 311.248749,95.319702 
	C311.488983,95.676796 311.729218,96.033897 311.969452,96.390991 
	C314.496185,95.595901 317.022919,94.800819 320.364838,94.019051 
M101.997025,85.487053 
	C101.118782,84.660004 100.293488,83.242233 99.348717,83.157562 
	C98.204475,83.055023 96.461479,83.748901 95.846016,84.675171 
	C93.494156,88.214737 91.491127,91.986076 89.743385,95.004913 
	C94.422531,95.004913 99.102623,95.004913 103.745087,95.004913 
	C103.216743,92.367241 102.615074,89.363518 101.997025,85.487053 
M370.067993,84.901329 
	C369.486328,88.488609 368.904663,92.075890 368.071167,97.216293 
	C370.362579,95.675667 372.019104,95.065842 372.840485,93.878349 
	C373.803406,92.486191 374.039856,90.591499 374.591400,88.914780 
	C375.062500,89.042427 375.533569,89.170082 376.004669,89.297729 
	C375.708923,91.375916 375.413177,93.454102 375.114746,95.551315 
	C379.997955,95.735588 380.918060,93.557983 379.370392,86.132744 
	C377.734192,86.028267 376.091797,85.923393 374.959290,85.851082 
	C374.672821,84.442238 374.437622,83.285446 374.202423,82.128647 
	C372.931122,82.796143 371.659851,83.463646 370.067993,84.901329 
M186.982651,94.892387 
	C189.801498,99.783974 193.436691,94.020950 196.355865,96.025154 
	C196.932617,94.590103 197.463303,93.583641 197.746384,92.511787 
	C199.075623,87.479073 197.798615,86.039619 192.527863,85.969040 
	C186.411087,85.887131 188.688232,91.497444 186.982651,94.892387 
M391.318817,91.978058 
	C394.802643,90.061249 392.643433,86.760872 391.284027,86.468956 
	C388.706818,85.915535 385.172821,86.294930 383.160187,87.794838 
	C381.659241,88.913414 381.926483,92.404610 381.406250,94.839188 
	C384.095062,95.291557 386.773621,95.929024 389.479156,96.078346 
	C390.245239,96.120628 391.089966,94.737473 391.898621,94.008049 
	C390.754761,93.746765 389.621674,93.405823 388.463623,93.249413 
	C387.538635,93.124481 386.583313,93.224197 385.641449,93.224197 
	C385.650482,92.814560 385.659485,92.404915 385.668518,91.995277 
	C387.271210,91.995277 388.873901,91.995277 391.318817,91.978058 
M274.955566,96.058846 
	C283.377747,97.455475 280.082092,90.224792 281.601746,86.254494 
	C279.875977,86.522209 278.260864,87.132477 277.391998,88.298714 
	C276.429047,89.591286 276.148010,91.391907 275.570068,92.971313 
	C275.179169,92.834259 274.788269,92.697212 274.397400,92.560158 
	C274.612244,90.551788 274.827118,88.543411 275.044220,86.514359 
	C271.278687,86.300514 270.209076,87.753563 269.993774,92.598518 
	C269.859924,95.609016 270.717194,97.395248 274.955566,96.058846 
M334.401001,92.104774 
	C334.808594,93.394157 335.216187,94.683533 335.623749,95.972916 
	C336.505951,95.095284 337.884674,94.352913 338.168182,93.312195 
	C338.780334,91.065094 338.830383,88.664864 339.109344,86.336151 
	C328.141418,85.446594 328.141418,85.446594 327.333527,95.639832 
	C330.863434,96.677094 332.092133,95.221909 332.125275,91.736595 
	C332.133453,90.874893 333.571564,90.026787 334.352325,89.172432 
	C334.531494,89.929092 334.710663,90.685753 334.401001,92.104774 
M265.262146,95.995331 
	C266.565247,95.496735 267.868347,94.998138 268.017395,94.941101 
	C267.424225,92.535278 266.710510,90.049446 266.817108,90.013756 
	C270.505798,88.778748 270.055725,87.698997 267.829742,84.766487 
	C265.870544,82.185425 264.461487,82.650452 263.120300,84.132500 
	C259.929108,87.658897 262.170349,91.764160 262.599304,95.634529 
	C262.619629,95.818184 263.774109,95.876137 265.262146,95.995331 
M133.734558,82.146339 
	C132.742203,86.592422 131.749847,91.038506 130.687012,95.800400 
	C132.428574,95.800400 134.161102,95.954521 134.195526,95.777870 
	C135.063736,91.320686 135.755356,86.829002 136.397125,82.331833 
	C136.399231,82.317146 135.223328,82.134354 133.734558,82.146339 
M231.707916,86.023186 
	C230.562393,89.074234 229.416855,92.125275 228.298477,95.104019 
	C234.225372,97.708038 232.352478,92.699348 233.905090,91.352142 
	C235.574295,89.903786 237.043839,88.225304 239.234421,86.004593 
	C236.229904,86.004593 234.404770,86.004593 231.707916,86.023186 
M238.077866,96.656044 
	C238.742447,95.290421 239.407043,93.924805 240.187576,92.320946 
	C234.066818,91.131088 235.047897,95.546371 233.432541,99.794785 
	C235.739380,98.581314 236.837448,98.003700 238.077866,96.656044 
z"/>
<path fill="#12ACB9" opacity="1.000000" stroke="none" 
	d="
M339.428467,101.000000 
	C339.913483,99.163002 340.826996,97.326004 342.203735,94.557388 
	C341.874573,92.668900 341.332458,89.558517 340.790314,86.448128 
	C341.322052,86.148888 341.853760,85.849640 342.385498,85.550400 
	C343.537292,86.995743 344.689087,88.441086 345.719757,89.734428 
	C349.082825,85.037758 353.742157,84.320045 357.138519,88.159035 
	C358.401184,87.432449 359.598480,86.743484 360.795776,86.054520 
	C361.373810,87.082161 361.951843,88.109802 362.266510,88.669174 
	C363.983398,87.643578 365.914246,86.490181 367.845123,85.336777 
	C368.200989,85.746735 368.556854,86.156700 368.912750,86.566658 
	C365.671600,89.053703 367.912323,95.036827 362.358856,95.864166 
	C361.434082,96.001923 360.257019,94.446037 359.221985,93.691330 
	C358.064026,94.377129 356.129608,95.522766 353.273285,97.214401 
	C353.101013,93.286911 352.987732,90.704239 352.818237,86.840309 
	C349.623810,91.982521 346.978912,96.240105 344.666992,100.748848 
	C343.285645,101.000000 341.571289,101.000000 339.428467,101.000000 
z"/>
<path fill="#13ACB9" opacity="1.000000" stroke="none" 
	d="
M104.416672,101.000000 
	C104.684364,97.029739 105.180992,93.015434 106.099625,89.100136 
	C107.304024,83.966820 111.623848,86.193672 114.593056,86.281250 
	C115.657532,86.312637 117.691292,89.374176 117.443985,90.713120 
	C116.883598,93.747047 115.807678,97.253754 111.342285,96.704514 
	C110.750412,96.631714 110.194908,96.263252 109.556488,96.004990 
	C109.107964,97.618980 108.726822,98.990517 108.672836,100.681030 
	C107.611107,101.000000 106.222221,101.000000 104.416672,101.000000 
z"/>
<path fill="#13ACB9" opacity="1.000000" stroke="none" 
	d="
M117.399994,101.000000 
	C117.659195,97.825333 118.366730,94.659767 118.966377,91.473892 
	C119.888870,86.572754 124.102135,83.876549 128.117279,86.376297 
	C129.529755,87.255676 130.294876,90.878746 129.756271,92.800911 
	C128.881378,95.923248 126.434692,98.140434 122.651543,96.457596 
	C121.886543,97.787224 121.102531,99.149887 120.659256,100.756271 
	C119.933327,101.000000 118.866661,101.000000 117.399994,101.000000 
z"/>
<path fill="#13ADB9" opacity="1.000000" stroke="none" 
	d="
M295.416656,101.000000 
	C295.584473,99.370392 296.168976,97.740791 296.753479,96.111191 
	C297.159485,96.179718 297.565521,96.248245 297.971527,96.316772 
	C297.258423,93.081993 296.545319,89.847206 295.832214,86.612427 
	C296.300354,86.268959 296.768524,85.925491 297.236664,85.582016 
	C298.572693,86.864044 299.908722,88.146072 300.979980,89.174026 
	C302.606750,88.055603 304.682709,86.628372 306.758667,85.201141 
	C307.175873,85.656723 307.593079,86.112297 308.010315,86.567879 
	C305.113098,91.220497 302.215912,95.873108 299.659363,100.762863 
	C298.611115,101.000000 297.222198,101.000000 295.416656,101.000000 
z"/>
<path fill="#13ADB9" opacity="1.000000" stroke="none" 
	d="
M136.428467,101.000000 
	C137.067474,99.243973 138.134933,97.487946 139.646561,95.001282 
	C137.568329,86.390472 137.568329,86.390472 141.802185,86.342232 
	C141.928772,87.699318 142.057922,89.083931 142.176071,90.350563 
	C144.305786,88.579330 146.370895,86.861832 148.435989,85.144333 
	C148.910187,85.598419 149.384369,86.052498 149.858566,86.506577 
	C147.012909,91.175873 144.167252,95.845161 141.660797,100.757233 
	C140.285645,101.000000 138.571289,101.000000 136.428467,101.000000 
z"/>
<path fill="#17AAB7" opacity="1.000000" stroke="none" 
	d="
M289.782898,45.930332 
	C289.506042,51.170887 289.359985,56.424095 288.854950,61.642567 
	C288.737518,62.856163 287.650940,64.338638 286.579773,65.038628 
	C279.437347,69.706123 271.637665,72.913795 263.351929,74.949890 
	C262.098877,75.257812 260.750061,75.452797 259.651581,76.067970 
	C252.419724,80.117958 245.431870,78.949661 238.041672,76.087402 
	C229.811600,72.899857 221.224869,70.633202 212.365784,67.531494 
	C210.955292,63.225349 209.236603,59.374542 209.124634,55.477562 
	C208.758057,42.720387 208.833817,29.943827 209.065475,17.180637 
	C209.126419,13.823440 210.365295,10.487622 211.063263,7.141985 
	C211.653793,7.406476 212.245834,7.904560 212.834686,7.900820 
	C223.651520,7.832114 233.807571,11.101470 244.068771,13.906920 
	C245.608810,14.327977 247.356766,13.988637 249.898621,13.997526 
	C257.184326,13.167639 263.593384,12.431886 269.971069,11.484904 
	C274.680084,10.785693 279.348175,9.811031 284.412170,9.000536 
	C286.161469,10.788908 288.214539,12.355225 288.737213,14.327191 
	C289.435150,16.960154 288.888123,19.909847 288.975739,22.720394 
	C289.216949,30.457909 289.510223,38.193798 289.782898,45.930332 
M257.231384,27.720942 
	C257.231384,27.720942 257.143585,27.461597 257.360565,26.726204 
	C256.610626,25.894320 255.932739,24.422558 255.099731,24.328804 
	C246.042114,23.309332 241.600616,26.868729 240.051575,36.002499 
	C240.051575,36.002499 240.109314,36.079742 239.376114,36.097363 
	C234.141220,38.507896 229.186356,47.243851 230.102219,52.819008 
	C230.285980,53.937565 231.378067,54.906902 232.888611,56.006443 
	C235.652618,55.715508 238.421234,55.142933 241.179749,55.188038 
	C248.568176,55.308861 249.548370,53.248722 250.396530,63.325680 
	C253.002335,62.781658 255.518799,62.256290 258.042999,61.729305 
	C256.717621,55.694649 256.861481,55.533714 263.597961,54.702251 
	C263.597961,52.847099 263.597961,50.991150 263.597961,49.160530 
	C261.584473,49.019890 259.974304,48.907425 258.370789,48.795422 
	C258.207367,48.015099 258.021484,47.542213 258.022491,47.069725 
	C258.035278,41.080528 258.074982,35.091385 258.294891,28.747025 
	C258.024048,28.441500 257.753174,28.135975 257.231384,27.720942 
z"/>
<path fill="#F77010" opacity="1.000000" stroke="none" 
	d="
M415.238434,25.999477 
	C421.633698,26.317858 427.597382,26.284138 433.454193,27.058409 
	C441.639648,28.140526 447.807098,34.459480 448.009094,41.185257 
	C448.371002,53.235657 444.290924,59.616104 434.626740,62.050842 
	C433.180573,62.415188 431.701385,62.852417 430.230652,62.878868 
	C424.763519,62.977200 419.293549,62.918095 413.175873,62.918095 
	C413.175873,54.222450 413.187744,45.788048 413.169250,37.353714 
	C413.163055,34.524170 412.928955,31.684944 413.112976,28.870676 
	C413.177490,27.884752 414.183228,26.960375 415.238434,25.999477 
M432.219452,34.918831 
	C429.257904,34.530239 426.296387,34.141647 423.793274,33.813210 
	C423.793274,41.780884 423.793274,48.795704 423.793274,55.788063 
	C431.236420,55.741123 436.635101,53.519268 437.915405,46.089863 
	C438.695526,41.562832 437.463074,37.521713 432.219452,34.918831 
z"/>
<path fill="#F77010" opacity="1.000000" stroke="none" 
	d="
M382.867126,33.081173 
	C382.877167,38.732513 382.710968,43.901291 382.961884,49.049740 
	C383.119629,52.286533 383.596741,55.600300 388.063049,56.018761 
	C392.400330,56.425129 394.075256,54.288605 394.244934,50.315685 
	C394.483856,44.722450 394.787659,39.131847 395.001587,33.537746 
	C395.089661,31.235195 395.016174,28.926468 395.016174,26.305859 
	C398.341125,26.305859 401.396149,26.305859 404.670959,26.305859 
	C404.670959,34.618469 405.251495,42.934109 404.516937,51.131908 
	C403.688263,60.380260 397.262146,64.591080 387.035706,63.845020 
	C377.737946,63.166718 373.175323,58.437607 373.045685,49.105598 
	C372.941864,41.633438 373.024689,34.158688 373.024689,26.337631 
	C376.279785,26.337631 379.335419,26.337631 382.867279,26.337631 
	C382.867279,28.388908 382.867279,30.489460 382.867126,33.081173 
z"/>
<path fill="#FB7211" opacity="1.000000" stroke="none" 
	d="
M22.710304,45.650970 
	C25.108768,38.903755 27.297443,32.500885 29.451683,26.198757 
	C42.185463,25.511190 42.105839,25.537874 45.999283,37.155704 
	C48.827366,45.594570 51.901302,53.951046 55.098064,63.002415 
	C52.539017,63.002415 50.219921,63.337643 48.067036,62.884022 
	C46.642559,62.583881 44.616440,61.361320 44.323898,60.186966 
	C43.500916,56.883289 41.726028,55.974846 38.600357,56.260689 
	C36.121578,56.487377 33.595989,56.182693 31.111446,56.375290 
	C30.095623,56.454033 28.356720,57.100346 28.264267,57.693729 
	C27.095480,65.195107 21.697714,62.791565 16.570755,62.786976 
	C18.637365,56.934834 20.568941,51.465073 22.710304,45.650970 
M33.912510,40.466446 
	C33.018341,43.189938 32.124176,45.913425 31.198494,48.732918 
	C34.436199,48.732918 37.160572,48.732918 40.402218,48.732918 
	C38.869156,44.296463 37.482109,40.282562 35.786312,35.375191 
	C34.923450,37.594803 34.507076,38.665878 33.912510,40.466446 
z"/>
<path fill="#F87110" opacity="1.000000" stroke="none" 
	d="
M321.740540,41.024284 
	C329.813171,44.107986 331.738312,46.846836 330.882782,53.480396 
	C330.099304,59.554932 326.060242,63.135693 318.702820,63.708485 
	C315.766876,63.937046 312.737122,63.512901 309.799500,63.063202 
	C301.584412,61.805614 301.496368,61.609604 302.302185,53.737827 
	C306.540192,54.485840 310.783813,55.626282 315.070160,55.819740 
	C317.093781,55.911072 320.552124,54.612656 320.996674,53.200073 
	C322.040985,49.881550 318.578278,49.641724 316.273956,48.922794 
	C314.216766,48.280960 312.135651,47.709156 310.100861,47.003300 
	C303.328705,44.654079 300.927338,40.647076 302.008148,33.610874 
	C302.717651,28.991611 307.268066,25.931278 313.647430,26.016859 
	C318.672607,26.084272 323.694611,26.386099 328.682251,26.582399 
	C328.682251,29.971540 328.682251,32.407696 328.682251,34.849506 
	C324.320923,34.187416 320.273315,33.217041 316.205414,33.122776 
	C314.469971,33.082558 312.692169,34.871788 310.933594,35.829685 
	C312.342651,37.086727 313.572876,38.715294 315.208099,39.502453 
	C317.061096,40.394417 319.277130,40.532284 321.740540,41.024284 
z"/>
<path fill="#F87011" opacity="1.000000" stroke="none" 
	d="
M60.282970,62.894012 
	C59.573109,58.567638 59.170364,54.329041 59.106884,50.085369 
	C58.990314,42.292984 59.073643,34.497608 59.073643,26.154322 
	C66.263741,26.154322 73.381844,25.620174 80.369354,26.345005 
	C84.910889,26.816107 88.358429,30.141397 88.958664,35.123035 
	C89.756012,41.740601 87.361305,46.904087 82.145172,48.647919 
	C78.134140,49.988865 73.757935,50.237530 69.000198,51.066715 
	C69.000198,54.587219 69.000198,58.479477 69.000198,62.979504 
	C65.934807,62.979504 63.338951,62.979504 60.282970,62.894012 
M72.263130,42.993793 
	C76.709824,42.668026 79.786491,40.070480 78.926170,36.983227 
	C77.394859,31.488131 73.044746,33.008244 68.894493,33.127197 
	C68.894493,35.934746 68.692101,38.422981 69.008507,40.843407 
	C69.113770,41.648632 70.549759,42.279907 72.263130,42.993793 
z"/>
<path fill="#F87011" opacity="1.000000" stroke="none" 
	d="
M122.854477,30.352509 
	C129.308472,41.815781 123.409187,48.550735 105.045197,50.758423 
	C105.045197,54.567917 105.045197,58.461308 105.045197,62.678001 
	C101.638313,62.678001 98.725830,62.678001 95.408066,62.678001 
	C95.408066,50.732613 95.408066,38.683456 95.408066,26.068272 
	C102.195862,26.068272 109.138481,25.745016 116.020042,26.251425 
	C118.291801,26.418604 120.405960,28.727329 122.854477,30.352509 
M108.311066,32.913792 
	C100.582382,34.255680 107.279900,39.701439 104.487694,42.596172 
	C109.648552,43.467346 113.842232,43.391842 114.884911,38.451729 
	C115.683258,34.669228 112.995399,32.828674 108.311066,32.913792 
z"/>
<path fill="#F36E10" opacity="1.000000" stroke="none" 
	d="
M347.010742,25.981462 
	C354.467651,25.981462 361.426056,25.981462 368.980286,25.981462 
	C368.862518,28.663403 368.758942,31.022835 368.632080,33.912262 
	C364.379089,33.912262 360.473694,33.912262 356.502777,33.912262 
	C356.502777,43.814175 356.502777,53.179653 356.502777,62.778603 
	C353.123627,62.778603 350.018066,62.778603 346.545532,62.778603 
	C346.545532,53.384357 346.545532,43.996311 346.545532,33.994003 
	C342.453766,33.994003 338.567169,33.994003 334.370392,33.994003 
	C334.210693,31.139833 334.084198,28.879105 333.922089,25.981462 
	C338.314545,25.981462 342.413391,25.981462 347.010742,25.981462 
z"/>
<path fill="#F87110" opacity="1.000000" stroke="none" 
	d="
M468.717590,62.899887 
	C465.771362,62.979942 463.286530,62.979942 459.693665,62.979942 
	C463.545715,47.688808 454.005859,37.659138 445.966919,27.007025 
	C454.707092,23.817921 458.079407,25.801722 464.874481,38.416740 
	C466.131500,36.527473 467.330383,34.942894 468.301239,33.229149 
	C472.779663,25.324087 473.738190,24.883142 483.995422,26.570822 
	C480.650574,31.539398 477.561096,36.560230 474.028625,41.247208 
	C470.873016,45.434219 469.396118,49.830421 469.858002,55.087238 
	C470.081024,57.625286 469.432709,60.239895 468.717590,62.899887 
z"/>
<path fill="#F97110" opacity="1.000000" stroke="none" 
	d="
M179.844666,36.868500 
	C173.056686,44.454479 171.856140,53.245834 173.259827,62.785759 
	C169.615082,62.785759 166.702545,62.785759 162.722260,62.785759 
	C166.751266,47.832104 157.896683,37.610748 150.251968,25.515047 
	C154.127243,26.198555 158.752899,25.812946 161.670593,27.860781 
	C164.698715,29.986128 166.073639,34.466934 168.383087,38.265533 
	C172.485535,30.896400 175.502182,22.517269 186.568802,26.673027 
	C184.477295,29.826588 182.247833,33.188137 179.844666,36.868500 
z"/>
<path fill="#F77010" opacity="1.000000" stroke="none" 
	d="
M133.176804,26.001846 
	C135.935959,25.992897 138.224884,25.992897 140.945374,25.992897 
	C140.945374,35.770103 140.945374,45.145599 140.945374,54.984825 
	C146.443344,54.984825 151.516556,54.984825 156.786743,54.984825 
	C156.786743,57.728027 156.786743,60.000210 156.786743,62.642326 
	C148.434647,62.642326 140.070282,62.642326 131.052734,62.642326 
	C131.052734,50.884617 131.033539,39.148647 131.122635,27.413500 
	C131.126221,26.941950 132.155289,26.478186 133.176804,26.001846 
z"/>
<path fill="#13ACB9" opacity="1.000000" stroke="none" 
	d="
M214.011719,93.009857 
	C214.442383,96.137306 214.442383,96.137306 209.238312,95.631783 
	C209.091721,93.598495 208.940979,91.507561 208.787415,89.377647 
	C205.934433,88.567879 204.404419,89.121429 203.774109,92.274254 
	C203.462357,93.833603 201.708221,95.104591 200.606705,96.506058 
	C200.086899,96.193672 199.567078,95.881294 199.047272,95.568909 
	C199.388824,93.047516 199.678207,90.517128 200.110825,88.011459 
	C200.211258,87.429756 200.750565,86.510956 201.171677,86.461586 
	C205.226379,85.986206 209.486862,86.317963 212.753235,83.067444 
	C212.802414,83.018517 213.900940,83.778046 214.253738,84.325310 
	C215.421616,86.137009 216.143768,87.861855 219.142212,86.573631 
	C224.947189,84.079620 228.060715,86.058983 227.649780,91.820587 
	C225.692978,91.930405 223.680069,92.043373 221.490952,92.166229 
	C221.818985,92.845695 221.917145,93.327675 222.084946,93.353271 
	C223.684052,93.597176 225.294937,93.763756 226.902451,93.952545 
	C226.739105,94.545792 226.641052,95.625305 226.402390,95.657341 
	C223.920883,95.990501 221.025101,97.011276 219.039490,96.102951 
	C217.370361,95.339409 216.753601,92.275322 214.973373,88.911621 
	C213.382324,88.438782 212.062500,89.276268 214.011719,93.009857 
z"/>
<path fill="#13ADB9" opacity="1.000000" stroke="none" 
	d="
M408.260468,86.002029 
	C412.882080,85.428070 414.334045,87.467499 413.831787,91.802284 
	C411.445770,91.915230 409.055023,92.028397 406.664276,92.141563 
	C406.658051,92.503014 406.651855,92.864456 406.645630,93.225899 
	C407.583984,93.225899 408.535706,93.126839 409.457367,93.250893 
	C410.617706,93.407082 411.753479,93.745628 412.899872,94.005493 
	C412.097534,94.733643 411.416077,95.777008 410.473145,96.138565 
	C404.545227,98.411682 401.397186,95.745132 401.500885,88.577530 
	C400.333069,90.054832 399.224945,91.584869 397.979706,92.993767 
	C396.860748,94.259857 395.591278,95.392883 394.388184,96.584610 
	C393.994720,96.261993 393.601257,95.939377 393.207794,95.616768 
	C393.474182,94.110283 393.685883,92.591461 394.022095,91.100716 
	C394.376404,89.529533 394.849640,87.985168 395.298096,86.328903 
	C399.464508,85.049461 403.724609,87.596870 408.260468,86.002029 
z"/>
<path fill="#13ACB9" opacity="1.000000" stroke="none" 
	d="
M169.938644,95.975571 
	C166.323242,93.221581 169.747574,90.535851 169.808640,87.824203 
	C169.822952,87.188477 172.235657,86.223511 173.613510,86.083183 
	C176.309341,85.808609 179.055740,86.078354 181.776947,85.990845 
	C184.214722,85.912453 186.650177,86.382294 185.842422,89.322304 
	C185.192444,91.688080 186.817596,96.369064 180.934937,95.814774 
	C181.181259,93.485352 181.393814,91.475143 181.606384,89.464928 
	C181.266586,89.331268 180.926773,89.197617 180.586975,89.063957 
	C179.843109,91.160828 179.099258,93.257698 178.224823,95.722656 
	C177.275543,95.722656 175.860062,95.722656 174.281799,95.722656 
	C174.556091,93.655533 174.821671,91.654091 175.248825,88.435028 
	C173.157333,91.653984 171.752411,93.816292 169.938644,95.975571 
z"/>
<path fill="#1C959D" opacity="1.000000" stroke="none" 
	d="
M210.694336,7.070727 
	C210.365295,10.487622 209.126419,13.823440 209.065475,17.180637 
	C208.833817,29.943827 208.758057,42.720387 209.124634,55.477562 
	C209.236603,59.374542 210.955292,63.225349 211.994858,67.455566 
	C210.141342,66.438324 208.231140,65.062828 206.471283,62.993576 
	C206.745956,44.830662 206.870316,27.361492 206.994659,9.892326 
	C208.104904,8.928041 209.215164,7.963755 210.694336,7.070727 
z"/>
<path fill="#13ACB9" opacity="1.000000" stroke="none" 
	d="
M290.110718,96.004517 
	C287.585449,95.873726 285.072388,96.372627 283.510284,95.378014 
	C282.450012,94.702934 281.818176,91.229156 282.584991,90.240921 
	C284.326508,87.996559 287.049286,86.513626 289.682617,85.146500 
	C291.312775,83.867058 292.942932,82.587608 294.573090,81.308167 
	C294.874878,81.653305 295.176666,81.998436 295.478455,82.343575 
	C294.981689,85.630981 294.767456,88.998955 293.862976,92.170082 
	C293.442810,93.643318 291.681366,94.734001 290.110718,96.004517 
z"/>
<path fill="#13ACB9" opacity="1.000000" stroke="none" 
	d="
M166.687531,83.398941 
	C165.018066,84.868347 163.135681,85.977562 161.580215,86.894127 
	C163.485336,87.962807 167.599030,88.434113 166.043320,93.288521 
	C164.769836,97.262283 161.555588,97.391876 158.509613,96.810547 
	C157.005951,96.523575 155.811951,94.613976 154.477829,93.438583 
	C154.805618,93.099586 155.133408,92.760590 155.461182,92.421593 
	C157.555450,92.592209 159.649704,92.762817 161.743973,92.933434 
	C159.236145,90.584579 154.787827,90.336372 156.266006,85.554489 
	C157.204544,82.518372 162.251968,81.416489 166.687531,83.398941 
z"/>
<path fill="#13ACB9" opacity="1.000000" stroke="none" 
	d="
M248.949646,92.154358 
	C251.043762,92.491211 252.736023,92.859428 255.613525,93.485542 
	C252.695374,90.320587 247.020096,90.025635 249.534088,85.526909 
	C250.624542,83.575600 254.345581,82.838028 257.026581,82.176399 
	C257.917236,81.956589 259.290985,83.694290 260.443909,84.537064 
	C260.213684,84.940857 259.983490,85.344643 259.753296,85.748436 
	C257.812897,85.887840 255.872543,86.027252 252.943024,86.237724 
	C257.639465,87.697151 260.885437,90.159470 258.500336,94.245201 
	C257.461060,96.025505 253.467575,96.677246 250.797424,96.720840 
	C248.663742,96.755676 246.980270,94.866150 248.949646,92.154358 
z"/>
<path fill="#13ACB8" opacity="1.000000" stroke="none" 
	d="
M319.957245,94.012390 
	C317.022919,94.800819 314.496185,95.595901 311.969452,96.390991 
	C311.729218,96.033897 311.488983,95.676796 311.248749,95.319702 
	C315.751709,91.724342 314.323578,82.649498 323.466583,82.920052 
	C324.331207,87.138451 325.134613,91.058311 326.238098,96.442108 
	C323.757629,95.418770 322.061249,94.718910 319.957245,94.012390 
z"/>
<path fill="#13ADB9" opacity="1.000000" stroke="none" 
	d="
M102.005219,85.923424 
	C102.615074,89.363518 103.216743,92.367241 103.745087,95.004913 
	C99.102623,95.004913 94.422531,95.004913 89.743385,95.004913 
	C91.491127,91.986076 93.494156,88.214737 95.846016,84.675171 
	C96.461479,83.748901 98.204475,83.055023 99.348717,83.157562 
	C100.293488,83.242233 101.118782,84.660004 102.005219,85.923424 
z"/>
<path fill="#13ACB9" opacity="1.000000" stroke="none" 
	d="
M370.228271,84.516235 
	C371.659851,83.463646 372.931122,82.796143 374.202423,82.128647 
	C374.437622,83.285446 374.672821,84.442238 374.959290,85.851082 
	C376.091797,85.923393 377.734192,86.028267 379.370392,86.132744 
	C380.918060,93.557983 379.997955,95.735588 375.114746,95.551315 
	C375.413177,93.454102 375.708923,91.375916 376.004669,89.297729 
	C375.533569,89.170082 375.062500,89.042427 374.591400,88.914780 
	C374.039856,90.591499 373.803406,92.486191 372.840485,93.878349 
	C372.019104,95.065842 370.362579,95.675667 368.071167,97.216293 
	C368.904663,92.075890 369.486328,88.488609 370.228271,84.516235 
z"/>
<path fill="#13ACB9" opacity="1.000000" stroke="none" 
	d="
M186.850922,94.551476 
	C188.688232,91.497444 186.411087,85.887131 192.527863,85.969040 
	C197.798615,86.039619 199.075623,87.479073 197.746384,92.511787 
	C197.463303,93.583641 196.932617,94.590103 196.355865,96.025154 
	C193.436691,94.020950 189.801498,99.783974 186.850922,94.551476 
z"/>
<path fill="#13ACB9" opacity="1.000000" stroke="none" 
	d="
M390.897705,91.986664 
	C388.873901,91.995277 387.271210,91.995277 385.668518,91.995277 
	C385.659485,92.404915 385.650482,92.814560 385.641449,93.224197 
	C386.583313,93.224197 387.538635,93.124481 388.463623,93.249413 
	C389.621674,93.405823 390.754761,93.746765 391.898621,94.008057 
	C391.089966,94.737473 390.245239,96.120628 389.479156,96.078346 
	C386.773621,95.929024 384.095062,95.291557 381.406250,94.839188 
	C381.926483,92.404610 381.659241,88.913414 383.160187,87.794838 
	C385.172821,86.294930 388.706818,85.915535 391.284027,86.468956 
	C392.643433,86.760872 394.802643,90.061249 390.897705,91.986664 
z"/>
<path fill="#13ADB9" opacity="1.000000" stroke="none" 
	d="
M274.564178,96.200394 
	C270.717194,97.395248 269.859924,95.609016 269.993774,92.598518 
	C270.209076,87.753563 271.278687,86.300514 275.044220,86.514359 
	C274.827118,88.543411 274.612244,90.551788 274.397400,92.560158 
	C274.788269,92.697212 275.179169,92.834259 275.570068,92.971313 
	C276.148010,91.391907 276.429047,89.591286 277.391998,88.298714 
	C278.260864,87.132477 279.875977,86.522209 281.601746,86.254494 
	C280.082092,90.224792 283.377747,97.455475 274.564178,96.200394 
z"/>
<path fill="#13ADB9" opacity="1.000000" stroke="none" 
	d="
M334.645386,91.773598 
	C334.710663,90.685753 334.531494,89.929092 334.352356,89.172424 
	C333.571564,90.026787 332.133453,90.874893 332.125275,91.736595 
	C332.092133,95.221909 330.863434,96.677094 327.333527,95.639832 
	C328.141418,85.446594 328.141418,85.446594 339.109344,86.336151 
	C338.830383,88.664864 338.780334,91.065094 338.168182,93.312195 
	C337.884674,94.352913 336.505951,95.095284 335.623779,95.972916 
	C335.216187,94.683533 334.808594,93.394157 334.645386,91.773598 
z"/>
<path fill="#13ADBA" opacity="1.000000" stroke="none" 
	d="
M264.831299,95.993980 
	C263.774109,95.876137 262.619629,95.818184 262.599304,95.634529 
	C262.170349,91.764160 259.929108,87.658897 263.120300,84.132500 
	C264.461487,82.650452 265.870544,82.185425 267.829742,84.766487 
	C270.055725,87.698997 270.505798,88.778748 266.817108,90.013756 
	C266.710510,90.049446 267.424225,92.535278 268.017395,94.941101 
	C267.868347,94.998138 266.565247,95.496735 264.831299,95.993980 
z"/>
<path fill="#25979B" opacity="1.000000" stroke="none" 
	d="
M284.034515,8.959097 
	C279.348175,9.811031 274.680084,10.785693 269.971069,11.484904 
	C263.593384,12.431886 257.184326,13.167639 250.324753,13.975216 
	C259.246429,11.970870 268.632385,9.986739 278.017365,7.998240 
	C279.427917,7.699371 280.834137,7.380115 282.723450,7.371072 
	C283.481201,8.100933 283.757874,8.530015 284.034515,8.959097 
z"/>
<path fill="#13ACB9" opacity="1.000000" stroke="none" 
	d="
M134.166077,82.088203 
	C135.223328,82.134354 136.399231,82.317146 136.397125,82.331833 
	C135.755356,86.829002 135.063736,91.320686 134.195526,95.777870 
	C134.161102,95.954521 132.428574,95.800400 130.687012,95.800400 
	C131.749847,91.038506 132.742203,86.592422 134.166077,82.088203 
z"/>
<path fill="#13ACB9" opacity="1.000000" stroke="none" 
	d="
M232.143784,86.013885 
	C234.404770,86.004593 236.229904,86.004593 239.234421,86.004593 
	C237.043839,88.225304 235.574295,89.903786 233.905090,91.352142 
	C232.352478,92.699348 234.225372,97.708038 228.298477,95.104019 
	C229.416855,92.125275 230.562393,89.074234 232.143784,86.013885 
z"/>
<path fill="#6AC3C4" opacity="1.000000" stroke="none" 
	d="
M206.602234,10.101263 
	C206.870316,27.361492 206.745956,44.830662 206.406738,62.655853 
	C206.197830,45.444653 206.203812,27.877426 206.602234,10.101263 
z"/>
<path fill="#45ABAF" opacity="1.000000" stroke="none" 
	d="
M284.412170,9.000536 
	C283.757874,8.530015 283.481201,8.100933 283.141022,7.421628 
	C285.267578,7.456291 287.457703,7.741179 289.930847,8.062887 
	C289.930847,20.637159 289.930847,32.826603 289.856873,45.473190 
	C289.510223,38.193798 289.216949,30.457909 288.975739,22.720394 
	C288.888123,19.909847 289.435150,16.960154 288.737213,14.327191 
	C288.214539,12.355225 286.161469,10.788908 284.412170,9.000536 
z"/>
<path fill="#12ACBB" opacity="1.000000" stroke="none" 
	d="
M238.006683,97.041061 
	C236.837448,98.003700 235.739380,98.581314 233.432541,99.794785 
	C235.047897,95.546371 234.066818,91.131088 240.187576,92.320946 
	C239.407043,93.924805 238.742447,95.290421 238.006683,97.041061 
z"/>
<path fill="#000000" opacity="1.000000" stroke="none" 
	d="
M258.107788,29.102230 
	C258.074982,35.091385 258.035278,41.080528 258.022491,47.069725 
	C258.021484,47.542213 258.207367,48.015099 258.370789,48.795422 
	C259.974304,48.907425 261.584473,49.019890 263.597961,49.160530 
	C263.597961,50.991150 263.597961,52.847099 263.597961,54.702251 
	C256.861481,55.533714 256.717621,55.694649 258.042999,61.729305 
	C255.518799,62.256290 253.002335,62.781658 250.396530,63.325680 
	C249.548370,53.248722 248.568176,55.308861 241.179749,55.188038 
	C238.421234,55.142933 235.652618,55.715508 232.446075,55.545345 
	C231.407394,51.186970 232.423859,47.910751 234.976379,44.769730 
	C237.074600,42.187767 238.426590,38.999363 240.109314,36.079742 
	C240.109314,36.079742 240.051575,36.002499 240.386520,35.918564 
	C241.401703,35.108498 242.312637,34.493790 242.725739,33.638607 
	C246.075943,26.703423 246.179138,26.145174 257.143585,27.461597 
	C257.143585,27.461597 257.231384,27.720942 257.476654,27.980194 
	C257.858032,28.523685 257.986664,28.811279 258.107788,29.102230 
M244.851471,49.989830 
	C246.450577,49.989830 248.049667,49.989830 249.628418,49.989830 
	C249.628418,45.365726 249.628418,41.310936 249.628418,37.440193 
	C243.988586,35.719353 243.647751,39.430607 242.850891,43.648960 
	C240.156403,46.268879 239.760117,48.474117 244.851471,49.989830 
z"/>
<path fill="#319B9D" opacity="1.000000" stroke="none" 
	d="
M239.742706,36.088554 
	C238.426590,38.999363 237.074600,42.187767 234.976379,44.769730 
	C232.423859,47.910751 231.407394,51.186970 232.027435,55.514648 
	C231.378067,54.906902 230.285980,53.937565 230.102219,52.819008 
	C229.186356,47.243851 234.141220,38.507896 239.742706,36.088554 
z"/>
<path fill="#319B9D" opacity="1.000000" stroke="none" 
	d="
M257.252075,27.093901 
	C246.179138,26.145174 246.075943,26.703423 242.725739,33.638607 
	C242.312637,34.493790 241.401703,35.108498 240.400955,35.964478 
	C241.600616,26.868729 246.042114,23.309332 255.099731,24.328804 
	C255.932739,24.422558 256.610626,25.894320 257.252075,27.093901 
z"/>
<path fill="#319B9D" opacity="1.000000" stroke="none" 
	d="
M258.201355,28.924627 
	C257.986664,28.811279 257.858032,28.523685 257.602112,28.034950 
	C257.753174,28.135975 258.024048,28.441500 258.201355,28.924627 
z"/>
<path fill="#020100" opacity="1.000000" stroke="none" 
	d="
M432.604980,35.035835 
	C437.463074,37.521713 438.695526,41.562832 437.915405,46.089863 
	C436.635101,53.519268 431.236420,55.741123 423.793274,55.788063 
	C423.793274,48.795704 423.793274,41.780884 423.793274,33.813210 
	C426.296387,34.141647 429.257904,34.530239 432.604980,35.035835 
z"/>
<path fill="#0A0501" opacity="1.000000" stroke="none" 
	d="
M34.001606,40.101700 
	C34.507076,38.665878 34.923450,37.594803 35.786312,35.375191 
	C37.482109,40.282562 38.869156,44.296463 40.402218,48.732918 
	C37.160572,48.732918 34.436199,48.732918 31.198494,48.732918 
	C32.124176,45.913425 33.018341,43.189938 34.001606,40.101700 
z"/>
<path fill="#030100" opacity="1.000000" stroke="none" 
	d="
M71.820267,42.992249 
	C70.549759,42.279907 69.113770,41.648632 69.008507,40.843407 
	C68.692101,38.422981 68.894493,35.934746 68.894493,33.127197 
	C73.044746,33.008244 77.394859,31.488131 78.926170,36.983227 
	C79.786491,40.070480 76.709824,42.668026 71.820267,42.992249 
z"/>
<path fill="#020100" opacity="1.000000" stroke="none" 
	d="
M108.753471,32.915565 
	C112.995399,32.828674 115.683258,34.669228 114.884911,38.451729 
	C113.842232,43.391842 109.648552,43.467346 104.487694,42.596172 
	C107.279900,39.701439 100.582382,34.255680 108.753471,32.915565 
z"/>
<path fill="#28989E" opacity="1.000000" stroke="none" 
	d="
M243.166733,42.992630 
	C243.647751,39.430607 243.988586,35.719353 249.628418,37.440193 
	C249.628418,41.310936 249.628418,45.365726 249.628418,49.989830 
	C248.049667,49.989830 246.450577,49.989830 244.585297,49.625725 
	C247.132950,47.473347 249.432526,45.505070 246.991058,41.616047 
	C245.621216,42.109127 244.393982,42.550877 243.166733,42.992630 
z"/>
<path fill="#1DA8B7" opacity="1.000000" stroke="none" 
	d="
M243.008820,43.320793 
	C244.393982,42.550877 245.621216,42.109127 246.991058,41.616047 
	C249.432526,45.505070 247.132950,47.473347 244.144287,49.554977 
	C239.760117,48.474117 240.156403,46.268879 243.008820,43.320793 
z"/>
</svg>