<?xml version="1.0" encoding="UTF-8"?>
<svg version="1.1" xmlns="http://www.w3.org/2000/svg" width="500" height="100">
<path d="M0 0 C8.10081959 0.44823448 15.37660579 1.65042787 23.1953125 3.83984375 C31.52490172 6.10115731 37.55971185 6.30708403 46.0078125 4.15234375 C49.37609312 3.41086703 52.75347255 2.716447 56.1328125 2.02734375 C56.99430908 1.84864746 57.85580566 1.66995117 58.7434082 1.48583984 C64.80775428 0.27075715 70.81587916 -0.66697932 77.0078125 0.15234375 C78.63650932 1.78104057 78.14340123 3.60427088 78.15307617 5.85229492 C78.15945602 6.85391159 78.16583588 7.85552826 78.17240906 8.88749695 C78.17352188 9.97907608 78.1746347 11.07065521 78.17578125 12.1953125 C78.18077385 13.86984245 78.18077385 13.86984245 78.18586731 15.57820129 C78.19094312 17.94804471 78.19327544 20.3178953 78.19311523 22.68774414 C78.19529269 26.30692455 78.21341671 29.92579584 78.23242188 33.54492188 C78.23535749 35.84505104 78.23734116 38.14518165 78.23828125 40.4453125 C78.24546677 41.52677048 78.25265228 42.60822845 78.26005554 43.72245789 C78.24443117 48.88911352 78.20921834 53.36513616 76.0078125 58.15234375 C68.99294689 65.05301388 57.04240687 67.50484616 47.91210938 70.49145508 C45.95622032 71.12429 45.95622032 71.12429 44.0078125 72.15234375 C34.7146581 73.68667318 26.8520606 70.76877927 18.21948242 67.64257812 C17.34525635 67.32611328 16.47103027 67.00964844 15.5703125 66.68359375 C14.39662109 66.24370117 14.39662109 66.24370117 13.19921875 65.79492188 C10.74869374 64.96475771 10.74869374 64.96475771 7.0078125 65.15234375 C7.0078125 64.49234375 7.0078125 63.83234375 7.0078125 63.15234375 C6.1209375 63.00796875 5.2340625 62.86359375 4.3203125 62.71484375 C1.53663604 62.24214397 -1.22702507 61.7216419 -3.9921875 61.15234375 C-4.4871875 59.66734375 -4.4871875 59.66734375 -4.9921875 58.15234375 C-5.6521875 57.49234375 -6.3121875 56.83234375 -6.9921875 56.15234375 C-7.24615479 54.12994385 -7.24615479 54.12994385 -7.25097656 51.61425781 C-7.25728088 50.67277893 -7.26358521 49.73130005 -7.27008057 48.7612915 C-7.2660321 47.740495 -7.26198364 46.71969849 -7.2578125 45.66796875 C-7.25972595 44.61961853 -7.2616394 43.57126831 -7.26361084 42.4911499 C-7.26497399 40.26851156 -7.26126853 38.0458653 -7.25292969 35.82324219 C-7.24227483 32.43015465 -7.25279862 29.03760176 -7.265625 25.64453125 C-7.26430259 23.48567592 -7.26173851 21.32682092 -7.2578125 19.16796875 C-7.26186096 18.15526917 -7.26590942 17.14256958 -7.27008057 16.09918213 C-7.1661129 0.36485431 -7.1661129 0.36485431 0 0 Z M34.6953125 22.15234375 C31.48120745 25.57879208 28.71760602 29.32174558 26.0078125 33.15234375 C25.51539063 33.8278125 25.02296875 34.50328125 24.515625 35.19921875 C23.83113281 36.19695313 23.83113281 36.19695313 23.1328125 37.21484375 C22.72289062 37.80394531 22.31296875 38.39304687 21.890625 39 C20.63083249 42.07144103 20.87395013 44.87271574 21.0078125 48.15234375 C21.99523437 48.14074219 22.98265625 48.12914063 24 48.1171875 C25.28132813 48.10816406 26.56265625 48.09914063 27.8828125 48.08984375 C29.15898437 48.07824219 30.43515625 48.06664063 31.75 48.0546875 C35.0078125 48.15234375 35.0078125 48.15234375 37.0078125 49.15234375 C38.05589291 51.12757221 39.0598536 53.12715884 40.0078125 55.15234375 C42.4828125 54.65734375 42.4828125 54.65734375 45.0078125 54.15234375 C45.1315625 52.97671875 45.1315625 52.97671875 45.2578125 51.77734375 C45.5053125 50.91109375 45.7528125 50.04484375 46.0078125 49.15234375 C47.32428369 48.45296843 48.65803401 47.78505242 50.0078125 47.15234375 C50.81310139 45.10233504 50.81310139 45.10233504 51.0078125 43.15234375 C49.3578125 42.82234375 47.7078125 42.49234375 46.0078125 42.15234375 C46.0078125 35.55234375 46.0078125 28.95234375 46.0078125 22.15234375 C39.78112431 19.51048945 39.78112431 19.51048945 34.6953125 22.15234375 Z " fill="#19AAB6" transform="translate(211.9921875,6.84765625)"/>
<path d="M0 0 C1.58505401 2.26436287 1.94537028 4.15824005 2.3125 6.875 C2.81716797 5.90820312 2.81716797 5.90820312 3.33203125 4.921875 C6.18418099 1.97409105 9.11698867 2.20476307 13 2.125 C13.70189453 2.09535156 14.40378906 2.06570312 15.12695312 2.03515625 C16.85485424 1.96462967 18.5836832 1.91752932 20.3125 1.875 C20.8075 2.865 20.8075 2.865 21.3125 3.875 C22.01246094 3.53597656 22.71242188 3.19695312 23.43359375 2.84765625 C26.75834162 1.72436966 28.91083091 1.88769039 32.375 2.3125 C37.23108495 2.8942504 40.30643671 2.67742532 44.8125 0.875 C46.97953512 0.00818595 49.03956421 -0.61990316 51.3125 -1.125 C51.3125 -0.135 51.3125 0.855 51.3125 1.875 C52.488125 1.99875 52.488125 1.99875 53.6875 2.125 C56.3125 2.875 56.3125 2.875 57.625 4.9375 C57.851875 5.576875 58.07875 6.21625 58.3125 6.875 C58.9725 5.555 59.6325 4.235 60.3125 2.875 C63.97916667 2.875 67.64583333 2.875 71.3125 2.875 C71.88871094 2.71386719 72.46492188 2.55273438 73.05859375 2.38671875 C75.86879463 1.74870087 78.49459686 1.70534636 81.375 1.6875 C82.93927734 1.66623047 82.93927734 1.66623047 84.53515625 1.64453125 C87.3125 1.875 87.3125 1.875 90.3125 3.875 C90.81362105 6.9652465 90.37385389 8.72502382 89.1875 11.625 C87.3125 13.875 87.3125 13.875 84.3125 14.8125 C81.3125 14.875 81.3125 14.875 78.3125 12.875 C77.125 10.75 77.125 10.75 76.3125 8.875 C75.52875 9.7 74.745 10.525 73.9375 11.375 C71.3125 13.875 71.3125 13.875 69.3125 13.875 C69.3125 12.225 69.3125 10.575 69.3125 8.875 C68.3225 10.525 67.3325 12.175 66.3125 13.875 C65.68601562 13.8028125 65.05953125 13.730625 64.4140625 13.65625 C63.59679687 13.5634375 62.77953125 13.470625 61.9375 13.375 C61.12539063 13.2821875 60.31328125 13.189375 59.4765625 13.09375 C57.34337175 12.84147649 57.34337175 12.84147649 55.3125 12.875 C53.9925 12.875 52.6725 12.875 51.3125 12.875 C50.8175 11.885 50.8175 11.885 50.3125 10.875 C49.879375 11.349375 49.44625 11.82375 49 12.3125 C47.3125 13.875 47.3125 13.875 44.3125 14.875 C44.3125 12.235 44.3125 9.595 44.3125 6.875 C43.3225 9.185 42.3325 11.495 41.3125 13.875 C40.075 13.66875 38.8375 13.4625 37.5625 13.25 C34.19340165 12.81392876 32.18408079 12.84096361 29.3125 14.875 C29.3125 12.235 29.3125 9.595 29.3125 6.875 C28.6525 6.875 27.9925 6.875 27.3125 6.875 C27.044375 7.596875 26.77625 8.31875 26.5 9.0625 C26.108125 9.990625 25.71625 10.91875 25.3125 11.875 C24.94125 12.803125 24.57 13.73125 24.1875 14.6875 C22.3125 16.875 22.3125 16.875 20.33984375 17.1875 C18.32803061 17.1875 16.3175887 17.03935153 14.3125 16.875 C14.9725 16.545 15.6325 16.215 16.3125 15.875 C17.36436057 12.193488 17.40109184 8.68444893 17.3125 4.875 C16.6525 4.875 15.9925 4.875 15.3125 4.875 C15.3125 6.855 15.3125 8.835 15.3125 10.875 C13.3325 11.865 13.3325 11.865 11.3125 12.875 C10.6525 12.215 9.9925 11.555 9.3125 10.875 C8.9825 11.535 8.6525 12.195 8.3125 12.875 C4.44609447 13.74296859 1.13014067 13.93929195 -2.75 13.3125 C-6.79584214 12.86296198 -8.98900124 13.30313803 -12.6875 14.875 C-12.6875 13.225 -12.6875 11.575 -12.6875 9.875 C-12.0275 9.875 -11.3675 9.875 -10.6875 9.875 C-10.419375 8.9675 -10.15125 8.06 -9.875 7.125 C-8.49648489 3.35222182 -7.42213402 0.6881097 -3.6875 -1.0625 C-1.6875 -1.125 -1.6875 -1.125 0 0 Z " fill="#26ACB6" transform="translate(323.6875,83.125)"/>
<path d="M0 0 C1.25200195 -0.0309375 1.25200195 -0.0309375 2.52929688 -0.0625 C10.51865333 -0.11231672 16.95145865 1.61607873 22.9375 7.25 C25.43148079 10.99097119 25.23675803 13.09995522 25.25 17.5625 C25.26675781 18.85800781 25.28351563 20.15351562 25.30078125 21.48828125 C24.8020758 26.65229572 23.32402839 29.93644679 19.5625 33.5 C10.77078147 39.36114569 0.01923943 38.69980766 -10.0625 37.25 C-11.08955253 33.08820455 -11.11422692 29.29138384 -10.9765625 25.015625 C-10.95532318 24.33699402 -10.93408386 23.65836304 -10.91220093 22.95916748 C-10.86616113 21.53371964 -10.81725303 20.10836185 -10.765625 18.68310547 C-10.68726204 16.49335046 -10.62035825 14.30344978 -10.5546875 12.11328125 C-10.50849212 10.72653969 -10.4616405 9.33981981 -10.4140625 7.953125 C-10.37104004 6.69145508 -10.32801758 5.42978516 -10.28369141 4.12988281 C-9.82868167 -1.79428362 -4.80704922 0.0287632 0 0 Z M0.9375 8.25 C0.9375 15.18 0.9375 22.11 0.9375 29.25 C7.17424107 29.34807328 7.17424107 29.34807328 11.9375 26.25 C11.9375 25.26 11.9375 24.27 11.9375 23.25 C12.5975 23.25 13.2575 23.25 13.9375 23.25 C14.91459329 19.17877794 15.1843812 16.87308113 13.625 12.9375 C10.35679823 9.17237931 10.35679823 9.17237931 0.9375 8.25 Z " fill="#F66E0E" transform="translate(423.0625,25.75)"/>
<path d="M0 0 C1.91470844 -0.13547465 3.83218481 -0.23220869 5.75 -0.3125 C6.81734375 -0.37050781 7.8846875 -0.42851562 8.984375 -0.48828125 C12 0 12 0 14.02514648 2.11230469 C16.16796244 5.24560016 17.36799221 8.10887418 18.61328125 11.69140625 C18.83195358 12.31853012 19.05062592 12.94565399 19.27592468 13.59178162 C19.73201209 14.90866498 20.18302124 16.22731719 20.62915039 17.54760742 C21.31349426 19.56543162 22.01982574 21.57459972 22.72851562 23.58398438 C23.1706077 24.86933263 23.61140842 26.15512593 24.05078125 27.44140625 C24.44950439 28.60357666 24.84822754 29.76574707 25.2590332 30.96313477 C26 34 26 34 25 38 C22.03 38 19.06 38 16 38 C15 36 14 34 13 32 C8.945224 31.65572657 5.0416214 31.45427305 1 32 C-1.58557538 34.7929709 -1.58557538 34.7929709 -3 38 C-6.51680512 39.81903713 -10.2265501 38.6530971 -14 38 C-12.93666651 33.92388828 -11.66895035 30.08360373 -10.0625 26.1875 C-8.6887397 22.84400985 -7.53489278 19.54322417 -6.5625 16.0625 C-4.9540464 10.44184827 -2.52920603 5.2583493 0 0 Z M6 12 C5.01 15.3 4.02 18.6 3 22 C5.31 22 7.62 22 10 22 C9.71872579 20.51882199 9.42466268 19.04006751 9.125 17.5625 C8.88136719 16.32693359 8.88136719 16.32693359 8.6328125 15.06640625 C8.42398438 14.38449219 8.21515625 13.70257813 8 13 C7.34 12.67 6.68 12.34 6 12 Z " fill="#F97211" transform="translate(29,26)"/>
<path d="M0 0 C3.3 0 6.6 0 10 0 C10.95855025 3.83420102 11.06955868 6.70362923 11 10.625 C10.95090743 16.49156194 11.2495832 22.18426979 12 28 C14.34533951 28.76956136 14.34533951 28.76956136 17 29 C18.76864855 27.87276348 18.76864855 27.87276348 20 26 C20.2891227 23.76303018 20.2891227 23.76303018 20.0625 21.25 C19.83950434 14.02687978 20.92254804 7.12849912 22 0 C25.3 0 28.6 0 32 0 C32.08735463 4.54154478 32.14051247 9.08287232 32.1875 13.625 C32.21263672 14.91019531 32.23777344 16.19539063 32.26367188 17.51953125 C32.27333984 18.76347656 32.28300781 20.00742187 32.29296875 21.2890625 C32.3086792 22.43068848 32.32438965 23.57231445 32.34057617 24.74853516 C31.85745592 29.36086171 30.38257706 32.74311176 26.9375 35.875 C25 37 25 37 23 37 C22.67 37.66 22.34 38.32 22 39 C17.05 38.67 12.1 38.34 7 38 C7 37.34 7 36.68 7 36 C6.01 36 5.02 36 4 36 C0.41850777 29.99233562 -1.20541651 26.25129292 -0.87890625 19.140625 C-0.83056641 18.02558594 -0.78222656 16.91054688 -0.73242188 15.76171875 C-0.64831055 14.02341797 -0.64831055 14.02341797 -0.5625 12.25 C-0.51029297 11.07566406 -0.45808594 9.90132812 -0.40429688 8.69140625 C-0.27473776 5.79399336 -0.13977553 2.89693507 0 0 Z " fill="#F1751C" transform="translate(373,26)"/>
<path d="M0 0 C0.94101562 0.00322266 1.88203125 0.00644531 2.8515625 0.00976562 C3.83640625 0.01814453 4.82125 0.02652344 5.8359375 0.03515625 C6.82851563 0.03966797 7.82109375 0.04417969 8.84375 0.04882812 C11.2995391 0.0606348 13.75520854 0.07710225 16.2109375 0.09765625 C17.2109375 2.09765625 17.2109375 2.09765625 17.2109375 9.09765625 C11.2709375 9.09765625 5.3309375 9.09765625 -0.7890625 9.09765625 C2.25870696 12.14542571 3.62496183 12.77089963 7.5859375 14.03515625 C15.59842997 16.87556364 15.59842997 16.87556364 18.2109375 20.09765625 C19.70689398 24.7825978 19.7298039 28.02001066 17.5859375 32.47265625 C14.77384526 35.5807582 12.46646444 37.80001081 8.16845703 38.3671875 C5.80031543 38.46465442 3.45549699 38.45769958 1.0859375 38.41015625 C0.27511719 38.41337891 -0.53570312 38.41660156 -1.37109375 38.41992188 C-7.38770881 38.36522537 -7.38770881 38.36522537 -10.7890625 36.09765625 C-12.1390625 29.79765625 -12.1390625 29.79765625 -10.7890625 27.09765625 C-9.8403125 27.26265625 -8.8915625 27.42765625 -7.9140625 27.59765625 C-4.76746699 28.03521963 -1.65234746 28.25547091 1.5234375 28.34765625 C2.78607422 28.38632812 2.78607422 28.38632812 4.07421875 28.42578125 C5.13189453 28.26335938 5.13189453 28.26335938 6.2109375 28.09765625 C6.8709375 27.10765625 7.5309375 26.11765625 8.2109375 25.09765625 C7.50582031 24.97519531 6.80070312 24.85273437 6.07421875 24.7265625 C3.05590567 24.06360424 0.29204308 23.1159005 -2.6015625 22.03515625 C-3.57738281 21.67292969 -4.55320312 21.31070313 -5.55859375 20.9375 C-6.29464844 20.66035156 -7.03070313 20.38320313 -7.7890625 20.09765625 C-7.7890625 19.43765625 -7.7890625 18.77765625 -7.7890625 18.09765625 C-8.4490625 18.09765625 -9.1090625 18.09765625 -9.7890625 18.09765625 C-12.14717523 13.65885581 -12.18818335 9.84077515 -10.7890625 5.09765625 C-7.49405141 0.95231972 -5.16642156 -0.03112302 0 0 Z " fill="#F17318" transform="translate(312.7890625,25.90234375)"/>
<path d="M0 0 C1.72669922 0.08314453 1.72669922 0.08314453 3.48828125 0.16796875 C7.23346739 0.92249343 8.96682722 2.17531357 11.6875 4.8125 C13.72811418 8.50503994 14.12330909 11.62873274 13.6875 15.8125 C11.95709363 20.35481673 9.2044946 22.07511215 4.9609375 24.03125 C1.26851553 25.30012353 -2.42996986 25.63275323 -6.3125 25.8125 C-6.30089844 26.59496094 -6.28929688 27.37742187 -6.27734375 28.18359375 C-6.26832031 29.19550781 -6.25929688 30.20742188 -6.25 31.25 C-6.23839844 32.25933594 -6.22679688 33.26867188 -6.21484375 34.30859375 C-6.3125 36.8125 -6.3125 36.8125 -7.3125 37.8125 C-10.6125 37.8125 -13.9125 37.8125 -17.3125 37.8125 C-17.3125 25.6025 -17.3125 13.3925 -17.3125 0.8125 C-5.74137473 -0.34461253 -5.74137473 -0.34461253 0 0 Z M-4.3125 7.8125 C-5.3025 8.4725 -6.2925 9.1325 -7.3125 9.8125 C-7.56265873 13.39607241 -7.56265873 13.39607241 -7.3125 16.8125 C-4.29981243 17.73304342 -2.88520838 18.09111489 0 16.6875 C1.94949285 14.89674721 1.94949285 14.89674721 1.9375 12.125 C1.81375 10.9803125 1.81375 10.9803125 1.6875 9.8125 C-1.1496515 8.61654463 -1.1496515 8.61654463 -4.3125 7.8125 Z " fill="#EF751F" transform="translate(112.3125,25.1875)"/>
<path d="M0 0 C3.89558088 -0.11643304 7.79071258 -0.18732909 11.6875 -0.25 C12.79029297 -0.28351562 13.89308594 -0.31703125 15.02929688 -0.3515625 C23.18140289 -0.45007738 23.18140289 -0.45007738 27.17578125 1.74609375 C30.03197678 5.27505483 30.84046576 8.49505688 31 13 C30.11295882 17.01868221 28.28239122 20.47884419 25 23 C21.64453125 23.94921875 21.64453125 23.94921875 17.8125 24.6875 C16.54019531 24.93886719 15.26789063 25.19023438 13.95703125 25.44921875 C12.98121094 25.63097656 12.00539063 25.81273438 11 26 C10.67 29.96 10.34 33.92 10 38 C3.06640625 37.4140625 3.06640625 37.4140625 1 37 C-0.55977064 33.88045872 -0.12104126 30.57040616 -0.09765625 27.1484375 C-0.0962413 26.37440582 -0.09482635 25.60037415 -0.09336853 24.80288696 C-0.08776403 22.32688558 -0.07521083 19.85097412 -0.0625 17.375 C-0.05748558 15.69791797 -0.05292257 14.02083453 -0.04882812 12.34375 C-0.03779315 8.22913194 -0.02052554 4.11458122 0 0 Z M10 8 C9.83333333 11.5 9.83333333 11.5 10 15 C10.33 15.33 10.66 15.66 11 16 C15.3409369 15.85841338 15.3409369 15.85841338 19 14 C19.33343551 11.54207971 19.33343551 11.54207971 19 9 C16.36428024 7.24285349 12.72319072 5.27680928 10 8 Z " fill="#F0741E" transform="translate(59,26)"/>
<path d="M0 0 C2.28280621 0.00360064 4.51691056 0.10205229 6.7890625 0.31640625 C4.9140625 4.19140625 4.9140625 4.19140625 3.7890625 5.31640625 C4.7790625 5.97640625 5.7690625 6.63640625 6.7890625 7.31640625 C7.1190625 6.84203125 7.4490625 6.36765625 7.7890625 5.87890625 C12.64838126 2.08256347 19.43848108 3.36323024 25.1796875 4.05859375 C29.38102904 4.47369636 33.57222608 4.39715418 37.7890625 4.31640625 C37.7890625 4.97640625 37.7890625 5.63640625 37.7890625 6.31640625 C38.4490625 6.31640625 39.1090625 6.31640625 39.7890625 6.31640625 C39.7890625 5.65640625 39.7890625 4.99640625 39.7890625 4.31640625 C41.53541415 3.7834679 43.28633902 3.26549962 45.0390625 2.75390625 C46.01359375 2.46386719 46.988125 2.17382812 47.9921875 1.875 C50.7991627 1.31438903 52.1383785 1.39040311 54.7890625 2.31640625 C57.65700689 2.99565624 60.01223945 3.31203023 62.9765625 3.25390625 C65.7890625 3.31640625 65.7890625 3.31640625 67.7890625 5.31640625 C67.9140625 7.94140625 67.9140625 7.94140625 67.7890625 10.31640625 C67.1290625 10.64640625 66.4690625 10.97640625 65.7890625 11.31640625 C66.2840625 12.80140625 66.2840625 12.80140625 66.7890625 14.31640625 C63.67134323 15.91980473 62.39894561 16.50614766 58.9765625 15.44140625 C58.2546875 15.07015625 57.5328125 14.69890625 56.7890625 14.31640625 C56.7890625 13.65640625 56.7890625 12.99640625 56.7890625 12.31640625 C56.1290625 12.97640625 55.4690625 13.63640625 54.7890625 14.31640625 C51.7890625 15.31640625 51.7890625 15.31640625 49.6015625 14.37890625 C49.0034375 14.02828125 48.4053125 13.67765625 47.7890625 13.31640625 C47.7890625 11.66640625 47.7890625 10.01640625 47.7890625 8.31640625 C46.7990625 8.31640625 45.8090625 8.31640625 44.7890625 8.31640625 C44.5209375 9.07953125 44.2528125 9.84265625 43.9765625 10.62890625 C42.84482138 13.19021509 41.87682849 14.51333563 39.7890625 16.31640625 C39.1290625 15.32640625 38.4690625 14.33640625 37.7890625 13.31640625 C35.31639485 13.66085506 35.31639485 13.66085506 32.7890625 14.31640625 C32.4590625 14.97640625 32.1290625 15.63640625 31.7890625 16.31640625 C29.3140625 15.82140625 29.3140625 15.82140625 26.7890625 15.31640625 C26.7890625 14.65640625 26.7890625 13.99640625 26.7890625 13.31640625 C24.8090625 13.64640625 22.8290625 13.97640625 20.7890625 14.31640625 C20.4590625 13.65640625 20.1290625 12.99640625 19.7890625 12.31640625 C19.4590625 12.97640625 19.1290625 13.63640625 18.7890625 14.31640625 C16.7265625 14.94140625 16.7265625 14.94140625 14.7890625 15.31640625 C14.1290625 14.32640625 13.4690625 13.33640625 12.7890625 12.31640625 C11.7990625 13.80140625 11.7990625 13.80140625 10.7890625 15.31640625 C9.7990625 14.98640625 8.8090625 14.65640625 7.7890625 14.31640625 C7.4590625 13.65640625 7.1290625 12.99640625 6.7890625 12.31640625 C6.3971875 12.79078125 6.0053125 13.26515625 5.6015625 13.75390625 C3.2345507 15.79443367 1.92658223 16.31640625 -1.2109375 16.31640625 C-4.0234375 13.87890625 -4.0234375 13.87890625 -6.2109375 11.31640625 C-5.2209375 10.65640625 -4.2309375 9.99640625 -3.2109375 9.31640625 C-3.6028125 8.75953125 -3.9946875 8.20265625 -4.3984375 7.62890625 C-5.2109375 5.31640625 -5.2109375 5.31640625 -4.3984375 2.56640625 C-2.2109375 0.31640625 -2.2109375 0.31640625 0 0 Z M25.7890625 6.31640625 C26.1190625 7.63640625 26.4490625 8.95640625 26.7890625 10.31640625 C27.1190625 8.99640625 27.4490625 7.67640625 27.7890625 6.31640625 C27.1290625 6.31640625 26.4690625 6.31640625 25.7890625 6.31640625 Z M53.7890625 8.31640625 C53.7890625 9.30640625 53.7890625 10.29640625 53.7890625 11.31640625 C54.4490625 10.98640625 55.1090625 10.65640625 55.7890625 10.31640625 C55.1290625 9.65640625 54.4690625 8.99640625 53.7890625 8.31640625 Z " fill="#37AEB6" transform="translate(160.2109375,81.68359375)"/>
<path d="M0 0 C4.06285531 2.78823404 6.8390229 5.55799152 9 10 C9 10.66 9 11.32 9 12 C9.66 12 10.32 12 11 12 C11.268125 11.278125 11.53625 10.55625 11.8125 9.8125 C14.77688795 2.79158118 14.77688795 2.79158118 17.8046875 0.83203125 C20.41087712 -0.15572389 22.0096725 -0.02798934 24.75 0.375 C25.54921875 0.48585938 26.3484375 0.59671875 27.171875 0.7109375 C27.77515625 0.80632813 28.3784375 0.90171875 29 1 C27.34308062 5.82873649 24.68209796 9.86252679 21.9375 14.125 C21.02703955 15.54240687 20.11936661 16.96160918 19.21484375 18.3828125 C18.81386475 19.00559082 18.41288574 19.62836914 17.99975586 20.27001953 C15.86518519 23.96368688 15.72701433 27.51022177 15.4375 31.6875 C15.35371094 32.86699219 15.26992188 34.04648437 15.18359375 35.26171875 C15.09271484 36.61716797 15.09271484 36.61716797 15 38 C11.37 38 7.74 38 4 38 C4.0825 36.22625 4.165 34.4525 4.25 32.625 C4.18600866 21.69527931 -0.49096904 14.83133347 -7.171875 6.56640625 C-9 4 -9 4 -9 1 C-5.61670875 -0.12776375 -3.54843366 -0.41746278 0 0 Z " fill="#EE7924" transform="translate(455,25)"/>
<path d="M0 0 C0 1.32 0 2.64 0 4 C2.8371515 5.19595537 2.8371515 5.19595537 6 6 C6.99 5.34 7.98 4.68 9 4 C9.99 4 10.98 4 12 4 C11.10977804 9.74503707 8.79990145 14.58639765 5 19 C1.125 19.625 1.125 19.625 -2 19 C-1.4740625 17.576875 -1.4740625 17.576875 -0.9375 16.125 C0.35026777 13.12939828 0.35026777 13.12939828 -1 11 C-1.309375 11.66 -1.61875 12.32 -1.9375 13 C-4.42474402 15.41187299 -5.14492065 15.27182165 -8.5 15.25 C-10.00067985 15.17996827 -11.50087171 15.09776924 -13 15 C-15.97898747 14.78126714 -15.97898747 14.78126714 -18.3125 16.125 C-21.83357124 17.27139529 -23.65587902 16.3998646 -27 15 C-26.67 13.02 -26.34 11.04 -26 9 C-26.66 9 -27.32 9 -28 9 C-28 10.98 -28 12.96 -28 15 C-30.875 15.1875 -30.875 15.1875 -34 15 C-34.66 14.01 -35.32 13.02 -36 12 C-36.515625 12.639375 -37.03125 13.27875 -37.5625 13.9375 C-40.65935623 16.55791681 -43.02067623 16.69389817 -47 17 C-47.66 15.68 -48.32 14.36 -49 13 C-48.01 12.01 -47.02 11.02 -46 10 C-46.66 8.68 -47.32 7.36 -48 6 C-47.0625 4.0625 -47.0625 4.0625 -45 2 C-42.01532006 1.21829811 -39.08400875 0.82443973 -36 1 C-35.34 1.66 -34.68 2.32 -34 3 C-32.68 2.34 -31.36 1.68 -30 1 C-29.46375 1.66 -28.9275 2.32 -28.375 3 C-26.10041408 5.31024799 -26.10041408 5.31024799 -22.75 5.25 C-21.8425 5.1675 -20.935 5.085 -20 5 C-20 5.99 -20 6.98 -20 8 C-19.3503125 7.2575 -19.3503125 7.2575 -18.6875 6.5 C-17 5 -17 5 -14 5 C-13.505 6.485 -13.505 6.485 -13 8 C-12.46375 7.4225 -11.9275 6.845 -11.375 6.25 C-4.77777778 0 -4.77777778 0 0 0 Z M-39 5 C-38.34 6.32 -37.68 7.64 -37 9 C-36.34 8.67 -35.68 8.34 -35 8 C-35 7.01 -35 6.02 -35 5 C-36.32 5 -37.64 5 -39 5 Z " fill="#31ADB4" transform="translate(296,81)"/>
<path d="M0 0 C8.85807944 0.34400309 8.85807944 0.34400309 12.9375 2.6875 C15.24929334 5.27951071 16.62695123 7.82030811 18 11 C18.38671875 10.37351562 18.7734375 9.74703125 19.171875 9.1015625 C19.69265625 8.28429688 20.2134375 7.46703125 20.75 6.625 C21.26046875 5.81289063 21.7709375 5.00078125 22.296875 4.1640625 C24.10784542 1.86296705 25.26715183 0.9760172 28 0 C34.34375 -0.328125 34.34375 -0.328125 37 1 C35.64875335 4.77138991 33.93029184 7.71424789 31.5625 10.9375 C26.38931378 18.18641375 23.82959664 23.85652083 23.9375 32.8125 C23.94652344 33.78832031 23.95554688 34.76414063 23.96484375 35.76953125 C23.97644531 36.50558594 23.98804688 37.24164063 24 38 C19.70272603 39.30660357 16.39784135 38.6596762 12 38 C12.01160156 37.13117187 12.02320313 36.26234375 12.03515625 35.3671875 C12.04417969 34.21476562 12.05320313 33.06234375 12.0625 31.875 C12.07410156 30.73804687 12.08570313 29.60109375 12.09765625 28.4296875 C12.00465199 25.16337777 11.75026984 22.18038913 11 19 C10.34 18.67 9.68 18.34 9 18 C8.03277313 16.09889892 7.07141337 14.19437518 6.15234375 12.26953125 C4.62434936 9.26015925 2.81332415 6.47677326 0.953125 3.6640625 C0 2 0 2 0 0 Z " fill="#F87110" transform="translate(150,25)"/>
<path d="M0 0 C5.10863896 -0.0246501 10.21724359 -0.04283607 15.32592773 -0.05493164 C17.06519168 -0.05997204 18.80445136 -0.0668043 20.54370117 -0.07543945 C23.03825937 -0.08751792 25.53276173 -0.09323108 28.02734375 -0.09765625 C28.80963852 -0.10281754 29.59193329 -0.10797882 30.39793396 -0.11329651 C32.26567114 -0.11349226 34.13329204 -0.06199694 36 0 C37 1 37 1 37.125 4 C37 7 37 7 36 8 C32.04 8 28.08 8 24 8 C24 17.57 24 27.14 24 37 C18.06 37.495 18.06 37.495 12 38 C11.97310582 33.56245985 11.95321223 29.1250816 11.9375 24.6875 C11.92912109 23.42486328 11.92074219 22.16222656 11.91210938 20.86132812 C11.90727539 19.04858398 11.90727539 19.04858398 11.90234375 17.19921875 C11.89710693 16.08377686 11.89187012 14.96833496 11.88647461 13.8190918 C12 11 12 11 13 8 C9.04 8 5.08 8 1 8 C0.67 5.36 0.34 2.72 0 0 Z " fill="#E87929" transform="translate(333,26)"/>
<path d="M0 0 C3.3 0 6.6 0 10 0 C10.33 9.24 10.66 18.48 11 28 C15.95 28.33 20.9 28.66 26 29 C26 31.97 26 34.94 26 38 C13.13 37.505 13.13 37.505 0 37 C0 24.79 0 12.58 0 0 Z " fill="#F37012" transform="translate(131,26)"/>
<path d="M0 0 C1.32 0 2.64 0 4 0 C3.34 4.62 2.68 9.24 2 14 C0.02 14 -1.96 14 -4 14 C-6.20067421 14.93283296 -6.20067421 14.93283296 -8 16 C-8.66 16 -9.32 16 -10 16 C-10.33 16.66 -10.66 17.32 -11 18 C-12.98 18 -14.96 18 -17 18 C-16.67 16.35 -16.34 14.7 -16 13 C-16.66 13.66 -17.32 14.32 -18 15 C-20.625 15.125 -20.625 15.125 -23 15 C-23.33 15.99 -23.66 16.98 -24 18 C-25.98 18 -27.96 18 -30 18 C-30 16.68 -30 15.36 -30 14 C-34.62 14 -39.24 14 -44 14 C-43.09765977 10.3906391 -42.20120393 8.32767218 -40.25 5.25 C-39.76015625 4.45078125 -39.2703125 3.6515625 -38.765625 2.828125 C-37 1 -37 1 -34.421875 0.609375 C-32 1 -32 1 -30 3 C-29.60235737 4.98821313 -29.26224651 6.98944339 -29 9 C-28.34 7.35 -27.68 5.7 -27 4 C-20.64772727 2.77840909 -20.64772727 2.77840909 -17.625 3.8125 C-16 5 -16 5 -15 7 C-14.46375 6.34 -13.9275 5.68 -13.375 5 C-11 3 -11 3 -7.9375 2.4375 C-5 3 -5 3 -3.125 5.5 C-2.75375 6.325 -2.3825 7.15 -2 8 C-1.34 5.36 -0.68 2.72 0 0 Z " fill="#19ACB8" transform="translate(133,82)"/>
<path d="M0 0 C0.94101562 0.00322266 1.88203125 0.00644531 2.8515625 0.00976562 C3.83640625 0.01814453 4.82125 0.02652344 5.8359375 0.03515625 C6.82851563 0.03966797 7.82109375 0.04417969 8.84375 0.04882812 C11.2995391 0.0606348 13.75520854 0.07710225 16.2109375 0.09765625 C17.2109375 2.09765625 17.2109375 2.09765625 17.2109375 9.09765625 C11.2709375 9.09765625 5.3309375 9.09765625 -0.7890625 9.09765625 C2.25870696 12.14542571 3.62496183 12.77089963 7.5859375 14.03515625 C15.59842997 16.87556364 15.59842997 16.87556364 18.2109375 20.09765625 C19.538351 24.56717513 19.77002416 27.90655858 17.7734375 32.16015625 C17.2578125 32.79953125 16.7421875 33.43890625 16.2109375 34.09765625 C15.8809375 32.77765625 15.5509375 31.45765625 15.2109375 30.09765625 C15.8709375 30.09765625 16.5309375 30.09765625 17.2109375 30.09765625 C16.95569876 28.47013394 16.68119256 26.84562429 16.3984375 25.22265625 C16.24761719 24.31773438 16.09679687 23.4128125 15.94140625 22.48046875 C15.38042449 19.75353147 15.38042449 19.75353147 12.2109375 18.09765625 C10.221238 17.70751909 8.22073881 17.36562976 6.2109375 17.09765625 C6.2109375 16.76765625 6.2109375 16.43765625 6.2109375 16.09765625 C3.5709375 15.76765625 0.9309375 15.43765625 -1.7890625 15.09765625 C-1.7890625 18.20317291 -1.249691 19.45026709 0.2109375 22.09765625 C-2.55182427 21.57497159 -5.1151501 20.98896038 -7.7890625 20.09765625 C-7.7890625 19.43765625 -7.7890625 18.77765625 -7.7890625 18.09765625 C-8.4490625 18.09765625 -9.1090625 18.09765625 -9.7890625 18.09765625 C-12.14717523 13.65885581 -12.18818335 9.84077515 -10.7890625 5.09765625 C-7.49405141 0.95231972 -5.16642156 -0.03112302 0 0 Z " fill="#E0853F" transform="translate(312.7890625,25.90234375)"/>
<path d="M0 0 C2.64 0 5.28 0 8 0 C8 9.57 8 19.14 8 29 C11.3 29.66 14.6 30.32 18 31 C18.33 32.32 18.66 33.64 19 35 C20.65 35 22.3 35 24 35 C23.01 35.495 23.01 35.495 22 36 C21.67 36.66 21.34 37.32 21 38 C16.05 37.67 11.1 37.34 6 37 C6 36.34 6 35.68 6 35 C5.01 35 4.02 35 3 35 C-0.19735489 30.20396767 -0.12560038 25.37127616 -0.09765625 19.7265625 C-0.09443359 18.57285156 -0.09121094 17.41914062 -0.08789062 16.23046875 C-0.07951172 15.04066406 -0.07113281 13.85085937 -0.0625 12.625 C-0.05798828 11.41199219 -0.05347656 10.19898438 -0.04882812 8.94921875 C-0.03708354 5.96609493 -0.0206584 2.98307321 0 0 Z " fill="#F47011" transform="translate(374,27)"/>
<path d="M0 0 C1.25200195 -0.0309375 1.25200195 -0.0309375 2.52929688 -0.0625 C10.61629079 -0.11292553 16.79348917 1.68199019 22.9375 7.25 C22.6075 7.91 22.2775 8.57 21.9375 9.25 C21.380625 9.064375 20.82375 8.87875 20.25 8.6875 C17.538367 8.17448835 15.59378961 8.5859276 12.9375 9.25 C12.6075 10.24 12.2775 11.23 11.9375 12.25 C10.9475 11.59 9.9575 10.93 8.9375 10.25 C6.89165921 9.58841957 6.89165921 9.58841957 4.75 9.125 C2.8628125 8.691875 2.8628125 8.691875 0.9375 8.25 C1.1025 8.889375 1.2675 9.52875 1.4375 10.1875 C2.4860656 16.60996431 2.02421355 22.8655579 0.9375 29.25 C2.9175 29.25 4.8975 29.25 6.9375 29.25 C6.9375 29.58 6.9375 29.91 6.9375 30.25 C4.6275 30.25 2.3175 30.25 -0.0625 30.25 C-0.3925 22.33 -0.7225 14.41 -1.0625 6.25 C-0.4025 6.25 0.2575 6.25 0.9375 6.25 C0.9375 5.26 0.9375 4.27 0.9375 3.25 C-0.0525 3.25 -1.0425 3.25 -2.0625 3.25 C-2.0625 2.59 -2.0625 1.93 -2.0625 1.25 C-4.6615828 2.26066103 -4.6615828 2.26066103 -7.0625 4.25 C-7.75430587 7.43692858 -7.75430587 7.43692858 -7.55078125 11.10546875 C-7.54370651 11.76710526 -7.53663177 12.42874176 -7.52934265 13.11042786 C-7.50138507 15.22060985 -7.43865847 17.3281226 -7.375 19.4375 C-7.34991824 20.86910225 -7.32710483 22.30074617 -7.30664062 23.73242188 C-7.25580424 27.24013262 -7.15799676 30.74208583 -7.0625 34.25 C0.8575 34.25 8.7775 34.25 16.9375 34.25 C13.16355451 38.02394549 7.07100802 37.81251658 1.9375 38.25 C-2.09944835 38.1382351 -6.06058268 37.78358898 -10.0625 37.25 C-11.08955253 33.08820455 -11.11422692 29.29138384 -10.9765625 25.015625 C-10.95532318 24.33699402 -10.93408386 23.65836304 -10.91220093 22.95916748 C-10.86616113 21.53371964 -10.81725303 20.10836185 -10.765625 18.68310547 C-10.68726204 16.49335046 -10.62035825 14.30344978 -10.5546875 12.11328125 C-10.50849212 10.72653969 -10.4616405 9.33981981 -10.4140625 7.953125 C-10.37104004 6.69145508 -10.32801758 5.42978516 -10.28369141 4.12988281 C-9.82868167 -1.79428362 -4.80704922 0.0287632 0 0 Z " fill="#E77C2C" transform="translate(423.0625,25.75)"/>
<path d="M0 0 C3.3 0 6.6 0 10 0 C10 3 10 3 8 6 C7.56261304 7.71444889 7.19151312 9.44667784 6.875 11.1875 C6.70742187 12.08855469 6.53984375 12.98960938 6.3671875 13.91796875 C6.24601562 14.60503906 6.12484375 15.29210938 6 16 C7.32 16 8.64 16 10 16 C10 16.66 10 17.32 10 18 C10.598125 17.79375 11.19625 17.5875 11.8125 17.375 C14 17 14 17 17 19 C17 19.66 17 20.32 17 21 C16.01 21 15.02 21 14 21 C14 21.66 14 22.32 14 23 C12.02 23 10.04 23 8 23 C8 26.63 8 30.26 8 34 C5.36 34 2.72 34 0 34 C0 22.78 0 11.56 0 0 Z " fill="#F77011" transform="translate(97,27)"/>
<path d="M0 0 C0 0.66 0 1.32 0 2 C0.99 2 1.98 2 3 2 C2.83250244 2.54817383 2.66500488 3.09634766 2.49243164 3.66113281 C1.92564237 6.3531711 1.98373739 8.67474781 2.12109375 11.421875 C2.16943359 12.44667969 2.21777344 13.47148438 2.26757812 14.52734375 C2.32365234 15.59082031 2.37972656 16.65429688 2.4375 17.75 C2.48970703 18.82894531 2.54191406 19.90789063 2.59570312 21.01953125 C2.72519469 23.67999422 2.86015361 26.34006452 3 29 C5.64 29.33 8.28 29.66 11 30 C10.34 30.33 9.68 30.66 9 31 C9 31.66 9 32.32 9 33 C9.99 33 10.98 33 12 33 C12 32.34 12 31.68 12 31 C12.66 31 13.32 31 14 31 C14 31.99 14 32.98 14 34 C10.85418577 34.02888514 7.70840531 34.04675923 4.5625 34.0625 C3.66466797 34.07087891 2.76683594 34.07925781 1.84179688 34.08789062 C0.56079102 34.09272461 0.56079102 34.09272461 -0.74609375 34.09765625 C-1.53685303 34.10289307 -2.3276123 34.10812988 -3.14233398 34.11352539 C-5 34 -5 34 -6 33 C-6.24221218 28.76128682 -6.22851631 24.51684019 -6.24023438 20.27197266 C-6.24992926 18.14055196 -6.28093407 16.01009992 -6.3125 13.87890625 C-6.319031 12.52604741 -6.32428109 11.17318165 -6.328125 9.8203125 C-6.3374707 8.58555176 -6.34681641 7.35079102 -6.35644531 6.07861328 C-6 3 -6 3 -4.66699219 1.07373047 C-3 0 -3 0 0 0 Z " fill="#F66F0F" transform="translate(421,27)"/>
<path d="M0 0 C1.98 0.66 3.96 1.32 6 2 C7.68081291 12.22115959 7.68081291 12.22115959 5 17 C0.71809831 19.24799839 -3.97308687 19.39582374 -8.73046875 19.75390625 C-11.16302701 19.9365006 -11.16302701 19.9365006 -14 21 C-14 24.3 -14 27.6 -14 31 C-15.98 31 -17.96 31 -20 31 C-20 29.02 -20 27.04 -20 25 C-19.34 25.33 -18.68 25.66 -18 26 C-17.84188612 22.94729537 -17.84188612 22.94729537 -19 20 C-18.01 19.67 -17.02 19.34 -16 19 C-16.33 17.35 -16.66 15.7 -17 14 C-14.59454362 12.79727181 -13.05003047 12.89928528 -10.375 12.9375 C-9.14910156 12.95103516 -9.14910156 12.95103516 -7.8984375 12.96484375 C-6.95871094 12.98224609 -6.95871094 12.98224609 -6 13 C-6 13.66 -6 14.32 -6 15 C-4.68 15 -3.36 15 -2 15 C-2 10.71 -2 6.42 -2 2 C-1.34 2 -0.68 2 0 2 C0 1.34 0 0.68 0 0 Z " fill="#F77011" transform="translate(81,30)"/>
<path d="M0 0 C3.96 0 7.92 0 12 0 C12.33 0.66 12.66 1.32 13 2 C10.03 1.67 7.06 1.34 4 1 C4.66 2.65 5.32 4.3 6 6 C3.69 6.66 1.38 7.32 -1 8 C-1.1546875 9.8871875 -1.1546875 9.8871875 -1.3125 11.8125 C-1.74140871 15.36187498 -2.35947287 16.5795168 -5 19 C-5.39764263 20.98821313 -5.73775349 22.98944339 -6 25 C-6.33 25.33 -6.66 25.66 -7 26 C-3.2236068 26.2981424 -3.2236068 26.2981424 -1 25 C-0.34 24.67 0.32 24.34 1 24 C1 25.32 1 26.64 1 28 C4.96 28.33 8.92 28.66 13 29 C13 29.66 13 30.32 13 31 C12.18015625 31.00257812 11.3603125 31.00515625 10.515625 31.0078125 C7.24518018 31.12517296 4.2042223 31.32317229 1 32 C-1.56680314 34.84730711 -1.56680314 34.84730711 -3 38 C-6.51680512 39.81903713 -10.2265501 38.6530971 -14 38 C-12.93666651 33.92388828 -11.66895035 30.08360373 -10.0625 26.1875 C-8.6887397 22.84400985 -7.53489278 19.54322417 -6.5625 16.0625 C-4.94888563 10.42381422 -2.51098254 5.29342266 0 0 Z " fill="#E67C2D" transform="translate(29,26)"/>
<path d="M0 0 C6.39655172 -0.36206897 6.39655172 -0.36206897 8.875 1.125 C10.40430823 3.67384706 10.67470941 6.07238473 11 9 C10.01 9 9.02 9 8 9 C7.34 10.32 6.68 11.64 6 13 C5.34 12.01 4.68 11.02 4 10 C1.94074861 9.27617533 1.94074861 9.27617533 0 9 C0.020625 9.969375 0.04125 10.93875 0.0625 11.9375 C0 15 0 15 -1 16 C-1.36760731 18.32817964 -1.70241581 20.6618385 -2 23 C-1.030625 23.268125 -0.06125 23.53625 0.9375 23.8125 C1.948125 24.204375 2.95875 24.59625 4 25 C4.33 25.99 4.66 26.98 5 28 C2.03 28 -0.94 28 -4 28 C-4 27.01 -4 26.02 -4 25 C-4.928125 25.5259375 -4.928125 25.5259375 -5.875 26.0625 C-6.926875 26.5265625 -6.926875 26.5265625 -8 27 C-8.66 26.67 -9.32 26.34 -10 26 C-10.66 26.99 -11.32 27.98 -12 29 C-12 27.35 -12 25.7 -12 24 C-11.34 24 -10.68 24 -10 24 C-10.0928125 22.6078125 -10.0928125 22.6078125 -10.1875 21.1875 C-9.96563967 17.41587438 -9.49725558 17.49725558 -7 15 C-6.69069371 13.65409968 -6.42442873 12.2980083 -6.1875 10.9375 C-5.73828125 8.80859375 -5.73828125 8.80859375 -5 7 C-1.875 5.5 -1.875 5.5 1 5 C0.67 3.35 0.34 1.7 0 0 Z " fill="#FA7210" transform="translate(33,27)"/>
<path d="M0 0 C8.83198146 0.34298957 8.83198146 0.34298957 13 2.6875 C15.29942655 5.34621195 16.15274725 7.61098899 17 11 C15.68 10.67 14.36 10.34 13 10 C12.89398111 15.40696314 13.29345014 19.88035042 15 25 C15.0685495 26.89470816 15.08480372 28.7916834 15.0625 30.6875 C15.05347656 31.68136719 15.04445312 32.67523438 15.03515625 33.69921875 C15.02355469 34.45847656 15.01195312 35.21773437 15 36 C16.98 36 18.96 36 21 36 C21 33.03 21 30.06 21 27 C20.01 26.67 19.02 26.34 18 26 C21 25 21 25 23 25 C23.33 24.34 23.66 23.68 24 23 C24 27.95 24 32.9 24 38 C19.36533108 39.15866723 16.66739961 38.70010994 12 38 C12.01160156 37.13117187 12.02320313 36.26234375 12.03515625 35.3671875 C12.04417969 34.21476562 12.05320313 33.06234375 12.0625 31.875 C12.07410156 30.73804687 12.08570313 29.60109375 12.09765625 28.4296875 C12.00465199 25.16337777 11.75026984 22.18038913 11 19 C10.34 18.67 9.68 18.34 9 18 C8.03277313 16.09889892 7.07141337 14.19437518 6.15234375 12.26953125 C4.62434936 9.26015925 2.81332415 6.47677326 0.953125 3.6640625 C0 2 0 2 0 0 Z " fill="#DA8341" transform="translate(150,25)"/>
<path d="M0 0 C0.83595703 0.00902344 1.67191406 0.01804687 2.53320312 0.02734375 C4.58475969 0.05079011 6.63616777 0.08665734 8.6875 0.125 C8.6875 2.435 8.6875 4.745 8.6875 7.125 C2.7475 6.795 -3.1925 6.465 -9.3125 6.125 C-9.3125 8.435 -9.3125 10.745 -9.3125 13.125 C-11.6225 13.455 -13.9325 13.785 -16.3125 14.125 C-16.36672947 12.6879191 -16.40539723 11.25024538 -16.4375 9.8125 C-16.46070313 9.01199219 -16.48390625 8.21148437 -16.5078125 7.38671875 C-16.3125 5.125 -16.3125 5.125 -14.3125 2.125 C-9.77119896 -0.49731915 -5.07829762 -0.10421132 0 0 Z " fill="#F57112" transform="translate(319.3125,26.875)"/>
<path d="M0 0 C0 8.58 0 17.16 0 26 C-2.64 26 -5.28 26 -8 26 C-8.02694851 24.04174127 -8.04637218 22.08337774 -8.0625 20.125 C-8.07410156 19.03445312 -8.08570313 17.94390625 -8.09765625 16.8203125 C-8 14 -8 14 -7 12 C-6.92966231 10.12620395 -6.9156978 8.24998898 -6.9375 6.375 C-6.94652344 5.37210938 -6.95554687 4.36921875 -6.96484375 3.3359375 C-6.97644531 2.56507812 -6.98804688 1.79421875 -7 1 C-4.50935112 0.31292445 -2.62113708 0 0 0 Z " fill="#F26D10" transform="translate(355,35)"/>
<path d="M0 0 C0.66 0.33 1.32 0.66 2 1 C0.64875335 4.77138991 -1.06970816 7.71424789 -3.4375 10.9375 C-6.01468142 14.5294466 -8.19697705 17.96971342 -10 22 C-10.97608217 19.07175348 -11.08226668 17.04386724 -11 14 C-12.32 14 -13.64 14 -15 14 C-15.99 14 -16.98 14 -18 14 C-17.02386184 11.07158553 -15.86294531 9.01217165 -14.1875 6.4375 C-13.68605469 5.65246094 -13.18460938 4.86742187 -12.66796875 4.05859375 C-9.09578216 -0.3501705 -5.46339135 -0.30352174 0 0 Z " fill="#F67114" transform="translate(185,25)"/>
<path d="M0 0 C3.3 0 6.6 0 10 0 C10.33 9.24 10.66 18.48 11 28 C15.95 28.33 20.9 28.66 26 29 C26 31.97 26 34.94 26 38 C13.13 37.505 13.13 37.505 0 37 C0 24.79 0 12.58 0 0 Z M1 1 C1 12.22 1 23.44 1 35 C8.59 35 16.18 35 24 35 C23.67 33.68 23.34 32.36 23 31 C18.71 30.67 14.42 30.34 10 30 C9.67 20.43 9.34 10.86 9 1 C6.36 1 3.72 1 1 1 Z " fill="#DC8341" transform="translate(131,26)"/>
<path d="M0 0 C2.6875 1.6875 2.6875 1.6875 4 4 C3.75 6.75 3.75 6.75 3 9 C2.01 8.67 1.02 8.34 0 8 C0 6.68 0 5.36 0 4 C-2.85523584 3.37088024 -5.11753224 2.89763199 -8 3 C-12.22548037 6.01820027 -14.80106908 10.47057807 -17.578125 14.80078125 C-18.7550959 16.62120603 -20.02301991 18.38245933 -21.3125 20.125 C-23.26985404 23.45975133 -23.69391569 26.17394608 -24 30 C-24.66 29.67 -25.32 29.34 -26 29 C-26.17835515 24.45194365 -25.99785435 21.1205746 -24 17 C-23.34 17 -22.68 17 -22 17 C-21.67 15.02 -21.34 13.04 -21 11 C-19.68 11 -18.36 11 -17 11 C-16.67 8.03 -16.34 5.06 -16 2 C-10.73553292 -0.21661772 -5.6364612 -0.78043309 0 0 Z " fill="#47A8AE" transform="translate(257,25)"/>
<path d="M0 0 C1 1 1 1 1.12025452 2.86659241 C1.11803391 3.68155685 1.11581329 4.4965213 1.11352539 5.33618164 C1.11344986 6.2570607 1.11337433 7.17793976 1.11329651 8.12672424 C1.10813522 9.12775681 1.10297394 10.12878937 1.09765625 11.16015625 C1.0962413 12.17975937 1.09482635 13.19936249 1.09336853 14.24986267 C1.08775097 17.52077107 1.0751955 20.79161213 1.0625 24.0625 C1.05748726 26.27408756 1.05292396 28.48567618 1.04882812 30.69726562 C1.03777584 36.13153357 1.02102063 41.56576197 1 47 C0.67 47 0.34 47 0 47 C-0.01458252 45.83952148 -0.02916504 44.67904297 -0.04418945 43.48339844 C-0.10219941 39.17432982 -0.17943207 34.8657823 -0.26245117 30.55712891 C-0.29568784 28.69295718 -0.32372373 26.82868513 -0.34643555 24.96435547 C-0.38000488 22.28309409 -0.43232109 19.60275104 -0.48828125 16.921875 C-0.49467117 16.08944275 -0.5010611 15.2570105 -0.50764465 14.39935303 C-0.59656535 10.89310437 -0.6806589 8.58532694 -2.38085938 5.46899414 C-4.66634056 3.39545067 -6.14417445 3.56301983 -9.1875 3.6875 C-10.6415625 3.73970703 -10.6415625 3.73970703 -12.125 3.79296875 C-15.78327557 4.05640436 -19.37316682 4.45255348 -23 5 C-23 5.33 -23 5.66 -23 6 C-29.04829486 6.89604368 -34.8894576 7.11269443 -41 7 C-41 6.67 -41 6.34 -41 6 C-36.9318151 5.13129909 -32.86084024 4.27754063 -28.78686523 3.43652344 C-27.40616065 3.14943194 -26.02624345 2.85852259 -24.6472168 2.56347656 C-16.48484442 0.82011479 -8.38937272 -0.87282207 0 0 Z " fill="#5ABFC4" transform="translate(289,7)"/>
<path d="M0 0 C2.97 0.33 5.94 0.66 9 1 C9 1.33 9 1.66 9 2 C10.093125 2.226875 11.18625 2.45375 12.3125 2.6875 C16 4 16 4 18.0625 6.3125 C19 9 19 9 18.4375 11.75 C17 14 17 14 14.875 14.8125 C14.25625 14.874375 13.6375 14.93625 13 15 C12.67 13.35 12.34 11.7 12 10 C11.34 10 10.68 10 10 10 C10 9.34 10 8.68 10 8 C8.7625 8.0825 7.525 8.165 6.25 8.25 C2.89493302 8.2737948 2.24552096 8.19641677 -0.5 6 C-0.995 5.34 -1.49 4.68 -2 4 C-1.34 2.68 -0.68 1.36 0 0 Z " fill="#F67011" transform="translate(311,40)"/>
<path d="M0 0 C2.48238838 2.20266433 3.59432058 4.0229845 4.640625 7.16015625 C4.90617187 7.95357422 5.17171875 8.74699219 5.4453125 9.56445312 C5.71085937 10.38880859 5.97640625 11.21316406 6.25 12.0625 C6.53101562 12.89072266 6.81203125 13.71894531 7.1015625 14.57226562 C9.12941826 20.74116348 9.12941826 20.74116348 8 23 C6.68 22.67 5.36 22.34 4 22 C4 19.36 4 16.72 4 14 C2.68 14.33 1.36 14.66 0 15 C-0.33 16.98 -0.66 18.96 -1 21 C-4.3 21 -7.6 21 -11 21 C-11.23509196 16.18061476 -10.45184478 12.53701494 -9 8 C-4.25 8.875 -4.25 8.875 -2 10 C-0.29264699 8.96431405 -0.29264699 8.96431405 1 7 C0.76522801 3.35458155 0.76522801 3.35458155 0 0 Z M-7 10 C-7.99 13.3 -8.98 16.6 -10 20 C-7.69 20 -5.38 20 -3 20 C-3.28127421 18.51882199 -3.57533732 17.04006751 -3.875 15.5625 C-4.11863281 14.32693359 -4.11863281 14.32693359 -4.3671875 13.06640625 C-4.57601562 12.38449219 -4.78484375 11.70257813 -5 11 C-5.66 10.67 -6.32 10.34 -7 10 Z " fill="#F67315" transform="translate(42,28)"/>
<path d="M0 0 C1.85064319 3.12296038 2.29356154 5.37940768 2 9 C1.67 9.33 1.34 9.66 1 10 C0.76472227 12.34987262 0.58613583 14.70556039 0.4375 17.0625 C0.35371094 18.35285156 0.26992188 19.64320312 0.18359375 20.97265625 C0.12300781 21.97167969 0.06242187 22.97070312 0 24 C-2.64 24 -5.28 24 -8 24 C-8.63391477 13.78692868 -8.63391477 13.78692868 -6.1875 10.75 C-5.465625 10.1725 -4.74375 9.595 -4 9 C-2.92863949 6.69855891 -1.92010283 4.3659787 -1 2 C-0.67 1.34 -0.34 0.68 0 0 Z " fill="#F67010" transform="translate(469,38)"/>
<path d="M0 0 C1.16273437 0.05542969 2.32546875 0.11085938 3.5234375 0.16796875 C7.10526902 0.91230402 8.34988631 2.01623957 10.625 4.8125 C6.75 3.9375 6.75 3.9375 5.625 2.8125 C4.06551458 2.65563751 2.49957332 2.56173361 0.93359375 2.49609375 C-0.34173218 2.43893188 -0.34173218 2.43893188 -1.64282227 2.38061523 C-2.73006592 2.33751221 -3.81730957 2.29440918 -4.9375 2.25 C-8.381875 2.105625 -11.82625 1.96125 -15.375 1.8125 C-15.375 13.0325 -15.375 24.2525 -15.375 35.8125 C-12.735 35.8125 -10.095 35.8125 -7.375 35.8125 C-7.375 32.1825 -7.375 28.5525 -7.375 24.8125 C-5.725 24.8125 -4.075 24.8125 -2.375 24.8125 C-3.695 25.1425 -5.015 25.4725 -6.375 25.8125 C-6.36339844 26.59496094 -6.35179688 27.37742187 -6.33984375 28.18359375 C-6.33082031 29.19550781 -6.32179688 30.20742188 -6.3125 31.25 C-6.30089844 32.25933594 -6.28929688 33.26867188 -6.27734375 34.30859375 C-6.375 36.8125 -6.375 36.8125 -7.375 37.8125 C-10.675 37.8125 -13.975 37.8125 -17.375 37.8125 C-17.375 25.6025 -17.375 13.3925 -17.375 0.8125 C-5.79753521 -0.34524648 -5.79753521 -0.34524648 0 0 Z " fill="#E18948" transform="translate(112.375,25.1875)"/>
<path d="M0 0 C3.3 0 6.6 0 10 0 C10.95855025 3.83420102 11.06955868 6.70362923 11 10.625 C10.95090743 16.49156194 11.2495832 22.18426979 12 28 C14.34533951 28.76956136 14.34533951 28.76956136 17 29 C18.77491491 27.90342257 18.77491491 27.90342257 20 26 C20.32608874 23.49340311 20.32608874 23.49340311 20.125 20.75 C19.99585523 16.32972661 20.22722429 12.34686338 21 8 C21.33 8 21.66 8 22 8 C22.0580476 11.27075883 22.09361165 14.54138524 22.125 17.8125 C22.14175781 18.74126953 22.15851563 19.67003906 22.17578125 20.62695312 C22.18222656 21.51962891 22.18867188 22.41230469 22.1953125 23.33203125 C22.20578613 24.15421143 22.21625977 24.9763916 22.22705078 25.82348633 C22 28 22 28 20 31 C17.8359375 31.51171875 17.8359375 31.51171875 15.375 31.6875 C14.55773437 31.75324219 13.74046875 31.81898437 12.8984375 31.88671875 C11.95871094 31.94279297 11.95871094 31.94279297 11 32 C11 31.34 11 30.68 11 30 C10.34 30 9.68 30 9 30 C7.82181773 23.77745217 8.08070842 17.86581791 8.4375 11.5625 C8.48970703 10.54478516 8.54191406 9.52707031 8.59570312 8.47851562 C8.72446093 5.98529631 8.8593802 3.49257367 9 1 C6.36 1 3.72 1 1 1 C1.33 11.23 1.66 21.46 2 32 C-0.97350376 27.53974435 -1.12243813 24.44420821 -0.87890625 19.140625 C-0.83056641 18.02558594 -0.78222656 16.91054688 -0.73242188 15.76171875 C-0.64831055 14.02341797 -0.64831055 14.02341797 -0.5625 12.25 C-0.51029297 11.07566406 -0.45808594 9.90132812 -0.40429688 8.69140625 C-0.27473776 5.79399336 -0.13977553 2.89693507 0 0 Z " fill="#DB8744" transform="translate(373,26)"/>
<path d="M0 0 C2.2147029 0.4156903 2.2147029 0.4156903 5.37109375 0.2578125 C7.99609375 0.3203125 7.99609375 0.3203125 9.99609375 2.3203125 C10.12109375 4.9453125 10.12109375 4.9453125 9.99609375 7.3203125 C8.01609375 7.6503125 6.03609375 7.9803125 3.99609375 8.3203125 C4.98609375 8.9803125 5.97609375 9.6403125 6.99609375 10.3203125 C5.01609375 10.3203125 3.03609375 10.3203125 0.99609375 10.3203125 C0.99609375 9.6603125 0.99609375 9.0003125 0.99609375 8.3203125 C0.33609375 8.3203125 -0.32390625 8.3203125 -1.00390625 8.3203125 C-1.33390625 7.0003125 -1.66390625 5.6803125 -2.00390625 4.3203125 C-2.99390625 4.3203125 -3.98390625 4.3203125 -5.00390625 4.3203125 C-5.33390625 4.9803125 -5.66390625 5.6403125 -6.00390625 6.3203125 C-6.66390625 5.9903125 -7.32390625 5.6603125 -8.00390625 5.3203125 C-8.33390625 5.9803125 -8.66390625 6.6403125 -9.00390625 7.3203125 C-9.00390625 6.0003125 -9.00390625 4.6803125 -9.00390625 3.3203125 C-9.66390625 2.9903125 -10.32390625 2.6603125 -11.00390625 2.3203125 C-7.16312747 -0.68029592 -4.76006123 -0.84583319 0 0 Z " fill="#25ACB4" transform="translate(218.00390625,84.6796875)"/>
<path d="M0 0 C2.875 -0.125 2.875 -0.125 6 0 C9.50270401 3.50270401 9.05580639 7.58011525 9.0625 12.3125 C9.04653226 13.8750573 9.02730408 15.43759968 9 17 C7.02 17.33 5.04 17.66 3 18 C3.33 16.35 3.66 14.7 4 13 C3.01 12.67 2.02 12.34 1 12 C0.67 9.69 0.34 7.38 0 5 C-0.66 5 -1.32 5 -2 5 C-2 4.01 -2 3.02 -2 2 C-1.34 2 -0.68 2 0 2 C0 1.34 0 0.68 0 0 Z " fill="#F57010" transform="translate(438,33)"/>
<path d="M0 0 C-0.89022196 5.74503707 -3.20009855 10.58639765 -7 15 C-10.875 15.625 -10.875 15.625 -14 15 C-13.67 14.01 -13.34 13.02 -13 12 C-12.77820215 10.10787263 -12.59385985 8.21115528 -12.4375 6.3125 C-12.35371094 5.31863281 -12.26992187 4.32476562 -12.18359375 3.30078125 C-12.12300781 2.54152344 -12.06242188 1.78226562 -12 1 C-10.68 1 -9.36 1 -8 1 C-7.34 1.66 -6.68 2.32 -6 3 C-5.3503125 2.2575 -5.3503125 2.2575 -4.6875 1.5 C-3 0 -3 0 0 0 Z " fill="#2AAEB8" transform="translate(150,85)"/>
<path d="M0 0 C0.88176231 3.02868792 1.11721035 5.70733284 1.09765625 8.85693359 C1.09270142 10.29895645 1.09270142 10.29895645 1.08764648 11.77011108 C1.07934814 12.8024588 1.0710498 13.83480652 1.0625 14.8984375 C1.05871338 15.96615387 1.05492676 17.03387024 1.05102539 18.13394165 C1.03468388 22.70001909 1.00657877 27.26600694 0.97949219 31.83203125 C0.9613899 35.16666245 0.9493051 38.50127902 0.9375 41.8359375 C0.92920166 42.86423676 0.92090332 43.89253601 0.91235352 44.95199585 C0.89596208 49.75373661 0.9828139 54.27949562 2 59 C0.03036499 57.82911682 0.03036499 57.82911682 -2 56 C-2.49447632 53.60264587 -2.49447632 53.60264587 -2.48583984 50.73413086 C-2.4919931 49.65969223 -2.49814636 48.5852536 -2.50448608 47.47825623 C-2.49011505 46.31883011 -2.47574402 45.15940399 -2.4609375 43.96484375 C-2.46002106 42.77524551 -2.45910461 41.58564728 -2.4581604 40.36000061 C-2.45211503 37.84404513 -2.43634129 35.32809716 -2.41162109 32.81225586 C-2.37511284 28.94943902 -2.37060162 25.08758068 -2.37109375 21.22460938 C-2.36126322 18.78384583 -2.34960651 16.34308882 -2.3359375 13.90234375 C-2.33371185 12.7408934 -2.33148621 11.57944305 -2.32919312 10.38279724 C-2.31643341 9.31151077 -2.30367371 8.2402243 -2.29052734 7.13647461 C-2.28290375 6.19066025 -2.27528015 5.24484589 -2.26742554 4.27037048 C-2 2 -2 2 0 0 Z " fill="#29949D" transform="translate(209,7)"/>
<path d="M0 0 C0.02685938 2.14576637 0.04633088 4.29162645 0.0625 6.4375 C0.07410156 7.63246094 0.08570313 8.82742187 0.09765625 10.05859375 C0 13 0 13 -1 14 C-4.4375 14.1875 -4.4375 14.1875 -8 14 C-8.66 13.34 -9.32 12.68 -10 12 C-9.6875 9.6875 -9.6875 9.6875 -9 7 C-8.814375 6.071875 -8.62875 5.14375 -8.4375 4.1875 C-8.293125 3.465625 -8.14875 2.74375 -8 2 C-7.34 2 -6.68 2 -6 2 C-6 1.34 -6 0.68 -6 0 C-3 -1 -3 -1 0 0 Z " fill="#47ACAF" transform="translate(250,37)"/>
<path d="M0 0 C3.96 0 7.92 0 12 0 C12.33 0.66 12.66 1.32 13 2 C10.03 1.67 7.06 1.34 4 1 C4.66 2.65 5.32 4.3 6 6 C3.69 6.66 1.38 7.32 -1 8 C-1.1546875 9.8871875 -1.1546875 9.8871875 -1.3125 11.8125 C-1.74140871 15.36187498 -2.35947287 16.5795168 -5 19 C-5.7269226 22.10839021 -5.7269226 22.10839021 -6 25 C-6.66 25 -7.32 25 -8 25 C-8.33 26.98 -8.66 28.96 -9 31 C-9.99 31 -10.98 31 -12 31 C-11.74605469 30.39414062 -11.49210937 29.78828125 -11.23046875 29.1640625 C-9.45408869 24.83954176 -7.8207474 20.5676042 -6.5625 16.0625 C-4.94888563 10.42381422 -2.51098254 5.29342266 0 0 Z " fill="#E58237" transform="translate(29,26)"/>
<path d="M0 0 C0.94875 0.165 1.8975 0.33 2.875 0.5 C7.58016078 1.18176819 12.25718665 1.07462469 17 1 C17.99 1 18.98 1 20 1 C20 2.98 20 4.96 20 7 C12.23308076 8.52791854 7.20046461 7.13590328 0 4 C0 2.68 0 1.36 0 0 Z " fill="#F67010" transform="translate(303,55)"/>
<path d="M0 0 C0.33 0 0.66 0 1 0 C1.00808685 0.65954681 1.01617371 1.31909363 1.02450562 1.99862671 C1.11035572 8.84401207 1.20985003 15.68910129 1.31738281 22.53417969 C1.3557398 25.09109537 1.39058062 27.64806625 1.421875 30.20507812 C1.46737976 33.87389909 1.5253981 37.54233773 1.5859375 41.2109375 C1.60326431 42.9344191 1.60326431 42.9344191 1.62094116 44.69271851 C1.64081085 45.7536673 1.66068054 46.81461609 1.68115234 47.90771484 C1.69447601 48.84481293 1.70779968 49.78191101 1.7215271 50.74740601 C1.79034466 53.20035151 1.79034466 53.20035151 4 55 C4.99 54.505 4.99 54.505 6 54 C6 54.99 6 55.98 6 57 C6.639375 56.9175 7.27875 56.835 7.9375 56.75 C12.40292757 57.1145247 16.00911228 59.05237724 20 61 C17 62 17 62 13 62 C13 61.34 13 60.68 13 60 C12.113125 59.855625 11.22625 59.71125 10.3125 59.5625 C7.52882354 59.08980022 4.76516243 58.56929815 2 58 C1.505 56.515 1.505 56.515 1 55 C0.34 54.34 -0.32 53.68 -1 53 C-1.24723816 50.97087097 -1.24723816 50.97087097 -1.24291992 48.44604492 C-1.24599655 47.50133835 -1.24907318 46.55663177 -1.25224304 45.58329773 C-1.24505753 44.55936417 -1.23787201 43.5354306 -1.23046875 42.48046875 C-1.23001053 41.42974686 -1.22955231 40.37902496 -1.2290802 39.29646301 C-1.22605467 37.06961949 -1.21815945 34.84277814 -1.20581055 32.6159668 C-1.18763085 29.2120002 -1.18530033 25.8083068 -1.18554688 22.40429688 C-1.18062868 20.24218515 -1.17479905 18.08007528 -1.16796875 15.91796875 C-1.16685593 14.90010788 -1.1657431 13.88224701 -1.16459656 12.83354187 C-1.15821671 11.87937881 -1.15183685 10.92521576 -1.14526367 9.94213867 C-1.14145187 9.1065593 -1.13764008 8.27097992 -1.13371277 7.41007996 C-0.99232411 4.86164736 -0.55741479 2.48789643 0 0 Z " fill="#6DBEC2" transform="translate(206,10)"/>
<path d="M0 0 C0.33 0 0.66 0 1 0 C1.02505615 0.9286084 1.0501123 1.8572168 1.07592773 2.81396484 C1.17097932 6.25435804 1.27021707 9.69457713 1.37231445 13.13476562 C1.41566589 14.62462641 1.45734084 16.11453695 1.49731445 17.60449219 C1.55501215 19.74429327 1.61870755 21.88384385 1.68359375 24.0234375 C1.72025146 25.31169434 1.75690918 26.59995117 1.79467773 27.92724609 C1.79530675 30.9127682 1.79530675 30.9127682 3 33 C10.92 33 18.84 33 27 33 C23.22605451 36.77394549 17.13350802 36.56251658 12 37 C7.96305165 36.8882351 4.00191732 36.53358898 0 36 C-1.03685261 31.82116978 -1.0379136 28.02366716 -0.87890625 23.73046875 C-0.85529526 23.04946609 -0.83168427 22.36846344 -0.80735779 21.66682434 C-0.73121614 19.50681088 -0.64698181 17.34720172 -0.5625 15.1875 C-0.50922961 13.71681619 -0.45648961 12.24611307 -0.40429688 10.77539062 C-0.27566911 7.18334976 -0.13978528 3.59162595 0 0 Z " fill="#D48A4E" transform="translate(413,27)"/>
<path d="M0 0 C0.66 0.66 1.32 1.32 2 2 C2.61875 1.649375 3.2375 1.29875 3.875 0.9375 C4.57625 0.628125 5.2775 0.31875 6 0 C6.66 0.33 7.32 0.66 8 1 C7.67 1.66 7.34 2.32 7 3 C4.9375 3.625 4.9375 3.625 3 4 C2.67 6.31 2.34 8.62 2 11 C1.01 11 0.02 11 -1 11 C-0.67 9.02 -0.34 7.04 0 5 C-0.99 4.67 -1.98 4.34 -3 4 C-3 4.66 -3 5.32 -3 6 C-5.97 5.505 -5.97 5.505 -9 5 C-8.67 6.32 -8.34 7.64 -8 9 C-9.32 8.34 -10.64 7.68 -12 7 C-10.55172414 2.4137931 -10.55172414 2.4137931 -8.25 0.6875 C-5.37025545 -0.19242195 -2.9939249 -0.2603413 0 0 Z " fill="#43ADB0" transform="translate(260,82)"/>
<path d="M0 0 C2.28280621 0.00360064 4.51691056 0.10205229 6.7890625 0.31640625 C6.4590625 1.30640625 6.1290625 2.29640625 5.7890625 3.31640625 C5.4590625 2.65640625 5.1290625 1.99640625 4.7890625 1.31640625 C2.4790625 1.97640625 0.1690625 2.63640625 -2.2109375 3.31640625 C-2.5409375 4.63640625 -2.8709375 5.95640625 -3.2109375 7.31640625 C-0.27373242 8.83940148 2.7059274 10.11740927 5.7890625 11.31640625 C6.1190625 10.65640625 6.4490625 9.99640625 6.7890625 9.31640625 C6.47517998 12.35060392 5.93105886 13.19807595 3.5390625 15.19140625 C0.7890625 16.31640625 0.7890625 16.31640625 -1.8984375 15.69140625 C-4.2109375 14.31640625 -4.2109375 14.31640625 -6.2109375 11.31640625 C-5.2209375 10.65640625 -4.2309375 9.99640625 -3.2109375 9.31640625 C-3.6028125 8.75953125 -3.9946875 8.20265625 -4.3984375 7.62890625 C-5.2109375 5.31640625 -5.2109375 5.31640625 -4.3984375 2.56640625 C-2.2109375 0.31640625 -2.2109375 0.31640625 0 0 Z " fill="#3AAEB6" transform="translate(160.2109375,81.68359375)"/>
<path d="M0 0 C1.32 0 2.64 0 4 0 C3.34 4.62 2.68 9.24 2 14 C0.02 14 -1.96 14 -4 14 C-6.15028304 14.94978897 -6.15028304 14.94978897 -8 16 C-8.99 16 -9.98 16 -11 16 C-11 15.34 -11 14.68 -11 14 C-9.02 13.67 -7.04 13.34 -5 13 C-4.67 10.69 -4.34 8.38 -4 6 C-3.34 6.66 -2.68 7.32 -2 8 C-1.34 5.36 -0.68 2.72 0 0 Z " fill="#1BAAB7" transform="translate(133,82)"/>
<path d="M0 0 C5.61 0.66 11.22 1.32 17 2 C17 2.33 17 2.66 17 3 C15.2709226 3.02725341 13.54171824 3.04650987 11.8125 3.0625 C10.36810547 3.07990234 10.36810547 3.07990234 8.89453125 3.09765625 C6.14423487 3.00486622 3.67520409 2.62111685 1 2 C1 3.32 1 4.64 1 6 C7.87581298 8.1591338 13.78528371 9.35482211 21 9 C21 8.34 21 7.68 21 7 C22.65 7 24.3 7 26 7 C22.27026756 10.89926573 22.27026756 10.89926573 19.16821289 11.14526367 C16.79949492 11.16975948 14.43135453 11.18565653 12.0625 11.1875 C10.8259668 11.20586914 10.8259668 11.20586914 9.56445312 11.22460938 C8.37432617 11.22750977 8.37432617 11.22750977 7.16015625 11.23046875 C6.43449463 11.23457764 5.70883301 11.23868652 4.96118164 11.24291992 C3 11 3 11 0 9 C-1.35 2.7 -1.35 2.7 0 0 Z " fill="#E8843A" transform="translate(302,53)"/>
<path d="M0 0 C1.60495567 0.11442461 3.20898119 0.24194694 4.8125 0.375 C5.70582031 0.44460937 6.59914062 0.51421875 7.51953125 0.5859375 C10 1 10 1 13 3 C13.1875 5.625 13.1875 5.625 13 8 C12.01 8 11.02 8 10 8 C9.67 8.99 9.34 9.98 9 11 C7 9.625 7 9.625 5 8 C5 7.34 5 6.68 5 6 C4.01 5.67 3.02 5.34 2 5 C0.8125 2.4375 0.8125 2.4375 0 0 Z " fill="#F2751B" transform="translate(150,25)"/>
<path d="M0 0 C-4.97361654 1.75734451 -9.7415998 3.32584613 -15 4 C-15.33 7.96 -15.66 11.92 -16 16 C-22.93359375 15.4140625 -22.93359375 15.4140625 -25 15 C-26.20272819 12.59454362 -26.10071472 11.05003047 -26.0625 8.375 C-26.05347656 7.55773438 -26.04445312 6.74046875 -26.03515625 5.8984375 C-26.02355469 5.27195312 -26.01195312 4.64546875 -26 4 C-25.67 4 -25.34 4 -25 4 C-24.67 6.97 -24.34 9.94 -24 13 C-22.02 13 -20.04 13 -18 13 C-18.03480469 12.30132812 -18.06960937 11.60265625 -18.10546875 10.8828125 C-18.13253906 9.97273438 -18.15960938 9.06265625 -18.1875 8.125 C-18.22230469 7.22007813 -18.25710937 6.31515625 -18.29296875 5.3828125 C-18.19628906 4.59648438 -18.09960938 3.81015625 -18 3 C-14.62902238 0.75268159 -12.41421878 0.40345374 -8.4375 -0.1875 C-6.70306641 -0.45626953 -6.70306641 -0.45626953 -4.93359375 -0.73046875 C-2 -1 -2 -1 0 0 Z " fill="#DB833F" transform="translate(85,48)"/>
<path d="M0 0 C1.87603978 2.81405967 2.49092802 4.40924666 3.1875 7.625 C3.45626953 8.81996094 3.45626953 8.81996094 3.73046875 10.0390625 C3.81941406 10.68617187 3.90835938 11.33328125 4 12 C3 13 3 13 0.93359375 13.09765625 C0.10988281 13.08605469 -0.71382812 13.07445313 -1.5625 13.0625 C-2.38878906 13.05347656 -3.21507812 13.04445313 -4.06640625 13.03515625 C-4.70449219 13.02355469 -5.34257813 13.01195313 -6 13 C-7.20628008 10.66785852 -8.1654738 8.50357861 -9 6 C-6.125 5.375 -6.125 5.375 -3 5 C-2.34 5.66 -1.68 6.32 -1 7 C-0.67 4.69 -0.34 2.38 0 0 Z " fill="#EC7B29" transform="translate(51,51)"/>
<path d="M0 0 C1.1446875 -0.01417969 2.289375 -0.02835937 3.46875 -0.04296875 C6.5 0.1875 6.5 0.1875 9.5 2.1875 C9.17 3.1775 8.84 4.1675 8.5 5.1875 C8.17 4.1975 7.84 3.2075 7.5 2.1875 C2.88 2.5175 -1.74 2.8475 -6.5 3.1875 C-6.83 4.1775 -7.16 5.1675 -7.5 6.1875 C-6.51 6.5175 -5.52 6.8475 -4.5 7.1875 C-6.12339805 8.89634005 -7.79319053 10.56196717 -9.5 12.1875 C-10.16 12.1875 -10.82 12.1875 -11.5 12.1875 C-11.5 10.5375 -11.5 8.8875 -11.5 7.1875 C-12.16 6.8575 -12.82 6.5275 -13.5 6.1875 C-9.35528212 0.61356905 -6.82966919 0.03845534 0 0 Z " fill="#39AFB7" transform="translate(404.5,84.8125)"/>
<path d="M0 0 C2.50037734 2.17424117 3.43628586 3.73045798 4 7 C3.01 6.67 2.02 6.34 1 6 C0.67 4.02 0.34 2.04 0 0 Z M-9 2 C-7.35 3.32 -5.7 4.64 -4 6 C-3.67 5.34 -3.34 4.68 -3 4 C-2.01 4 -1.02 4 0 4 C-0.01160156 4.62648437 -0.02320313 5.25296875 -0.03515625 5.8984375 C-0.04417969 6.71570312 -0.05320313 7.53296875 -0.0625 8.375 C-0.07410156 9.18710937 -0.08570313 9.99921875 -0.09765625 10.8359375 C-0.14466334 13.04937142 -0.14466334 13.04937142 1 15 C0.01 16.485 0.01 16.485 -1 18 C-1.33 17.01 -1.66 16.02 -2 15 C-2.66 14.67 -3.32 14.34 -4 14 C-5.03515625 12.29296875 -5.03515625 12.29296875 -6.0625 10.1875 C-6.40410156 9.50042969 -6.74570313 8.81335937 -7.09765625 8.10546875 C-7.96535994 6.08082681 -8.53169072 4.14842919 -9 2 Z " fill="#E77E31" transform="translate(163,29)"/>
<path d="M0 0 C1.32 0 2.64 0 4 0 C4 0.99 4 1.98 4 3 C6.64 3 9.28 3 12 3 C12 2.34 12 1.68 12 1 C13.65 0.67 15.3 0.34 17 0 C17.33 1.32 17.66 2.64 18 4 C19.65 4 21.3 4 23 4 C22.01 4.495 22.01 4.495 21 5 C20.67 5.66 20.34 6.32 20 7 C15.05 6.67 10.1 6.34 5 6 C5 5.34 5 4.68 5 4 C4.01 4 3.02 4 2 4 C1.34 2.68 0.68 1.36 0 0 Z " fill="#E47E31" transform="translate(375,58)"/>
<path d="M0 0 C2.375 -0.125 2.375 -0.125 5 0 C7.5654594 2.5654594 7.54046087 4.47686668 8 8 C8.66 6.35 9.32 4.7 10 3 C16.4 1.76923077 16.4 1.76923077 19.4375 2.9375 C19.953125 3.288125 20.46875 3.63875 21 4 C20.67 4.66 20.34 5.32 20 6 C18.8553125 5.7525 18.8553125 5.7525 17.6875 5.5 C14.96403764 4.90854604 14.96403764 4.90854604 12 5 C11.87625 6.051875 11.7525 7.10375 11.625 8.1875 C11.08859218 11.45958771 10.36119965 14.00536076 9 17 C8.34 16.67 7.68 16.34 7 16 C6.3671875 13.05859375 6.3671875 13.05859375 5.875 9.4375 C5.70742187 8.23996094 5.53984375 7.04242188 5.3671875 5.80859375 C5.24601562 4.88175781 5.12484375 3.95492187 5 3 C2 1.66666667 2 1.66666667 -1 3 C-0.67 2.01 -0.34 1.02 0 0 Z " fill="#41AFB4" transform="translate(96,83)"/>
<path d="M0 0 C-0.875 7.75 -0.875 7.75 -2 10 C-4.31 10 -6.62 10 -9 10 C-9.33 8.35 -9.66 6.7 -10 5 C-9.34 5 -8.68 5 -8 5 C-8 4.34 -8 3.68 -8 3 C-7.01 3 -6.02 3 -5 3 C-5 2.34 -5 1.68 -5 1 C-3 0 -3 0 0 0 Z " fill="#15ACB7" transform="translate(293,85)"/>
<path d="M0 0 C2.38708523 1.45065497 3.99372906 2.99372906 6 5 C6 5.66 6 6.32 6 7 C5.34 7 4.68 7 4 7 C4 6.34 4 5.68 4 5 C1.36 5 -1.28 5 -4 5 C-3.67 6.65 -3.34 8.3 -3 10 C-8.57142857 4.85714286 -8.57142857 4.85714286 -9 1 C-5.61670875 -0.12776375 -3.54843366 -0.41746278 0 0 Z " fill="#E37E34" transform="translate(455,25)"/>
<path d="M0 0 C2.64 0 5.28 0 8 0 C6.33633121 3.60461572 4.47516927 6.88835863 2 10 C-0.75 10.375 -0.75 10.375 -3 10 C-2.49287967 6.28111761 -1.88391785 3.26545761 0 0 Z " fill="#31AEB7" transform="translate(231,86)"/>
<path d="M0 0 C0.33 0.66 0.66 1.32 1 2 C-0.3921875 2.2475 -0.3921875 2.2475 -1.8125 2.5 C-5.31422519 4.14787068 -5.60108771 4.53402009 -6.9375 7.9375 C-7.99874202 11.04003815 -8.08208468 11.75374596 -7 15 C-8.65 15 -10.3 15 -12 15 C-11.68554487 12.66404762 -11.3496418 10.33094534 -11 8 C-10.896875 7.278125 -10.79375 6.55625 -10.6875 5.8125 C-8.64828141 0.43637826 -5.39800463 -0.49072769 0 0 Z " fill="#35B0B6" transform="translate(128,85)"/>
<path d="M0 0 C1.4540625 0.0309375 1.4540625 0.0309375 2.9375 0.0625 C2.6075 1.3825 2.2775 2.7025 1.9375 4.0625 C2.5975 4.3925 3.2575 4.7225 3.9375 5.0625 C3.9375 6.7125 3.9375 8.3625 3.9375 10.0625 C0.53437262 9.00374926 -2.07603231 8.05347846 -5.0625 6.0625 C-3.98897059 0.08140756 -3.98897059 0.08140756 0 0 Z " fill="#14ACB7" transform="translate(162.0625,82.9375)"/>
<path d="M0 0 C1.93166016 0.01740234 1.93166016 0.01740234 3.90234375 0.03515625 C5.19269531 0.04417969 6.48304688 0.05320312 7.8125 0.0625 C8.81152344 0.07410156 9.81054688 0.08570312 10.83984375 0.09765625 C7.08984375 3.97265625 7.08984375 3.97265625 4.83984375 5.09765625 C4.50984375 6.08765625 4.17984375 7.07765625 3.83984375 8.09765625 C2.84984375 8.09765625 1.85984375 8.09765625 0.83984375 8.09765625 C0.83984375 6.44765625 0.83984375 4.79765625 0.83984375 3.09765625 C-0.15015625 3.09765625 -1.14015625 3.09765625 -2.16015625 3.09765625 C-2.16015625 4.08765625 -2.16015625 5.07765625 -2.16015625 6.09765625 C-3.15015625 6.09765625 -4.14015625 6.09765625 -5.16015625 6.09765625 C-4.08838165 0.12634059 -4.08838165 0.12634059 0 0 Z " fill="#17ABB7" transform="translate(174.16015625,86.90234375)"/>
<path d="M0 0 C2.125 0.375 2.125 0.375 4 1 C4.33 2.32 4.66 3.64 5 5 C4.34 5 3.68 5 3 5 C3 6.98 3 8.96 3 11 C1.35 11.33 -0.3 11.66 -2 12 C-2.05395478 10.37536158 -2.09277195 8.75021459 -2.125 7.125 C-2.14820313 6.22007813 -2.17140625 5.31515625 -2.1953125 4.3828125 C-2 2 -2 2 0 0 Z " fill="#1AABB7" transform="translate(264,84)"/>
<path d="M0 0 C3.3125 0.75 3.3125 0.75 6 2 C6 3.32 6 4.64 6 6 C4.35 6.33 2.7 6.66 1 7 C1.99 7.66 2.98 8.32 4 9 C2.02 9 0.04 9 -2 9 C-2 8.34 -2 7.68 -2 7 C-2.66 7 -3.32 7 -4 7 C-4.33 6.01 -4.66 5.02 -5 4 C-2.875 1.875 -2.875 1.875 0 0 Z " fill="#16ABB8" transform="translate(221,86)"/>
<path d="M0 0 C0.66 0 1.32 0 2 0 C2 1.32 2 2.64 2 4 C2.66 3.67 3.32 3.34 4 3 C4 2.34 4 1.68 4 1 C5.32 1.33 6.64 1.66 8 2 C7.50769231 7.53846154 7.50769231 7.53846154 4.9375 9.875 C3.9784375 10.431875 3.9784375 10.431875 3 11 C3 10.34 3 9.68 3 9 C1.68 9 0.36 9 -1 9 C-1.125 2.25 -1.125 2.25 0 0 Z " fill="#16ADBA" transform="translate(189,87)"/>
<path d="M0 0 C8.19033227 0.41005616 16.04043449 0.9053775 24 3 C24 3.33 24 3.66 24 4 C16.47280398 4.25515919 9.41148455 3.28297723 2 2 C1.67 4.31 1.34 6.62 1 9 C0.34 9 -0.32 9 -1 9 C-0.67 6.03 -0.34 3.06 0 0 Z " fill="#3DABB2" transform="translate(210,7)"/>
<path d="M0 0 C5.75 0.875 5.75 0.875 8 2 C7.67 3.32 7.34 4.64 7 6 C6.01 5.67 5.02 5.34 4 5 C4 5.99 4 6.98 4 8 C4.66 8.33 5.32 8.66 6 9 C5.67 9.66 5.34 10.32 5 11 C4.34 11 3.68 11 3 11 C3 10.34 3 9.68 3 9 C2.34 9 1.68 9 1 9 C1 7.68 1 6.36 1 5 C0.34 5 -0.32 5 -1 5 C-0.67 3.35 -0.34 1.7 0 0 Z " fill="#F76F0F" transform="translate(458,37)"/>
<path d="M0 0 C2.375 0.1875 2.375 0.1875 5 1 C7.18622172 4.71657692 7.50191245 8.7662558 8 13 C4.7 13 1.4 13 -2 13 C-2.23509196 8.18061476 -1.45184478 4.53701494 0 0 Z M2 2 C1.01 5.3 0.02 8.6 -1 12 C1.31 12 3.62 12 6 12 C5.71872579 10.51882199 5.42466268 9.04006751 5.125 7.5625 C4.88136719 6.32693359 4.88136719 6.32693359 4.6328125 5.06640625 C4.42398438 4.38449219 4.21515625 3.70257813 4 3 C3.34 2.67 2.68 2.34 2 2 Z " fill="#DC7F39" transform="translate(33,36)"/>
<path d="M0 0 C0 2.31 0 4.62 0 7 C1.32 7.33 2.64 7.66 4 8 C2.35 8 0.7 8 -1 8 C-1 7.34 -1 6.68 -1 6 C-2.98 6.33 -4.96 6.66 -7 7 C-7.33 4.69 -7.66 2.38 -8 0 C-5.13822943 -1.43088528 -3.06624227 -0.59991697 0 0 Z " fill="#38B1B9" transform="translate(188,89)"/>
<path d="M0 0 C0 0.66 0 1.32 0 2 C1.65 2 3.3 2 5 2 C3.67741528 2.68774405 2.34013497 3.34711373 1 4 C-0.546875 4.804375 -0.546875 4.804375 -2.125 5.625 C-6.63792274 7.58158306 -11.17132786 7.26232223 -16 7 C-16 6.67 -16 6.34 -16 6 C-13.03 6 -10.06 6 -7 6 C-7.33 5.01 -7.66 4.02 -8 3 C-5.53387212 -0.1151089 -3.89156016 -0.31553191 0 0 Z " fill="#30ADB8" transform="translate(262,72)"/>
<path d="M0 0 C0 4.29 0 8.58 0 13 C-1.32 13 -2.64 13 -4 13 C-4 12.34 -4 11.68 -4 11 C-3.34 11 -2.68 11 -2 11 C-2.33 9.02 -2.66 7.04 -3 5 C-3.99 5 -4.98 5 -6 5 C-6 3.35 -6 1.7 -6 0 C-3 -1 -3 -1 0 0 Z " fill="#409FA3" transform="translate(250,37)"/>
<path d="M0 0 C1.4606285 2.64738916 2 3.89448334 2 7 C2.556875 6.505 3.11375 6.01 3.6875 5.5 C6.38162983 3.75245633 7.85375007 3.73781251 11 4 C11 5.32 11 6.64 11 8 C5.75313808 10.14644351 5.75313808 10.14644351 2.75 9.5625 C0.08038484 7.17891503 -0.24255186 4.40851662 -1 1 C-0.67 0.67 -0.34 0.34 0 0 Z " fill="#3DAFB7" transform="translate(401,88)"/>
<path d="M0 0 C0.66 0 1.32 0 2 0 C2.28875 1.134375 2.5775 2.26875 2.875 3.4375 C3.24625 4.613125 3.6175 5.78875 4 7 C4.66 7.33 5.32 7.66 6 8 C5.67 9.65 5.34 11.3 5 13 C2.69 13.66 0.38 14.32 -2 15 C-1.67 13.68 -1.34 12.36 -1 11 C-0.34 11 0.32 11 1 11 C1.08912219 7.16774573 0.87867729 3.73437848 0 0 Z " fill="#D57F39" transform="translate(436,38)"/>
<path d="M0 0 C5.50555231 -0.36703682 5.50555231 -0.36703682 7.65234375 1.2265625 C9.30912433 3.4067897 9.51773118 4.85120821 9.75 7.5625 C9.82734375 8.34753906 9.9046875 9.13257813 9.984375 9.94140625 C10 12 10 12 9 14 C7.68 14 6.36 14 5 14 C5 13.34 5 12.68 5 12 C3.35 12 1.7 12 0 12 C0 11.67 0 11.34 0 11 C2.31 10.34 4.62 9.68 7 9 C7.33 7.35 7.66 5.7 8 4 C5.36 3.34 2.72 2.68 0 2 C0 1.34 0 0.68 0 0 Z M10 10 C12 11 12 11 12 11 Z " fill="#E07D33" transform="translate(70,31)"/>
<path d="M0 0 C0.79921875 0.11085938 1.5984375 0.22171875 2.421875 0.3359375 C3.02515625 0.43132813 3.6284375 0.52671875 4.25 0.625 C3.59 2.275 2.93 3.925 2.25 5.625 C1.92 4.635 1.59 3.645 1.25 2.625 C-2.12400578 2.20774322 -2.12400578 2.20774322 -5.75 2.625 C-7.6124438 5.03358714 -7.6124438 5.03358714 -8.75 7.625 C-9.41 7.625 -10.07 7.625 -10.75 7.625 C-10.75 8.615 -10.75 9.605 -10.75 10.625 C-11.74 10.955 -12.73 11.285 -13.75 11.625 C-10.44258325 2.72041643 -10.44258325 2.72041643 -6.9453125 0.45703125 C-4.33912288 -0.53072389 -2.7403275 -0.40298934 0 0 Z " fill="#DD8848" transform="translate(479.75,25.375)"/>
<path d="M0 0 C0.99 0 1.98 0 3 0 C3.33 1.32 3.66 2.64 4 4 C4.66 4 5.32 4 6 4 C6 4.66 6 5.32 6 6 C6.99 5.67 7.98 5.34 9 5 C8.67 4.34 8.34 3.68 8 3 C9.65 3.33 11.3 3.66 13 4 C13.33 4.99 13.66 5.98 14 7 C10.88228073 8.60339848 9.60988311 9.18974141 6.1875 8.125 C5.465625 7.75375 4.74375 7.3825 4 7 C4 6.34 4 5.68 4 5 C3.01 5.33 2.02 5.66 1 6 C0.67 4.02 0.34 2.04 0 0 Z M1 1 C1 1.99 1 2.98 1 4 C1.66 3.67 2.32 3.34 3 3 C2.34 2.34 1.68 1.68 1 1 Z " fill="#43ADB2" transform="translate(213,89)"/>
<path d="M0 0 C0.66 0.66 1.32 1.32 2 2 C1.65066406 2.49628906 1.30132812 2.99257813 0.94140625 3.50390625 C-2.14110751 8.10584605 -3.65389941 11.46239061 -4 17 C-4.66 16.67 -5.32 16.34 -6 16 C-6.17835515 11.45194365 -5.99785435 8.1205746 -4 4 C-3.34 4 -2.68 4 -2 4 C-1.34 2.68 -0.68 1.36 0 0 Z " fill="#429CA2" transform="translate(237,38)"/>
<path d="M0 0 C0.66 0 1.32 0 2 0 C2 4.62 2 9.24 2 14 C2.99 14.33 3.98 14.66 5 15 C4.01 15.66 3.02 16.32 2 17 C1.63637182 19.20725073 1.63637182 19.20725073 1.8125 21.625 C1.83957031 22.44226563 1.86664063 23.25953125 1.89453125 24.1015625 C1.92933594 24.72804688 1.96414063 25.35453125 2 26 C1.34 26.33 0.68 26.66 0 27 C0 18.09 0 9.18 0 0 Z " fill="#EA731E" transform="translate(395,27)"/>
<path d="M0 0 C0.33 0.66 0.66 1.32 1 2 C1.99 2 2.98 2 4 2 C6 5 6 5 6 8 C4.5199159 7.88637738 3.04089926 7.75877092 1.5625 7.625 C0.73878906 7.55539063 -0.08492188 7.48578125 -0.93359375 7.4140625 C-1.61550781 7.27742188 -2.29742187 7.14078125 -3 7 C-3.33 6.34 -3.66 5.68 -4 5 C-2.68 3.35 -1.36 1.7 0 0 Z " fill="#17ABB6" transform="translate(318,87)"/>
<path d="M0 0 C0.66 0.33 1.32 0.66 2 1 C2.0816082 3.37570543 2.14077222 5.74855841 2.1875 8.125 C2.22520508 9.12273438 2.22520508 9.12273438 2.26367188 10.140625 C2.33320714 14.86902292 1.40278375 17.95121479 -1 22 C-2.50559539 20.03617993 -3.89131683 18.21736634 -5 16 C-3.02 15.67 -1.04 15.34 1 15 C0.67 10.05 0.34 5.1 0 0 Z " fill="#E78034" transform="translate(446,35)"/>
<path d="M0 0 C0.33 1.65 0.66 3.3 1 5 C-0.65 5.66 -2.3 6.32 -4 7 C-7 3.375 -7 3.375 -7 0 C-3.86650268 -1.04449911 -3.01031744 -0.93423645 0 0 Z " fill="#F67010" transform="translate(458,30)"/>
<path d="M0 0 C2.97 0 5.94 0 9 0 C8.67 0.66 8.34 1.32 8 2 C7.2575 1.9175 6.515 1.835 5.75 1.75 C2.86333117 1.75507314 2.86333117 1.75507314 0.6875 3.875 C-1.20729405 5.80878084 -1.20729405 5.80878084 -1 8 C0.65 8.33 2.3 8.66 4 9 C3.67 9.66 3.34 10.32 3 11 C0.03 10.505 0.03 10.505 -3 10 C-3.33 8.02 -3.66 6.04 -4 4 C-3.34 4 -2.68 4 -2 4 C-1.34 2.68 -0.68 1.36 0 0 Z " fill="#3EB2B8" transform="translate(384,86)"/>
<path d="M0 0 C1.21236328 0.04060547 1.21236328 0.04060547 2.44921875 0.08203125 C3.06410156 0.11683594 3.67898438 0.15164062 4.3125 0.1875 C3.9825 1.1775 3.6525 2.1675 3.3125 3.1875 C2.343125 3.166875 1.37375 3.14625 0.375 3.125 C-2.56215895 2.83131501 -2.56215895 2.83131501 -3.6875 4.1875 C-4.05192233 5.84764616 -4.38722883 7.51456064 -4.6875 9.1875 C-5.3475 9.1875 -6.0075 9.1875 -6.6875 9.1875 C-7.375 6.375 -7.375 6.375 -7.6875 3.1875 C-5.48638877 0.0596051 -3.70063338 -0.1608971 0 0 Z " fill="#1EAAB3" transform="translate(334.6875,86.8125)"/>
<path d="M0 0 C2.66666667 0.66666667 5.33333333 1.33333333 8 2 C8.33 3.65 8.66 5.3 9 7 C8.01 7.33 7.02 7.66 6 8 C5.87625 7.360625 5.7525 6.72125 5.625 6.0625 C5.41875 5.381875 5.2125 4.70125 5 4 C4.34 3.67 3.68 3.34 3 3 C2.67 3.99 2.34 4.98 2 6 C1.34 5.67 0.68 5.34 0 5 C0 6.98 0 8.96 0 11 C-0.99 10.67 -1.98 10.34 -3 10 C-2.34 10 -1.68 10 -1 10 C-1 8.02 -1 6.04 -1 4 C-0.34 4 0.32 4 1 4 C0.67 2.68 0.34 1.36 0 0 Z " fill="#46B6BB" transform="translate(268,85)"/>
<path d="M0 0 C0.66 0.33 1.32 0.66 2 1 C0.68775452 4.93673644 -0.91910327 7.22719294 -4 10 C-4 8.68 -4 7.36 -4 6 C-3.34 5.67 -2.68 5.34 -2 5 C-1.67 4.01 -1.34 3.02 -1 2 C-4.3 2.66 -7.6 3.32 -11 4 C-11 3.34 -11 2.68 -11 2 C-7.36178302 -0.32845886 -4.23971058 -0.23553948 0 0 Z " fill="#DE8643" transform="translate(185,25)"/>
<path d="M0 0 C2.76223278 2.76223278 2.57856291 5.20706617 3 9 C3.66 9 4.32 9 5 9 C4.67 10.65 4.34 12.3 4 14 C2.35 13.67 0.7 13.34 -1 13 C-0.34 12.67 0.32 12.34 1 12 C0.649375 11.05125 0.29875 10.1025 -0.0625 9.125 C-1 6 -1 6 0 4 C0 2.68 0 1.36 0 0 Z " fill="#2DB1BA" transform="translate(323,83)"/>
<path d="M0 0 C1.2065625 0.0309375 1.2065625 0.0309375 2.4375 0.0625 C0.09903846 5.72403846 0.09903846 5.72403846 -3.25 7.4375 C-4.013125 7.64375 -4.77625 7.85 -5.5625 8.0625 C-3.38616071 0.08258929 -3.38616071 0.08258929 0 0 Z " fill="#33AAAF" transform="translate(238.5625,91.9375)"/>
<path d="M0 0 C5.61 0.66 11.22 1.32 17 2 C17 2.33 17 2.66 17 3 C15.2709226 3.02725341 13.54171824 3.04650987 11.8125 3.0625 C10.36810547 3.07990234 10.36810547 3.07990234 8.89453125 3.09765625 C6.14423487 3.00486622 3.67520409 2.62111685 1 2 C1.34444881 4.47266765 1.34444881 4.47266765 2 7 C2.66 7.33 3.32 7.66 4 8 C3.67 8.99 3.34 9.98 3 11 C0 9 0 9 -0.75 5.5 C-1 2 -1 2 0 0 Z " fill="#CD8F57" transform="translate(302,53)"/>
<path d="M0 0 C0.33 0.99 0.66 1.98 1 3 C1.66 3 2.32 3 3 3 C3 3.99 3 4.98 3 6 C3.66 6.33 4.32 6.66 5 7 C5.33 6.01 5.66 5.02 6 4 C6 5.32 6 6.64 6 8 C4.63875 7.938125 4.63875 7.938125 3.25 7.875 C0.04873748 7.99812548 -1.27989692 8.49925347 -4 10 C-4.99 10 -5.98 10 -7 10 C-7 9.34 -7 8.68 -7 8 C-5.02 7.67 -3.04 7.34 -1 7 C-0.67 4.69 -0.34 2.38 0 0 Z " fill="#3EB4BA" transform="translate(129,88)"/>
<path d="M0 0 C0.125 2.375 0.125 2.375 0 5 C-0.66 5.66 -1.32 6.32 -2 7 C-2.99 7 -3.98 7 -5 7 C-5 6.34 -5 5.68 -5 5 C-5.66 5 -6.32 5 -7 5 C-5.22678182 1.07358831 -4.52021524 0 0 0 Z " fill="#15AAB4" transform="translate(366,88)"/>
<path d="M0 0 C0.99 0 1.98 0 3 0 C4.25664978 2.90600261 5 4.79604584 5 8 C2.69 8 0.38 8 -2 8 C-1.34 7.01 -0.68 6.02 0 5 C-0.33 4.01 -0.66 3.02 -1 2 C-0.67 1.34 -0.34 0.68 0 0 Z " fill="#16ABBA" transform="translate(98,87)"/>
<path d="M0 0 C0 1.32 0 2.64 0 4 C-0.99 4 -1.98 4 -3 4 C-3 4.66 -3 5.32 -3 6 C-3.99 6 -4.98 6 -6 6 C-6 5.34 -6 4.68 -6 4 C-8.97 3.505 -8.97 3.505 -12 3 C-12 2.67 -12 2.34 -12 2 C-10.02 2 -8.04 2 -6 2 C-6 1.34 -6 0.68 -6 0 C-3.50907189 -1.24546405 -2.58919267 -0.7767578 0 0 Z " fill="#EB7420" transform="translate(436,54)"/>
<path d="M0 0 C2.36810318 0.94724127 3.75207953 1.65291134 5.25 3.75 C6.23298168 6.69894504 6.3158919 8.90425941 6 12 C4.5 14.875 4.5 14.875 3 17 C2.67 15.68 2.34 14.36 2 13 C2.66 13 3.32 13 4 13 C3.71682074 11.39431334 3.42312209 9.79047953 3.125 8.1875 C2.96257812 7.29417969 2.80015625 6.40085937 2.6328125 5.48046875 C2.08811551 2.77272154 2.08811551 2.77272154 0 0 Z " fill="#D48647" transform="translate(326,43)"/>
<path d="M0 0 C0.66 0 1.32 0 2 0 C2 1.32 2 2.64 2 4 C3.65 3.34 5.3 2.68 7 2 C5.8141763 5.37503669 4.72426311 7.64722731 2 10 C0.68373308 6.38026598 0 3.90432869 0 0 Z " fill="#3FA9AF" transform="translate(198,88)"/>
<path d="M0 0 C0.99 0.33 1.98 0.66 3 1 C3 2.32 3 3.64 3 5 C3.99 4.67 4.98 4.34 6 4 C5.67 4.99 5.34 5.98 5 7 C2 8 2 8 -1 7 C-0.67 4.69 -0.34 2.38 0 0 Z " fill="#17ABB5" transform="translate(271,88)"/>
<path d="M0 0 C1.98 0 3.96 0 6 0 C6.33 0.66 6.66 1.32 7 2 C5.576875 2.3403125 5.576875 2.3403125 4.125 2.6875 C0.80676612 3.69083714 0.80676612 3.69083714 -0.375 6.625 C-0.58125 7.40875 -0.7875 8.1925 -1 9 C-1.66 9 -2.32 9 -3 9 C-2.44271087 5.65626525 -1.64826111 2.96687001 0 0 Z " fill="#29ABB2" transform="translate(122,85)"/>
<path d="M0 0 C0 1.98 0 3.96 0 6 C-2.64 6 -5.28 6 -8 6 C-8 5.34 -8 4.68 -8 4 C-5.69 4.33 -3.38 4.66 -1 5 C-1 4.01 -1 3.02 -1 2 C-2.65 2.33 -4.3 2.66 -6 3 C-6.33 2.01 -6.66 1.02 -7 0 C-4.3333581 -1.33332095 -2.83319697 -0.67102033 0 0 Z " fill="#EE741B" transform="translate(469,56)"/>
<path d="M0 0 C0.33 0.99 0.66 1.98 1 3 C3.31 3.33 5.62 3.66 8 4 C8 4.33 8 4.66 8 5 C2.555 6.485 2.555 6.485 -3 8 C-3 6.35 -3 4.7 -3 3 C-2.34 3 -1.68 3 -1 3 C-0.67 2.01 -0.34 1.02 0 0 Z " fill="#44ACB1" transform="translate(314,90)"/>
<path d="M0 0 C0 0.66 0 1.32 0 2 C-0.66 2 -1.32 2 -2 2 C-2 4.31 -2 6.62 -2 9 C-2.33 9 -2.66 9 -3 9 C-3 7.02 -3 5.04 -3 3 C-4.79158489 2.97303635 -6.58328473 2.95362083 -8.375 2.9375 C-9.87160156 2.92009766 -9.87160156 2.92009766 -11.3984375 2.90234375 C-13.98432453 2.81993398 -13.98432453 2.81993398 -16 4 C-15.67 3.01 -15.34 2.02 -15 1 C-13.06263299 0.83179449 -11.12510094 0.66548905 -9.1875 0.5 C-7.56908203 0.36078125 -7.56908203 0.36078125 -5.91796875 0.21875 C-3 0 -3 0 0 0 Z " fill="#43A9AF" transform="translate(344,85)"/>
<path d="M0 0 C0.33 0.66 0.66 1.32 1 2 C1.99 1.67 2.98 1.34 4 1 C2 5 0 9 -2 13 C-3.15941038 9.52176885 -2.70820884 7.54104422 -2 4 C-1.34 4 -0.68 4 0 4 C-0.33 3.01 -0.66 2.02 -1 1 C-0.67 0.67 -0.34 0.34 0 0 Z " fill="#E98035" transform="translate(177,34)"/>
<path d="M0 0 C0.598125 0.165 1.19625 0.33 1.8125 0.5 C4.11344336 1.1114124 4.11344336 1.1114124 7 1 C6.34 2.98 5.68 4.96 5 7 C5.66 7 6.32 7 7 7 C7 8.65 7 10.3 7 12 C4.47297764 10.73648882 4.14893413 9.63999253 2.9375 7.125 C2.59589844 6.42632812 2.25429688 5.72765625 1.90234375 5.0078125 C1 3 1 3 0 0 Z " fill="#E48338" transform="translate(452,35)"/>
<path d="M0 0 C-0.33 0.99 -0.66 1.98 -1 3 C-1.66 2.34 -2.32 1.68 -3 1 C-5.36509361 0.69940057 -7.74441881 0.50484988 -10.125 0.375 C-12.04699219 0.26285156 -12.04699219 0.26285156 -14.0078125 0.1484375 C-15.48894531 0.07496094 -15.48894531 0.07496094 -17 0 C-17 -0.33 -17 -0.66 -17 -1 C-4.54918033 -3.03278689 -4.54918033 -3.03278689 0 0 Z " fill="#4BA6A8" transform="translate(250,56)"/>
<path d="M0 0 C3.96 0 7.92 0 12 0 C8.00889681 1.9955516 6.30013434 2.19546065 2 2 C2.45375 2.45375 2.9075 2.9075 3.375 3.375 C4.58333333 4.58333333 5.79166667 5.79166667 7 7 C4.03 6.505 4.03 6.505 1 6 C0.67 4.02 0.34 2.04 0 0 Z " fill="#DF8541" transform="translate(310,33)"/>
<path d="M0 0 C0.33 0.66 0.66 1.32 1 2 C0.0625 4.125 0.0625 4.125 -1 6 C-0.34 6 0.32 6 1 6 C0.67 6.99 0.34 7.98 0 9 C-1.65 9.33 -3.3 9.66 -5 10 C-4.38545304 6.00544473 -2.29353263 3.25533664 0 0 Z " fill="#3AACB3" transform="translate(94,86)"/>
<path d="M0 0 C0.66 0 1.32 0 2 0 C1.67 2.31 1.34 4.62 1 7 C1.99 7 2.98 7 4 7 C3.67 8.32 3.34 9.64 3 11 C3 10.34 3 9.68 3 9 C1.68 9 0.36 9 -1 9 C-1.125 2.25 -1.125 2.25 0 0 Z " fill="#1CAAB1" transform="translate(189,87)"/>
<path d="M0 0 C2.45823172 3.68734758 3.01242616 6.69699971 4 11 C2.35 10.67 0.7 10.34 -1 10 C-0.67 6.7 -0.34 3.4 0 0 Z " fill="#ED8032" transform="translate(47,40)"/>
<path d="M0 0 C2.87105327 2.87105327 2.80272795 4.98880169 3 9 C2.23466642 11.53148801 1.21034404 13.62772569 0 16 C-1.52731594 12.94536813 -0.49228742 10.33661472 0 7 C0.03703237 4.66696056 0.04760913 2.33284758 0 0 Z " fill="#E0833E" transform="translate(87,30)"/>
<path d="M0 0 C0 0.66 0 1.32 0 2 C1.65 1.34 3.3 0.68 5 0 C4.34 1.32 3.68 2.64 3 4 C1.9275 3.79375 0.855 3.5875 -0.25 3.375 C-3.87619096 3.0123809 -5.08291076 3.01637931 -8 5 C-8 3 -8 3 -6.8125 1.375 C-4.44439338 -0.42149467 -2.90102749 -0.23521845 0 0 Z " fill="#44ADB4" transform="translate(361,93)"/>
<path d="M0 0 C6.52307692 0.61538462 6.52307692 0.61538462 8.9375 2.5625 C9.288125 3.036875 9.63875 3.51125 10 4 C9.67 4.66 9.34 5.32 9 6 C6.61435923 5.42415568 4.33317216 4.77772405 2 4 C0.8125 1.9375 0.8125 1.9375 0 0 Z " fill="#E77726" transform="translate(436,29)"/>
<path d="M0 0 C1.4540625 0.0309375 1.4540625 0.0309375 2.9375 0.0625 C2.6075 1.3825 2.2775 2.7025 1.9375 4.0625 C2.5975 4.3925 3.2575 4.7225 3.9375 5.0625 C3.6075 5.7225 3.2775 6.3825 2.9375 7.0625 C0.9375 5.6875 0.9375 5.6875 -1.0625 4.0625 C-1.0625 3.4025 -1.0625 2.7425 -1.0625 2.0625 C-2.0525 1.7325 -3.0425 1.4025 -4.0625 1.0625 C-3.0625 0.0625 -3.0625 0.0625 0 0 Z " fill="#29ADB8" transform="translate(162.0625,82.9375)"/>
<path d="M0 0 C0.66 0.66 1.32 1.32 2 2 C3.98821313 2.39764263 5.98944339 2.73775349 8 3 C8 3.66 8 4.32 8 5 C5.69 5.33 3.38 5.66 1 6 C-0.0625 4.125 -0.0625 4.125 -1 2 C-0.67 1.34 -0.34 0.68 0 0 Z " fill="#4FABAB" transform="translate(248,92)"/>
<path d="M0 0 C0.33 0.66 0.66 1.32 1 2 C1.61875 1.649375 2.2375 1.29875 2.875 0.9375 C3.926875 0.4734375 3.926875 0.4734375 5 0 C5.66 0.33 6.32 0.66 7 1 C6.67 1.99 6.34 2.98 6 4 C3.4375 5.1875 3.4375 5.1875 1 6 C0 5 0 5 -0.0625 2.4375 C-0.041875 1.633125 -0.02125 0.82875 0 0 Z " fill="#12AAB3" transform="translate(106,90)"/>
<path d="M0 0 C1.32 0 2.64 0 4 0 C3.67 3.3 3.34 6.6 3 10 C2.67 10 2.34 10 2 10 C1.67 8.02 1.34 6.04 1 4 C0.34 5.32 -0.32 6.64 -1 8 C-0.67 5.36 -0.34 2.72 0 0 Z " fill="#47B2B9" transform="translate(133,82)"/>
<path d="M0 0 C1.53166168 4.08443115 0.63081652 7.79455657 0 12 C-1.76462683 8.91190305 -2 7.76687864 -2 4 C-2.99 3.67 -3.98 3.34 -5 3 C-2 2 -2 2 0 2 C0 1.34 0 0.68 0 0 Z " fill="#EB8134" transform="translate(173,48)"/>
<path d="M0 0 C-0.33 0.66 -0.66 1.32 -1 2 C-0.34 2 0.32 2 1 2 C0.67 2.99 0.34 3.98 0 5 C-0.33 4.34 -0.66 3.68 -1 3 C-2.66321482 2.64984951 -4.33034549 2.31802943 -6 2 C-6.99 1.34 -7.98 0.68 -9 0 C-3.375 -1.125 -3.375 -1.125 0 0 Z " fill="#DE8036" transform="translate(322,48)"/>
<path d="M0 0 C1.65 1.32 3.3 2.64 5 4 C4.67 5.65 4.34 7.3 4 9 C3.01 8.67 2.02 8.34 1 8 C0.67 5.36 0.34 2.72 0 0 Z " fill="#36B0B5" transform="translate(256,25)"/>
<path d="M0 0 C0.66 0.33 1.32 0.66 2 1 C1.8864371 2.64666203 1.75882619 4.29236082 1.625 5.9375 C1.52058594 7.31228516 1.52058594 7.31228516 1.4140625 8.71484375 C1.27742188 9.46894531 1.14078125 10.22304688 1 11 C0.01 11.495 0.01 11.495 -1 12 C-1.08159574 7.83861737 -0.98248524 4.0527516 0 0 Z " fill="#34A4AD" transform="translate(288,53)"/>
<path d="M0 0 C0.66 0 1.32 0 2 0 C2 0.99 2 1.98 2 3 C2.99 2.67 3.98 2.34 5 2 C6 3 6 3 6.0625 6.0625 C6.041875 7.031875 6.02125 8.00125 6 9 C5.34 8.67 4.68 8.34 4 8 C3.855625 7.34 3.71125 6.68 3.5625 6 C3.376875 5.34 3.19125 4.68 3 4 C2.01 3.67 1.02 3.34 0 3 C0 2.01 0 1.02 0 0 Z " fill="#3EB1B8" transform="translate(242,39)"/>
<path d="M0 0 C0 1.65 0 3.3 0 5 C0.99 5.33 1.98 5.66 3 6 C2.67 6.99 2.34 7.98 2 9 C1.01 8.67 0.02 8.34 -1 8 C-2.1875 4.4375 -2.1875 4.4375 -3 1 C-1 0 -1 0 0 0 Z " fill="#4FAAAB" transform="translate(169,88)"/>
<path d="M0 0 C1.41377341 2.63904371 2.37240135 5.07120629 3 8 C0 7 0 7 -1.6875 3.9375 C-2.120625 2.968125 -2.55375 1.99875 -3 1 C-2.01 0.67 -1.02 0.34 0 0 Z " fill="#D38A49" transform="translate(45,56)"/>
<path d="M0 0 C2.7231372 4.0847058 3.30787688 6.07396997 3 11 C2.34 11.66 1.68 12.32 1 13 C0.83052421 11.58366664 0.66454493 10.16691467 0.5 8.75 C0.4071875 7.96109375 0.314375 7.1721875 0.21875 6.359375 C0 4 0 4 0 0 Z " fill="#DD813A" transform="translate(123,30)"/>
<path d="M0 0 C0.99 0 1.98 0 3 0 C3 1.32 3 2.64 3 4 C2.01 4 1.02 4 0 4 C-0.33 4.99 -0.66 5.98 -1 7 C-1.625 4.625 -1.625 4.625 -2 2 C-1.34 1.34 -0.68 0.68 0 0 Z " fill="#FC6F0D" transform="translate(160,29)"/>
<path d="M0 0 C3.3 0.33 6.6 0.66 10 1 C10 1.33 10 1.66 10 2 C8.02 2 6.04 2 4 2 C3.67 3.32 3.34 4.64 3 6 C0 2.25 0 2.25 0 0 Z " fill="#E08643" transform="translate(150,25)"/>
<path d="M0 0 C-2.96178773 1.67110042 -5.37071192 2.32682752 -8.75 2.625 C-9.54921875 2.69976562 -10.3484375 2.77453125 -11.171875 2.8515625 C-11.77515625 2.90054687 -12.3784375 2.94953125 -13 3 C-12.01 2.67 -11.02 2.34 -10 2 C-10 1.34 -10 0.68 -10 0 C-6.30458414 -0.95024979 -3.69541586 -0.95024979 0 0 Z " fill="#3B989E" transform="translate(283,8)"/>
<path d="M0 0 C1.65 0 3.3 0 5 0 C4.67 0.99 4.34 1.98 4 3 C1.4375 4.1875 1.4375 4.1875 -1 5 C-0.67 3.35 -0.34 1.7 0 0 Z " fill="#16ABB9" transform="translate(201,87)"/>
<path d="M0 0 C0 3.86695678 -1.41909971 6.5088452 -3 10 C-3.99 10 -4.98 10 -6 10 C-5.07158393 7.21475178 -4.14761223 5.63649867 -2.4375 3.3125 C-1.98246094 2.68988281 -1.52742187 2.06726563 -1.05859375 1.42578125 C-0.53458984 0.72001953 -0.53458984 0.72001953 0 0 Z " fill="#E4843D" transform="translate(173,29)"/>
<path d="M0 0 C2.7710688 2.34591852 3.52059284 4.14776201 4.1875 7.6875 C4.34605469 8.49574219 4.50460938 9.30398437 4.66796875 10.13671875 C4.77753906 10.75160156 4.88710938 11.36648437 5 12 C3 11 3 11 2.1484375 9.00390625 C1.89320312 8.19824219 1.63796875 7.39257812 1.375 6.5625 C1.11460938 5.75941406 0.85421875 4.95632812 0.5859375 4.12890625 C0 2 0 2 0 0 Z " fill="#E6863F" transform="translate(42,28)"/>
<path d="M0 0 C0.33 0.66 0.66 1.32 1 2 C0.01 3.485 0.01 3.485 -1 5 C-1.66 5 -2.32 5 -3 5 C-3 5.99 -3 6.98 -3 8 C-3.99 8.33 -4.98 8.66 -6 9 C-4.68775452 5.06326356 -3.08089673 2.77280706 0 0 Z " fill="#E18139" transform="translate(472,28)"/>
<path d="M0 0 C0.33 0.99 0.66 1.98 1 3 C1.66 3 2.32 3 3 3 C3.33 4.65 3.66 6.3 4 8 C2.68 7.67 1.36 7.34 0 7 C0 4.69 0 2.38 0 0 Z " fill="#16A9B2" transform="translate(298,89)"/>
<path d="M0 0 C2.97 0.495 2.97 0.495 6 1 C6 1.99 6 2.98 6 4 C4.35 4 2.7 4 1 4 C0.67 2.68 0.34 1.36 0 0 Z " fill="#15ACB7" transform="translate(251,87)"/>
<path d="M0 0 C1.32 0 2.64 0 4 0 C4 0.66 4 1.32 4 2 C3.01 2.495 3.01 2.495 2 3 C1.53348793 5.12576782 1.53348793 5.12576782 1.375 7.5625 C1.30023438 8.38878906 1.22546875 9.21507813 1.1484375 10.06640625 C1.09945312 10.70449219 1.05046875 11.34257813 1 12 C0.34 11.67 -0.32 11.34 -1 11 C-0.67 7.37 -0.34 3.74 0 0 Z " fill="#4FACAD" transform="translate(138,86)"/>
<path d="M0 0 C2.97 0.495 2.97 0.495 6 1 C5.01 2.485 5.01 2.485 4 4 C0.875 4.1875 0.875 4.1875 -2 4 C-1.34 2.68 -0.68 1.36 0 0 Z " fill="#EB7825" transform="translate(438,56)"/>
<path d="M0 0 C1.65 0.33 3.3 0.66 5 1 C5 1.66 5 2.32 5 3 C2.69 3.33 0.38 3.66 -2 4 C-1.34 2.68 -0.68 1.36 0 0 Z " fill="#F07218" transform="translate(377,54)"/>
<path d="M0 0 C0.928125 0.20625 1.85625 0.4125 2.8125 0.625 C1.8225 0.955 0.8325 1.285 -0.1875 1.625 C-0.1875 2.615 -0.1875 3.605 -0.1875 4.625 C-0.8475 4.625 -1.5075 4.625 -2.1875 4.625 C-2.1875 3.965 -2.1875 3.305 -2.1875 2.625 C-3.5075 2.295 -4.8275 1.965 -6.1875 1.625 C-3.1875 -0.375 -3.1875 -0.375 0 0 Z " fill="#3BAAB3" transform="translate(353.1875,85.375)"/>
<path d="M0 0 C1.2065625 0.0309375 1.2065625 0.0309375 2.4375 0.0625 C1.4475 2.0425 0.4575 4.0225 -0.5625 6.0625 C-0.68625 5.423125 -0.81 4.78375 -0.9375 4.125 C-1.246875 3.1040625 -1.246875 3.1040625 -1.5625 2.0625 C-2.2225 1.7325 -2.8825 1.4025 -3.5625 1.0625 C-2.5625 0.0625 -2.5625 0.0625 0 0 Z " fill="#39AEB6" transform="translate(238.5625,91.9375)"/>
<path d="M0 0 C2.31 0.33 4.62 0.66 7 1 C6.34 2.32 5.68 3.64 5 5 C4.67 4.01 4.34 3.02 4 2 C2.68 2 1.36 2 0 2 C0 1.34 0 0.68 0 0 Z " fill="#49AFB3" transform="translate(385,92)"/>
<path d="M0 0 C0 0.66 0 1.32 0 2 C-2.31 2 -4.62 2 -7 2 C-7 1.34 -7 0.68 -7 0 C-4.3333581 -1.33332095 -2.83319697 -0.67102033 0 0 Z " fill="#1FACB5" transform="translate(260,84)"/>
<path d="M0 0 C0.33 0 0.66 0 1 0 C1.29296875 6.0546875 1.29296875 6.0546875 1 8 C0.01 8.66 -0.98 9.32 -2 10 C-2.25 3.375 -2.25 3.375 0 0 Z " fill="#E38136" transform="translate(26,34)"/>
<path d="M0 0 C2.69082872 0.17635452 5.32851446 0.61835921 8 1 C8 1.33 8 1.66 8 2 C5.36 2.66 2.72 3.32 0 4 C-0.33 3.01 -0.66 2.02 -1 1 C-0.67 0.67 -0.34 0.34 0 0 Z " fill="#E97726" transform="translate(105,31)"/>
<path d="M0 0 C0.99 0 1.98 0 3 0 C2.67 1.65 2.34 3.3 2 5 C0.35 4.67 -1.3 4.34 -3 4 C-2.01 3.67 -1.02 3.34 0 3 C0 2.01 0 1.02 0 0 Z " fill="#4DB1B4" transform="translate(325,92)"/>
<path d="M0 0 C0 0.66 0 1.32 0 2 C-4.75 3.125 -4.75 3.125 -7 2 C-7 1.34 -7 0.68 -7 0 C-3.98968256 -0.93423645 -3.13349732 -1.04449911 0 0 Z " fill="#3AA5A9" transform="translate(164,95)"/>
<path d="M0 0 C0.33 0.66 0.66 1.32 1 2 C-0.32 3.65 -1.64 5.3 -3 7 C-3.33 5.35 -3.66 3.7 -4 2 C-2.68 1.34 -1.36 0.68 0 0 Z " fill="#36AEB8" transform="translate(305,90)"/>
<path d="M0 0 C0.99 0 1.98 0 3 0 C3.66 1.65 4.32 3.3 5 5 C3.125 4.6875 3.125 4.6875 1 4 C0.34 3.01 -0.32 2.02 -1 1 C-0.67 0.67 -0.34 0.34 0 0 Z " fill="#20AFBC" transform="translate(409,87)"/>
<path d="M0 0 C2.31 0 4.62 0 7 0 C6.67 0.99 6.34 1.98 6 3 C4.02 3 2.04 3 0 3 C0 2.01 0 1.02 0 0 Z " fill="#15ACB9" transform="translate(332,87)"/>
<path d="M0 0 C0.66 0.66 1.32 1.32 2 2 C4.06874034 2.6425235 4.06874034 2.6425235 6 3 C6 3.66 6 4.32 6 5 C3.69 5 1.38 5 -1 5 C-0.67 3.35 -0.34 1.7 0 0 Z " fill="#DD7A31" transform="translate(414,58)"/>
<path d="M0 0 C0.99 0 1.98 0 3 0 C2.690625 0.598125 2.38125 1.19625 2.0625 1.8125 C0.89790296 4.08956772 0.89790296 4.08956772 0 7 C-0.66 6.67 -1.32 6.34 -2 6 C-1.125 1.125 -1.125 1.125 0 0 Z " fill="#40A3A7" transform="translate(242,43)"/>
<path d="M0 0 C6.75 0.875 6.75 0.875 9 2 C8.67 2.66 8.34 3.32 8 4 C5.125 3.6875 5.125 3.6875 2 3 C1.34 2.01 0.68 1.02 0 0 Z " fill="#EC7F31" transform="translate(317,40)"/>
<path d="M0 0 C0.12375 0.5775 0.2475 1.155 0.375 1.75 C1.00648824 4.02335767 1.88858191 5.9253529 3 8 C1.68 8 0.36 8 -1 8 C-1.125 2.25 -1.125 2.25 0 0 Z " fill="#F07319" transform="translate(304,30)"/>
<path d="M0 0 C0.66 1.32 1.32 2.64 2 4 C1.01 4 0.02 4 -1 4 C-0.67 2.68 -0.34 1.36 0 0 Z " fill="#707F6E" transform="translate(1,8)"/>
<path d="M0 0 C2 1 2 1 2 1 Z " fill="#5AA6A2" transform="translate(10,1)"/>
<path d="" fill="#70AC9D" transform="translate(0,0)"/>
</svg>
